<mxfile host="app.diagrams.net" modified="2023-09-13T05:52:30.877Z" agent="Mozilla/5.0 (Windows NT 10.0; Win64; x64) AppleWebKit/537.36 (KHTML, like Gecko) Chrome/116.0.0.0 Safari/537.36" etag="_l9gYISpEET49smy76to" version="21.7.4" type="device">
  <diagram name="Time Complexity" id="w_BIOmWP6AhQnqwYeUYx">
    <mxGraphModel dx="1659" dy="2295" grid="0" gridSize="10" guides="1" tooltips="1" connect="1" arrows="1" fold="1" page="0" pageScale="1" pageWidth="850" pageHeight="1100" math="0" shadow="0">
      <root>
        <mxCell id="0" />
        <mxCell id="1" parent="0" />
        <mxCell id="HmxGC194nbF6Ze_ij5kS-58" style="edgeStyle=orthogonalEdgeStyle;rounded=0;orthogonalLoop=1;jettySize=auto;html=1;" parent="1" source="HmxGC194nbF6Ze_ij5kS-59" target="HmxGC194nbF6Ze_ij5kS-2" edge="1">
          <mxGeometry relative="1" as="geometry" />
        </mxCell>
        <UserObject label="&lt;p style=&quot;line-height: 260%;&quot;&gt;&lt;b&gt;&lt;font data-font-src=&quot;https://fonts.googleapis.com/css?family=Roboto&quot; face=&quot;Roboto&quot; style=&quot;font-size: 18px;&quot;&gt;DATA STRUCTURE AND ALGORITHM&lt;/font&gt;&lt;/b&gt;&lt;/p&gt;" link="https://github.com/SanjeetDutt/NOTES/blob/master/draw_io/DataStructureAndAlgo.drawio" linkTarget="_blank" id="HmxGC194nbF6Ze_ij5kS-59">
          <mxCell style="rounded=1;whiteSpace=wrap;html=1;fillColor=#d5e8d4;strokeColor=none;shadow=1;treeFolding=1;editable=1;movable=1;resizable=1;rotatable=1;deletable=1;locked=0;connectable=1;" parent="1" vertex="1">
            <mxGeometry x="-265" y="-826" width="197" height="94" as="geometry" />
          </mxCell>
        </UserObject>
        <mxCell id="svTAk3EwG5xAMpe_9DkS-2" style="edgeStyle=orthogonalEdgeStyle;rounded=0;orthogonalLoop=1;jettySize=auto;html=1;" parent="1" source="HmxGC194nbF6Ze_ij5kS-2" target="svTAk3EwG5xAMpe_9DkS-1" edge="1">
          <mxGeometry relative="1" as="geometry" />
        </mxCell>
        <mxCell id="HmxGC194nbF6Ze_ij5kS-2" value="&lt;p style=&quot;line-height: 142%;&quot;&gt;&lt;b&gt;&lt;font data-font-src=&quot;https://fonts.googleapis.com/css?family=Roboto&quot; face=&quot;Roboto&quot; style=&quot;font-size: 15px;&quot;&gt;Time and Space Complexity&lt;/font&gt;&lt;/b&gt;&lt;/p&gt;" style="rounded=1;whiteSpace=wrap;html=1;fillColor=#dae8fc;strokeColor=none;shadow=1;treeFolding=0;movable=1;resizable=1;rotatable=1;deletable=1;editable=1;locked=0;connectable=1;expand=1;recursiveResize=1;" parent="1" vertex="1">
          <mxGeometry x="-17" y="-826" width="129" height="94" as="geometry" />
        </mxCell>
        <mxCell id="HmxGC194nbF6Ze_ij5kS-3" value="&lt;p style=&quot;line-height: 142%;&quot;&gt;&lt;font data-font-src=&quot;https://fonts.googleapis.com/css?family=Roboto&quot; face=&quot;Roboto&quot; style=&quot;font-size: 15px;&quot;&gt;Formula&lt;/font&gt;&lt;/p&gt;" style="rounded=1;whiteSpace=wrap;html=1;shadow=1;treeFolding=1;movable=1;resizable=1;rotatable=1;deletable=1;editable=1;locked=0;connectable=1;strokeColor=none;fillColor=#CCFFFF;" parent="1" vertex="1">
          <mxGeometry x="627" y="-1150" width="129" height="39" as="geometry" />
        </mxCell>
        <mxCell id="HmxGC194nbF6Ze_ij5kS-4" style="edgeStyle=orthogonalEdgeStyle;rounded=0;orthogonalLoop=1;jettySize=auto;html=1;entryX=0;entryY=0.5;entryDx=0;entryDy=0;" parent="1" source="HmxGC194nbF6Ze_ij5kS-2" target="HmxGC194nbF6Ze_ij5kS-3" edge="1">
          <mxGeometry relative="1" as="geometry">
            <Array as="points">
              <mxPoint x="599" y="-785" />
              <mxPoint x="599" y="-1130" />
            </Array>
          </mxGeometry>
        </mxCell>
        <mxCell id="HmxGC194nbF6Ze_ij5kS-5" style="edgeStyle=orthogonalEdgeStyle;rounded=0;orthogonalLoop=1;jettySize=auto;html=1;entryX=0.009;entryY=0.482;entryDx=0;entryDy=0;entryPerimeter=0;" parent="1" source="HmxGC194nbF6Ze_ij5kS-6" target="HmxGC194nbF6Ze_ij5kS-57" edge="1">
          <mxGeometry relative="1" as="geometry" />
        </mxCell>
        <mxCell id="HmxGC194nbF6Ze_ij5kS-6" value="Arithmetic Progression" style="swimlane;whiteSpace=wrap;html=1;fillColor=#b1ddf0;strokeColor=#10739e;" parent="1" vertex="1">
          <mxGeometry x="839" y="-1434" width="254" height="289" as="geometry" />
        </mxCell>
        <mxCell id="HmxGC194nbF6Ze_ij5kS-7" value="" style="group" parent="HmxGC194nbF6Ze_ij5kS-6" vertex="1" connectable="0">
          <mxGeometry x="11" y="32" width="229.09000000000003" height="67" as="geometry" />
        </mxCell>
        <mxCell id="HmxGC194nbF6Ze_ij5kS-8" value="Sum of n-natural number:&lt;br&gt;" style="text;html=1;align=left;verticalAlign=middle;resizable=0;points=[];autosize=1;strokeColor=none;fillColor=none;" parent="HmxGC194nbF6Ze_ij5kS-7" vertex="1">
          <mxGeometry width="154" height="26" as="geometry" />
        </mxCell>
        <mxCell id="HmxGC194nbF6Ze_ij5kS-9" value="" style="shape=image;verticalLabelPosition=bottom;labelBackgroundColor=default;verticalAlign=top;aspect=fixed;imageAspect=0;image=data:image/svg+xml,PHN2ZyB4bWxuczp4bGluaz0iaHR0cDovL3d3dy53My5vcmcvMTk5OS94bGluayIgeG1sbnM9Imh0dHA6Ly93d3cudzMub3JnLzIwMDAvc3ZnIiB2aWV3Qm94PSItLjIzOTA1MSAtLjIyNzQ0MSAxNDUuNjUwMDI5IDI0LjM2MzUzNSIgaGVpZ2h0PSIyNC4zNjM1MzVwdCIgd2lkdGg9IjE0NS42NTAwMjlwdCIgdmVyc2lvbj0iMS4xIj4mI3hhOzxkZWZzPiYjeGE7PHBhdGggZD0iTTMuODg1NDMgMi45MDUxMDZDMy44ODU0MyAyLjg2OTI0IDMuODg1NDMgMi44NDUzMyAzLjY4MjE5MiAyLjY0MjA5MkMyLjQ4NjY3NSAxLjQzNDYyIDEuODE3MTg2LS41Mzc5ODMgMS44MTcxODYtMi45NzY4MzdDMS44MTcxODYtNS4yOTYxMzkgMi4zNzkwNzgtNy4yOTI2NTMgMy43NjU4NzgtOC43MDMzNjJDMy44ODU0My04LjgxMDk1OSAzLjg4NTQzLTguODM0ODY5IDMuODg1NDMtOC44NzA3MzVDMy44ODU0My04Ljk0MjQ2NiAzLjgyNTY1NC04Ljk2NjM3NiAzLjc3NzgzMy04Ljk2NjM3NkMzLjYyMjQxNi04Ljk2NjM3NiAyLjY0MjA5Mi04LjEwNTYwNCAyLjA1NjI4OS02LjkzMzk5OEMxLjQ0NjU3NS01LjcyNjUyNiAxLjE3MTYwNi00LjQ0NzMyMyAxLjE3MTYwNi0yLjk3NjgzN0MxLjE3MTYwNi0xLjkxMjgyNyAxLjMzODk3OS0uNDkwMTYyIDEuOTYwNjQ4IC43ODkwNDFDMi42NjYwMDIgMi4yMjM2NjEgMy42NDYzMjYgMy4wMDA3NDcgMy43Nzc4MzMgMy4wMDA3NDdDMy44MjU2NTQgMy4wMDA3NDcgMy44ODU0MyAyLjk3NjgzNyAzLjg4NTQzIDIuOTA1MTA2WiIgaWQ9ImcyLTQwIi8+JiN4YTs8cGF0aCBkPSJNMy4zNzEzNTctMi45NzY4MzdDMy4zNzEzNTctMy44ODU0MyAzLjI1MTgwNi01LjM2Nzg3IDIuNTgyMzE2LTYuNzU0NjdDMS44NzY5NjEtOC4xODkyOSAuODk2NjM4LTguOTY2Mzc2IC43NjUxMzEtOC45NjYzNzZDLjcxNzMxLTguOTY2Mzc2IC42NTc1MzQtOC45NDI0NjYgLjY1NzUzNC04Ljg3MDczNUMuNjU3NTM0LTguODM0ODY5IC42NTc1MzQtOC44MTA5NTkgLjg2MDc3Mi04LjYwNzcyMUMyLjA1NjI4OS03LjQwMDI0OSAyLjcyNTc3OC01LjQyNzY0NiAyLjcyNTc3OC0yLjk4ODc5MkMyLjcyNTc3OC0uNjY5NDg5IDIuMTYzODg1IDEuMzI3MDI0IC43NzcwODYgMi43Mzc3MzNDLjY1NzUzNCAyLjg0NTMzIC42NTc1MzQgMi44NjkyNCAuNjU3NTM0IDIuOTA1MTA2Qy42NTc1MzQgMi45NzY4MzcgLjcxNzMxIDMuMDAwNzQ3IC43NjUxMzEgMy4wMDA3NDdDLjkyMDU0OCAzLjAwMDc0NyAxLjkwMDg3MiAyLjEzOTk3NSAyLjQ4NjY3NSAuOTY4MzY5QzMuMDk2Mzg5LS4yNTEwNTkgMy4zNzEzNTctMS41NDIyMTcgMy4zNzEzNTctMi45NzY4MzdaIiBpZD0iZzItNDEiLz4mI3hhOzxwYXRoIGQ9Ik00Ljc3MDExMi0yLjc2MTY0NEg4LjA2OTczOEM4LjIzNzExMS0yLjc2MTY0NCA4LjQ1MjMwNC0yLjc2MTY0NCA4LjQ1MjMwNC0yLjk3NjgzN0M4LjQ1MjMwNC0zLjIwMzk4NSA4LjI0OTA2Ni0zLjIwMzk4NSA4LjA2OTczOC0zLjIwMzk4NUg0Ljc3MDExMlYtNi41MDM2MTFDNC43NzAxMTItNi42NzA5ODQgNC43NzAxMTItNi44ODYxNzcgNC41NTQ5MTktNi44ODYxNzdDNC4zMjc3NzEtNi44ODYxNzcgNC4zMjc3NzEtNi42ODI5MzkgNC4zMjc3NzEtNi41MDM2MTFWLTMuMjAzOTg1SDEuMDI4MTQ0Qy44NjA3NzItMy4yMDM5ODUgLjY0NTU3OS0zLjIwMzk4NSAuNjQ1NTc5LTIuOTg4NzkyQy42NDU1NzktMi43NjE2NDQgLjg0ODgxNy0yLjc2MTY0NCAxLjAyODE0NC0yLjc2MTY0NEg0LjMyNzc3MVYuNTM3OTgzQzQuMzI3NzcxIC43MDUzNTUgNC4zMjc3NzEgLjkyMDU0OCA0LjU0Mjk2NCAuOTIwNTQ4QzQuNzcwMTEyIC45MjA1NDggNC43NzAxMTIgLjcxNzMxIDQuNzcwMTEyIC41Mzc5ODNWLTIuNzYxNjQ0WiIgaWQ9ImcyLTQzIi8+JiN4YTs8cGF0aCBkPSJNMy40NDMwODgtNy42NjMyNjNDMy40NDMwODgtNy45MzgyMzIgMy40NDMwODgtNy45NTAxODcgMy4yMDM5ODUtNy45NTAxODdDMi45MTcwNjEtNy42MjczOTcgMi4zMTkzMDMtNy4xODUwNTYgMS4wODc5Mi03LjE4NTA1NlYtNi44MzgzNTZDMS4zNjI4ODktNi44MzgzNTYgMS45NjA2NDgtNi44MzgzNTYgMi42MTgxODItNy4xNDkxOTFWLS45MjA1NDhDMi42MTgxODItLjQ5MDE2MiAyLjU4MjMxNi0uMzQ2NyAxLjUzMDI2Mi0uMzQ2N0gxLjE1OTY1MVYwQzEuNDgyNDQxLS4wMjM5MSAyLjY0MjA5Mi0uMDIzOTEgMy4wMzY2MTMtLjAyMzkxUzQuNTc4ODI5LS4wMjM5MSA0LjkwMTYxOSAwVi0uMzQ2N0g0LjUzMTAwOUMzLjQ3ODk1NC0uMzQ2NyAzLjQ0MzA4OC0uNDkwMTYyIDMuNDQzMDg4LS45MjA1NDhWLTcuNjYzMjYzWiIgaWQ9ImcyLTQ5Ii8+JiN4YTs8cGF0aCBkPSJNNS4yNjAyNzQtMi4wMDg0NjhINC45OTcyNkM0Ljk2MTM5NS0xLjgwNTIzIDQuODY1NzUzLTEuMTQ3Njk2IDQuNzQ2MjAyLS45NTY0MTNDNC42NjI1MTYtLjg0ODgxNyAzLjk4MTA3MS0uODQ4ODE3IDMuNjIyNDE2LS44NDg4MTdIMS40MTA3MUMxLjczMzQ5OS0xLjEyMzc4NiAyLjQ2Mjc2NS0xLjg4ODkxNyAyLjc3MzU5OS0yLjE3NTg0MUM0LjU5MDc4NS0zLjg0OTU2NCA1LjI2MDI3NC00LjQ3MTIzMyA1LjI2MDI3NC01LjY1NDc5NUM1LjI2MDI3NC03LjAyOTYzOSA0LjE3MjM1NC03Ljk1MDE4NyAyLjc4NTU1NC03Ljk1MDE4N1MuNTg1ODAzLTYuNzY2NjI1IC41ODU4MDMtNS43Mzg0ODFDLjU4NTgwMy01LjEyODc2NyAxLjExMTgzMS01LjEyODc2NyAxLjE0NzY5Ni01LjEyODc2N0MxLjM5ODc1NS01LjEyODc2NyAxLjcwOTU4OS01LjMwODA5NSAxLjcwOTU4OS01LjY5MDY2QzEuNzA5NTg5LTYuMDI1NDA1IDEuNDgyNDQxLTYuMjUyNTUzIDEuMTQ3Njk2LTYuMjUyNTUzQzEuMDQwMS02LjI1MjU1MyAxLjAxNjE4OS02LjI1MjU1MyAuOTgwMzI0LTYuMjQwNTk4QzEuMjA3NDcyLTcuMDUzNTQ5IDEuODUzMDUxLTcuNjAzNDg3IDIuNjMwMTM3LTcuNjAzNDg3QzMuNjQ2MzI2LTcuNjAzNDg3IDQuMjY3OTk1LTYuNzU0NjcgNC4yNjc5OTUtNS42NTQ3OTVDNC4yNjc5OTUtNC42Mzg2MDUgMy42ODIxOTItMy43NTM5MjMgMy4wMDA3NDctMi45ODg3OTJMLjU4NTgwMy0uMjg2OTI0VjBINC45NDk0NEw1LjI2MDI3NC0yLjAwODQ2OFoiIGlkPSJnMi01MCIvPiYjeGE7PHBhdGggZD0iTTguMDY5NzM4LTMuODczNDc0QzguMjM3MTExLTMuODczNDc0IDguNDUyMzA0LTMuODczNDc0IDguNDUyMzA0LTQuMDg4NjY3QzguNDUyMzA0LTQuMzE1ODE2IDguMjQ5MDY2LTQuMzE1ODE2IDguMDY5NzM4LTQuMzE1ODE2SDEuMDI4MTQ0Qy44NjA3NzItNC4zMTU4MTYgLjY0NTU3OS00LjMxNTgxNiAuNjQ1NTc5LTQuMTAwNjIzQy42NDU1NzktMy44NzM0NzQgLjg0ODgxNy0zLjg3MzQ3NCAxLjAyODE0NC0zLjg3MzQ3NEg4LjA2OTczOFpNOC4wNjk3MzgtMS42NDk4MTNDOC4yMzcxMTEtMS42NDk4MTMgOC40NTIzMDQtMS42NDk4MTMgOC40NTIzMDQtMS44NjUwMDZDOC40NTIzMDQtMi4wOTIxNTQgOC4yNDkwNjYtMi4wOTIxNTQgOC4wNjk3MzgtMi4wOTIxNTRIMS4wMjgxNDRDLjg2MDc3Mi0yLjA5MjE1NCAuNjQ1NTc5LTIuMDkyMTU0IC42NDU1NzktMS44NzY5NjFDLjY0NTU3OS0xLjY0OTgxMyAuODQ4ODE3LTEuNjQ5ODEzIDEuMDI4MTQ0LTEuNjQ5ODEzSDguMDY5NzM4WiIgaWQ9ImcyLTYxIi8+JiN4YTs8cGF0aCBkPSJNNy44Nzg0NTYtMi43NDk2ODlDOC4wODE2OTQtMi43NDk2ODkgOC4yOTY4ODctMi43NDk2ODkgOC4yOTY4ODctMi45ODg3OTJTOC4wODE2OTQtMy4yMjc4OTUgNy44Nzg0NTYtMy4yMjc4OTVIMS40MTA3MUMxLjIwNzQ3Mi0zLjIyNzg5NSAuOTkyMjc5LTMuMjI3ODk1IC45OTIyNzktMi45ODg3OTJTMS4yMDc0NzItMi43NDk2ODkgMS40MTA3MS0yLjc0OTY4OUg3Ljg3ODQ1NloiIGlkPSJnMC0wIi8+JiN4YTs8cGF0aCBkPSJNNy41OTE1MzItOC4zMDg4NDJDNy41OTE1MzItOC40MTY0MzggNy41MDc4NDYtOC40MTY0MzggNy40ODM5MzUtOC40MTY0MzhDNy40MzYxMTUtOC40MTY0MzggNy40MjQxNTktOC40MDQ0ODMgNy4yODA2OTctOC4yMjUxNTZDNy4yMDg5NjYtOC4xNDE0NjkgNi43MTg4MDQtNy41MTk4MDEgNi43MDY4NDktNy41MDc4NDZDNi4zMTIzMjktOC4yODQ5MzIgNS41MjMyODgtOC40MTY0MzggNS4wMjExNzEtOC40MTY0MzhDMy41MDI4NjQtOC40MTY0MzggMi4xMjgwMi03LjAyOTYzOSAyLjEyODAyLTUuNjc4NzA1QzIuMTI4MDItNC43ODIwNjcgMi42NjYwMDItNC4yNTYwNCAzLjI1MTgwNi00LjA1MjgwMkMzLjM4MzMxMy00LjAwNDk4MSA0LjA4ODY2Ny0zLjgxMzY5OSA0LjQ0NzMyMy0zLjczMDAxMkM1LjA1NzAzNi0zLjU2MjY0IDUuMjEyNDUzLTMuNTE0ODE5IDUuNDYzNTEyLTMuMjUxODA2QzUuNTExMzMzLTMuMTkyMDMgNS43NTA0MzYtMi45MTcwNjEgNS43NTA0MzYtMi4zNTUxNjhDNS43NTA0MzYtMS4yNDMzMzcgNC43MjIyOTEtLjA5NTY0MSAzLjUyNjc3NS0uMDk1NjQxQzIuNTQ2NDUxLS4wOTU2NDEgMS40NTg1MzEtLjUxNDA3MiAxLjQ1ODUzMS0xLjg1MzA1MUMxLjQ1ODUzMS0yLjA4MDE5OSAxLjUwNjM1MS0yLjM2NzEyMyAxLjU0MjIxNy0yLjQ4NjY3NUMxLjU0MjIxNy0yLjUyMjU0IDEuNTU0MTcyLTIuNTgyMzE2IDEuNTU0MTcyLTIuNjA2MjI3QzEuNTU0MTcyLTIuNjU0MDQ3IDEuNTMwMjYyLTIuNzEzODIzIDEuNDM0NjItMi43MTM4MjNDMS4zMjcwMjQtMi43MTM4MjMgMS4zMTUwNjgtMi42ODk5MTMgMS4yNjcyNDgtMi40ODY2NzVMLjY1NzUzNC0uMDM1ODY2Qy42NTc1MzQtLjAyMzkxIC42MDk3MTQgLjEzMTUwNyAuNjA5NzE0IC4xNDM0NjJDLjYwOTcxNCAuMjUxMDU5IC43MDUzNTUgLjI1MTA1OSAuNzI5MjY1IC4yNTEwNTlDLjc3NzA4NiAuMjUxMDU5IC43ODkwNDEgLjIzOTEwMyAuOTMyNTAzIC4wNTk3NzZMMS40ODI0NDEtLjY1NzUzNEMxLjc2OTM2NS0uMjI3MTQ4IDIuMzkxMDM0IC4yNTEwNTkgMy41MDI4NjQgLjI1MTA1OUM1LjA0NTA4MSAuMjUxMDU5IDYuNDU1NzkxLTEuMjQzMzM3IDYuNDU1NzkxLTIuNzM3NzMzQzYuNDU1NzkxLTMuMjM5ODUxIDYuMzM2MjM5LTMuNjgyMTkyIDUuODgxOTQzLTQuMTI0NTMzQzUuNjMwODg0LTQuMzc1NTkyIDUuNDE1NjkxLTQuNDM1MzY3IDQuMzE1ODE2LTQuNzIyMjkxQzMuNTE0ODE5LTQuOTM3NDg0IDMuNDA3MjIzLTQuOTczMzUgMy4xOTIwMy01LjE2NDYzM0MyLjk4ODc5Mi01LjM2Nzg3IDIuODMzMzc1LTUuNjU0Nzk1IDIuODMzMzc1LTYuMDYxMjdDMi44MzMzNzUtNy4wNjU1MDQgMy44NDk1NjQtOC4wOTM2NDkgNC45ODUzMDUtOC4wOTM2NDlDNi4xNTY5MTItOC4wOTM2NDkgNi43MDY4NDktNy4zNzYzMzkgNi43MDY4NDktNi4yNDA1OThDNi43MDY4NDktNS45Mjk3NjMgNi42NDcwNzMtNS42MDY5NzQgNi42NDcwNzMtNS41NTkxNTNDNi42NDcwNzMtNS40NTE1NTcgNi43NDI3MTUtNS40NTE1NTcgNi43Nzg1OC01LjQ1MTU1N0M2Ljg4NjE3Ny01LjQ1MTU1NyA2Ljg5ODEzMi01LjQ4NzQyMiA2Ljk0NTk1My01LjY3ODcwNUw3LjU5MTUzMi04LjMwODg0MloiIGlkPSJnMS04MyIvPiYjeGE7PHBhdGggZD0iTTMuNTk4NTA2LTEuNDIyNjY1QzMuNTM4NzMtMS4yMTk0MjcgMy41Mzg3My0xLjE5NTUxNyAzLjM3MTM1Ny0uOTY4MzY5QzMuMTA4MzQ0LS42MzM2MjQgMi41ODIzMTYtLjExOTU1MiAyLjAyMDQyMy0uMTE5NTUyQzEuNTMwMjYyLS4xMTk1NTIgMS4yNTUyOTMtLjU2MTg5MyAxLjI1NTI5My0xLjI2NzI0OEMxLjI1NTI5My0xLjkyNDc4MiAxLjYyNTkwMy0zLjI2Mzc2MSAxLjg1MzA1MS0zLjc2NTg3OEMyLjI1OTUyNy00LjYwMjc0IDIuODIxNDItNS4wMzMxMjYgMy4yODc2NzEtNS4wMzMxMjZDNC4wNzY3MTItNS4wMzMxMjYgNC4yMzIxMy00LjA1MjgwMiA0LjIzMjEzLTMuOTU3MTYxQzQuMjMyMTMtMy45NDUyMDUgNC4xOTYyNjQtMy43ODk3ODggNC4xODQzMDktMy43NjU4NzhMMy41OTg1MDYtMS40MjI2NjVaTTQuMzYzNjM2LTQuNDgzMTg4QzQuMjMyMTMtNC43OTQwMjIgMy45MDkzNC01LjI3MjIyOSAzLjI4NzY3MS01LjI3MjIyOUMxLjkzNjczNy01LjI3MjIyOSAuNDc4MjA3LTMuNTI2Nzc1IC40NzgyMDctMS43NTc0MUMuNDc4MjA3LS41NzM4NDggMS4xNzE2MDYgLjExOTU1MiAxLjk4NDU1OCAuMTE5NTUyQzIuNjQyMDkyIC4xMTk1NTIgMy4yMDM5ODUtLjM5NDUyMSAzLjUzODczLS43ODkwNDFDMy42NTgyODEtLjA4MzY4NiA0LjIyMDE3NCAuMTE5NTUyIDQuNTc4ODI5IC4xMTk1NTJTNS4yMjQ0MDgtLjA5NTY0MSA1LjQzOTYwMS0uNTI2MDI3QzUuNjMwODg0LS45MzI1MDMgNS43OTgyNTctMS42NjE3NjggNS43OTgyNTctMS43MDk1ODlDNS43OTgyNTctMS43NjkzNjUgNS43NTA0MzYtMS44MTcxODYgNS42Nzg3MDUtMS44MTcxODZDNS41NzExMDgtMS44MTcxODYgNS41NTkxNTMtMS43NTc0MSA1LjUxMTMzMy0xLjU3ODA4MkM1LjMzMjAwNS0uODcyNzI3IDUuMTA0ODU3LS4xMTk1NTIgNC42MTQ2OTUtLjExOTU1MkM0LjI2Nzk5NS0uMTE5NTUyIDQuMjQ0MDg1LS40MzAzODYgNC4yNDQwODUtLjY2OTQ4OUM0LjI0NDA4NS0uOTQ0NDU4IDQuMjc5OTUtMS4wNzU5NjUgNC4zODc1NDctMS41NDIyMTdDNC40NzEyMzMtMS44NDEwOTYgNC41MzEwMDktMi4xMDQxMSA0LjYyNjY1LTIuNDUwODA5QzUuMDY4OTkxLTQuMjQ0MDg1IDUuMTc2NTg4LTQuNjc0NDcxIDUuMTc2NTg4LTQuNzQ2MjAyQzUuMTc2NTg4LTQuOTEzNTc0IDUuMDQ1MDgxLTUuMDQ1MDgxIDQuODY1NzUzLTUuMDQ1MDgxQzQuNDgzMTg4LTUuMDQ1MDgxIDQuMzg3NTQ3LTQuNjI2NjUgNC4zNjM2MzYtNC40ODMxODhaIiBpZD0iZzEtOTciLz4mI3hhOzxwYXRoIGQ9Ik02LjAxMzQ1LTcuOTk4MDA3QzYuMDI1NDA1LTguMDQ1ODI4IDYuMDQ5MzE1LTguMTE3NTU5IDYuMDQ5MzE1LTguMTc3MzM1QzYuMDQ5MzE1LTguMjk2ODg3IDUuOTI5NzYzLTguMjk2ODg3IDUuOTA1ODUzLTguMjk2ODg3QzUuODkzODk4LTguMjk2ODg3IDUuMzA4MDk1LTguMjQ5MDY2IDUuMjQ4MzE5LTguMjM3MTExQzUuMDQ1MDgxLTguMjI1MTU2IDQuODY1NzUzLTguMjAxMjQ1IDQuNjUwNTYtOC4xODkyOUM0LjM1MTY4MS04LjE2NTM4IDQuMjY3OTk1LTguMTUzNDI1IDQuMjY3OTk1LTcuOTM4MjMyQzQuMjY3OTk1LTcuODE4NjggNC4zNjM2MzYtNy44MTg2OCA0LjUzMTAwOS03LjgxODY4QzUuMTE2ODEyLTcuODE4NjggNS4xMjg3NjctNy43MTEwODMgNS4xMjg3NjctNy41OTE1MzJDNS4xMjg3NjctNy41MTk4MDEgNS4xMDQ4NTctNy40MjQxNTkgNS4wOTI5MDItNy4zODgyOTRMNC4zNjM2MzYtNC40ODMxODhDNC4yMzIxMy00Ljc5NDAyMiAzLjkwOTM0LTUuMjcyMjI5IDMuMjg3NjcxLTUuMjcyMjI5QzEuOTM2NzM3LTUuMjcyMjI5IC40NzgyMDctMy41MjY3NzUgLjQ3ODIwNy0xLjc1NzQxQy40NzgyMDctLjU3Mzg0OCAxLjE3MTYwNiAuMTE5NTUyIDEuOTg0NTU4IC4xMTk1NTJDMi42NDIwOTIgLjExOTU1MiAzLjIwMzk4NS0uMzk0NTIxIDMuNTM4NzMtLjc4OTA0MUMzLjY1ODI4MS0uMDgzNjg2IDQuMjIwMTc0IC4xMTk1NTIgNC41Nzg4MjkgLjExOTU1MlM1LjIyNDQwOC0uMDk1NjQxIDUuNDM5NjAxLS41MjYwMjdDNS42MzA4ODQtLjkzMjUwMyA1Ljc5ODI1Ny0xLjY2MTc2OCA1Ljc5ODI1Ny0xLjcwOTU4OUM1Ljc5ODI1Ny0xLjc2OTM2NSA1Ljc1MDQzNi0xLjgxNzE4NiA1LjY3ODcwNS0xLjgxNzE4NkM1LjU3MTEwOC0xLjgxNzE4NiA1LjU1OTE1My0xLjc1NzQxIDUuNTExMzMzLTEuNTc4MDgyQzUuMzMyMDA1LS44NzI3MjcgNS4xMDQ4NTctLjExOTU1MiA0LjYxNDY5NS0uMTE5NTUyQzQuMjY3OTk1LS4xMTk1NTIgNC4yNDQwODUtLjQzMDM4NiA0LjI0NDA4NS0uNjY5NDg5QzQuMjQ0MDg1LS43MTczMSA0LjI0NDA4NS0uOTY4MzY5IDQuMzI3NzcxLTEuMzAzMTEzTDYuMDEzNDUtNy45OTgwMDdaTTMuNTk4NTA2LTEuNDIyNjY1QzMuNTM4NzMtMS4yMTk0MjcgMy41Mzg3My0xLjE5NTUxNyAzLjM3MTM1Ny0uOTY4MzY5QzMuMTA4MzQ0LS42MzM2MjQgMi41ODIzMTYtLjExOTU1MiAyLjAyMDQyMy0uMTE5NTUyQzEuNTMwMjYyLS4xMTk1NTIgMS4yNTUyOTMtLjU2MTg5MyAxLjI1NTI5My0xLjI2NzI0OEMxLjI1NTI5My0xLjkyNDc4MiAxLjYyNTkwMy0zLjI2Mzc2MSAxLjg1MzA1MS0zLjc2NTg3OEMyLjI1OTUyNy00LjYwMjc0IDIuODIxNDItNS4wMzMxMjYgMy4yODc2NzEtNS4wMzMxMjZDNC4wNzY3MTItNS4wMzMxMjYgNC4yMzIxMy00LjA1MjgwMiA0LjIzMjEzLTMuOTU3MTYxQzQuMjMyMTMtMy45NDUyMDUgNC4xOTYyNjQtMy43ODk3ODggNC4xODQzMDktMy43NjU4NzhMMy41OTg1MDYtMS40MjI2NjVaIiBpZD0iZzEtMTAwIi8+JiN4YTs8cGF0aCBkPSJNMi40NjI3NjUtMy41MDI4NjRDMi40ODY2NzUtMy41NzQ1OTUgMi43ODU1NTQtNC4xNzIzNTQgMy4yMjc4OTUtNC41NTQ5MTlDMy41Mzg3My00Ljg0MTg0MyAzLjk0NTIwNS01LjAzMzEyNiA0LjQxMTQ1Ny01LjAzMzEyNkM0Ljg4OTY2NC01LjAzMzEyNiA1LjA1NzAzNi00LjY3NDQ3MSA1LjA1NzAzNi00LjE5NjI2NEM1LjA1NzAzNi00LjEyNDUzMyA1LjA1NzAzNi0zLjg4NTQzIDQuOTEzNTc0LTMuMzIzNTM3TDQuNjE0Njk1LTIuMDkyMTU0QzQuNTE5MDU0LTEuNzMzNDk5IDQuMjkxOTA1LS44NDg4MTcgNC4yNjc5OTUtLjcxNzMxQzQuMjIwMTc0LS41Mzc5ODMgNC4xNDg0NDMtLjIyNzE0OCA0LjE0ODQ0My0uMTc5MzI4QzQuMTQ4NDQzLS4wMTE5NTUgNC4yNzk5NSAuMTE5NTUyIDQuNDU5Mjc4IC4xMTk1NTJDNC44MTc5MzMgLjExOTU1MiA0Ljg3NzcwOS0uMTU1NDE3IDQuOTg1MzA1LS41ODU4MDNMNS43MDI2MTUtMy40NDMwODhDNS43MjY1MjYtMy41Mzg3MyA2LjM0ODE5NC01LjAzMzEyNiA3LjY2MzI2My01LjAzMzEyNkM4LjE0MTQ2OS01LjAzMzEyNiA4LjMwODg0Mi00LjY3NDQ3MSA4LjMwODg0Mi00LjE5NjI2NEM4LjMwODg0Mi0zLjUyNjc3NSA3Ljg0MjU5LTIuMjIzNjYxIDcuNTc5NTc3LTEuNTA2MzUxQzcuNDcxOTgtMS4yMTk0MjcgNy40MTIyMDQtMS4wNjQwMSA3LjQxMjIwNC0uODQ4ODE3QzcuNDEyMjA0LS4zMTA4MzQgNy43ODI4MTQgLjExOTU1MiA4LjM1NjY2MyAuMTE5NTUyQzkuNDY4NDkzIC4xMTk1NTIgOS44ODY5MjQtMS42Mzc4NTggOS44ODY5MjQtMS43MDk1ODlDOS44ODY5MjQtMS43NjkzNjUgOS44MzkxMDMtMS44MTcxODYgOS43NjczNzItMS44MTcxODZDOS42NTk3NzYtMS44MTcxODYgOS42NDc4MjEtMS43ODEzMiA5LjU4ODA0NS0xLjU3ODA4MkM5LjMxMzA3Ni0uNjIxNjY5IDguODcwNzM1LS4xMTk1NTIgOC4zOTI1MjgtLjExOTU1MkM4LjI3Mjk3Ni0uMTE5NTUyIDguMDgxNjk0LS4xMzE1MDcgOC4wODE2OTQtLjUxNDA3MkM4LjA4MTY5NC0uODI0OTA3IDguMjI1MTU2LTEuMjA3NDcyIDguMjcyOTc2LTEuMzM4OTc5QzguNDg4MTY5LTEuOTEyODI3IDkuMDI2MTUyLTMuMzIzNTM3IDkuMDI2MTUyLTQuMDE2OTM2QzkuMDI2MTUyLTQuNzM0MjQ3IDguNjA3NzIxLTUuMjcyMjI5IDcuNjk5MTI4LTUuMjcyMjI5QzYuODk4MTMyLTUuMjcyMjI5IDYuMjUyNTUzLTQuODE3OTMzIDUuNzc0MzQ2LTQuMTEyNTc4QzUuNzM4NDgxLTQuNzU4MTU3IDUuMzQzOTYtNS4yNzIyMjkgNC40NDczMjMtNS4yNzIyMjlDMy4zODMzMTMtNS4yNzIyMjkgMi44MjE0Mi00LjUxOTA1NCAyLjYwNjIyNy00LjIyMDE3NEMyLjU3MDM2MS00LjkwMTYxOSAyLjA4MDE5OS01LjI3MjIyOSAxLjU1NDE3Mi01LjI3MjIyOUMxLjIwNzQ3Mi01LjI3MjIyOSAuOTMyNTAzLTUuMTA0ODU3IC43MDUzNTUtNC42NTA1NkMuNDkwMTYyLTQuMjIwMTc0IC4zMjI3OS0zLjQ5MDkwOSAuMzIyNzktMy40NDMwODhTLjM3MDYxLTMuMzM1NDkyIC40NTQyOTYtMy4zMzU0OTJDLjU0OTkzOC0zLjMzNTQ5MiAuNTYxODkzLTMuMzQ3NDQ3IC42MzM2MjQtMy42MjI0MTZDLjgxMjk1MS00LjMyNzc3MSAxLjA0MDEtNS4wMzMxMjYgMS41MTgzMDYtNS4wMzMxMjZDMS43OTMyNzUtNS4wMzMxMjYgMS44ODg5MTctNC44NDE4NDMgMS44ODg5MTctNC40ODMxODhDMS44ODg5MTctNC4yMjAxNzQgMS43NjkzNjUtMy43NTM5MjMgMS42ODU2NzktMy4zODMzMTNMMS4zNTA5MzQtMi4wOTIxNTRDMS4zMDMxMTMtMS44NjUwMDYgMS4xNzE2MDYtMS4zMjcwMjQgMS4xMTE4MzEtMS4xMTE4MzFDMS4wMjgxNDQtLjgwMDk5NiAuODk2NjM4LS4yMzkxMDMgLjg5NjYzOC0uMTc5MzI4Qy44OTY2MzgtLjAxMTk1NSAxLjAyODE0NCAuMTE5NTUyIDEuMjA3NDcyIC4xMTk1NTJDMS4zNTA5MzQgLjExOTU1MiAxLjUxODMwNiAuMDQ3ODIxIDEuNjEzOTQ4LS4xMzE1MDdDMS42Mzc4NTgtLjE5MTI4MyAxLjc0NTQ1NS0uNjA5NzE0IDEuODA1MjMtLjg0ODgxN0wyLjA2ODI0NC0xLjkyNDc4MkwyLjQ2Mjc2NS0zLjUwMjg2NFoiIGlkPSJnMS0xMDkiLz4mI3hhOzxwYXRoIGQ9Ik0yLjQ2Mjc2NS0zLjUwMjg2NEMyLjQ4NjY3NS0zLjU3NDU5NSAyLjc4NTU1NC00LjE3MjM1NCAzLjIyNzg5NS00LjU1NDkxOUMzLjUzODczLTQuODQxODQzIDMuOTQ1MjA1LTUuMDMzMTI2IDQuNDExNDU3LTUuMDMzMTI2QzQuODg5NjY0LTUuMDMzMTI2IDUuMDU3MDM2LTQuNjc0NDcxIDUuMDU3MDM2LTQuMTk2MjY0QzUuMDU3MDM2LTMuNTE0ODE5IDQuNTY2ODc0LTIuMTUxOTMgNC4zMjc3NzEtMS41MDYzNTFDNC4yMjAxNzQtMS4yMTk0MjcgNC4xNjAzOTktMS4wNjQwMSA0LjE2MDM5OS0uODQ4ODE3QzQuMTYwMzk5LS4zMTA4MzQgNC41MzEwMDkgLjExOTU1MiA1LjEwNDg1NyAuMTE5NTUyQzYuMjE2Njg3IC4xMTk1NTIgNi42MzUxMTgtMS42Mzc4NTggNi42MzUxMTgtMS43MDk1ODlDNi42MzUxMTgtMS43NjkzNjUgNi41ODcyOTgtMS44MTcxODYgNi41MTU1NjctMS44MTcxODZDNi40MDc5Ny0xLjgxNzE4NiA2LjM5NjAxNS0xLjc4MTMyIDYuMzM2MjM5LTEuNTc4MDgyQzYuMDYxMjctLjU5Nzc1OCA1LjYwNjk3NC0uMTE5NTUyIDUuMTQwNzIyLS4xMTk1NTJDNS4wMjExNzEtLjExOTU1MiA0LjgyOTg4OC0uMTMxNTA3IDQuODI5ODg4LS41MTQwNzJDNC44Mjk4ODgtLjgxMjk1MSA0Ljk2MTM5NS0xLjE3MTYwNiA1LjAzMzEyNi0xLjMzODk3OUM1LjI3MjIyOS0xLjk5NjUxMyA1Ljc3NDM0Ni0zLjMzNTQ5MiA1Ljc3NDM0Ni00LjAxNjkzNkM1Ljc3NDM0Ni00LjczNDI0NyA1LjM1NTkxNS01LjI3MjIyOSA0LjQ0NzMyMy01LjI3MjIyOUMzLjM4MzMxMy01LjI3MjIyOSAyLjgyMTQyLTQuNTE5MDU0IDIuNjA2MjI3LTQuMjIwMTc0QzIuNTcwMzYxLTQuOTAxNjE5IDIuMDgwMTk5LTUuMjcyMjI5IDEuNTU0MTcyLTUuMjcyMjI5QzEuMTcxNjA2LTUuMjcyMjI5IC45MDg1OTMtNS4wNDUwODEgLjcwNTM1NS00LjYzODYwNUMuNDkwMTYyLTQuMjA4MjE5IC4zMjI3OS0zLjQ5MDkwOSAuMzIyNzktMy40NDMwODhTLjM3MDYxLTMuMzM1NDkyIC40NTQyOTYtMy4zMzU0OTJDLjU0OTkzOC0zLjMzNTQ5MiAuNTYxODkzLTMuMzQ3NDQ3IC42MzM2MjQtMy42MjI0MTZDLjgyNDkwNy00LjM1MTY4MSAxLjA0MDEtNS4wMzMxMjYgMS41MTgzMDYtNS4wMzMxMjZDMS43OTMyNzUtNS4wMzMxMjYgMS44ODg5MTctNC44NDE4NDMgMS44ODg5MTctNC40ODMxODhDMS44ODg5MTctNC4yMjAxNzQgMS43NjkzNjUtMy43NTM5MjMgMS42ODU2NzktMy4zODMzMTNMMS4zNTA5MzQtMi4wOTIxNTRDMS4zMDMxMTMtMS44NjUwMDYgMS4xNzE2MDYtMS4zMjcwMjQgMS4xMTE4MzEtMS4xMTE4MzFDMS4wMjgxNDQtLjgwMDk5NiAuODk2NjM4LS4yMzkxMDMgLjg5NjYzOC0uMTc5MzI4Qy44OTY2MzgtLjAxMTk1NSAxLjAyODE0NCAuMTE5NTUyIDEuMjA3NDcyIC4xMTk1NTJDMS4zNTA5MzQgLjExOTU1MiAxLjUxODMwNiAuMDQ3ODIxIDEuNjEzOTQ4LS4xMzE1MDdDMS42Mzc4NTgtLjE5MTI4MyAxLjc0NTQ1NS0uNjA5NzE0IDEuODA1MjMtLjg0ODgxN0wyLjA2ODI0NC0xLjkyNDc4MkwyLjQ2Mjc2NS0zLjUwMjg2NFoiIGlkPSJnMS0xMTAiLz4mI3hhOzxwYXRoIGQ9Ik00LjA3NjcxMi0uNjkzNEM0LjIzMjEzLS4wMjM5MSA0LjgwNTk3OCAuMTE5NTUyIDUuMDkyOTAyIC4xMTk1NTJDNS40NzU0NjcgLjExOTU1MiA1Ljc2MjM5MS0uMTMxNTA3IDUuOTUzNjc0LS41Mzc5ODNDNi4xNTY5MTItLjk2ODM2OSA2LjMxMjMyOS0xLjY3MzcyNCA2LjMxMjMyOS0xLjcwOTU4OUM2LjMxMjMyOS0xLjc2OTM2NSA2LjI2NDUwOC0xLjgxNzE4NiA2LjE5Mjc3Ny0xLjgxNzE4NkM2LjA4NTE4MS0xLjgxNzE4NiA2LjA3MzIyNS0xLjc1NzQxIDYuMDI1NDA1LTEuNTc4MDgyQzUuODEwMjEyLS43NTMxNzYgNS41OTUwMTktLjExOTU1MiA1LjExNjgxMi0uMTE5NTUyQzQuNzU4MTU3LS4xMTk1NTIgNC43NTgxNTctLjUxNDA3MiA0Ljc1ODE1Ny0uNjY5NDg5QzQuNzU4MTU3LS45NDQ0NTggNC43OTQwMjItMS4wNjQwMSA0LjkxMzU3NC0xLjU2NjEyN0M0Ljk5NzI2LTEuODg4OTE3IDUuMDgwOTQ2LTIuMjExNzA2IDUuMTUyNjc3LTIuNTQ2NDUxTDUuNjQyODM5LTQuNDk1MTQzQzUuNzI2NTI2LTQuNzk0MDIyIDUuNzI2NTI2LTQuODE3OTMzIDUuNzI2NTI2LTQuODUzNzk4QzUuNzI2NTI2LTUuMDMzMTI2IDUuNTgzMDY0LTUuMTUyNjc3IDUuNDAzNzM2LTUuMTUyNjc3QzUuMDU3MDM2LTUuMTUyNjc3IDQuOTczMzUtNC44NTM3OTggNC45MDE2MTktNC41NTQ5MTlDNC43ODIwNjctNC4wODg2NjcgNC4xMzY0ODgtMS41MTgzMDYgNC4wNTI4MDItMS4wOTk4NzVDNC4wNDA4NDctMS4wOTk4NzUgMy41NzQ1OTUtLjExOTU1MiAyLjcwMTg2OC0uMTE5NTUyQzIuMDgwMTk5LS4xMTk1NTIgMS45NjA2NDgtLjY1NzUzNCAxLjk2MDY0OC0xLjA5OTg3NUMxLjk2MDY0OC0xLjc4MTMyIDIuMjk1MzkyLTIuNzM3NzMzIDIuNjA2MjI3LTMuNTM4NzNDMi43NDk2ODktMy45MjEyOTUgMi44MDk0NjUtNC4wNzY3MTIgMi44MDk0NjUtNC4zMTU4MTZDMi44MDk0NjUtNC44Mjk4ODggMi40Mzg4NTQtNS4yNzIyMjkgMS44NjUwMDYtNS4yNzIyMjlDLjc2NTEzMS01LjI3MjIyOSAuMzIyNzktMy41Mzg3MyAuMzIyNzktMy40NDMwODhDLjMyMjc5LTMuMzk1MjY4IC4zNzA2MS0zLjMzNTQ5MiAuNDU0Mjk2LTMuMzM1NDkyQy41NjE4OTMtMy4zMzU0OTIgLjU3Mzg0OC0zLjM4MzMxMyAuNjIxNjY5LTMuNTUwNjg1Qy45MDg1OTMtNC41Nzg4MjkgMS4zNzQ4NDQtNS4wMzMxMjYgMS44MjkxNDEtNS4wMzMxMjZDMS45NDg2OTItNS4wMzMxMjYgMi4xMzk5NzUtNS4wMjExNzEgMi4xMzk5NzUtNC42Mzg2MDVDMi4xMzk5NzUtNC4zMjc3NzEgMi4wMDg0NjgtMy45ODEwNzEgMS44MjkxNDEtMy41MjY3NzVDMS4zMDMxMTMtMi4xMDQxMSAxLjI0MzMzNy0xLjY0OTgxMyAxLjI0MzMzNy0xLjI5MTE1OEMxLjI0MzMzNy0uMDcxNzMxIDIuMTYzODg1IC4xMTk1NTIgMi42NTQwNDcgLjExOTU1MkMzLjQxOTE3OCAuMTE5NTUyIDMuODM3NjA5LS40MDY0NzYgNC4wNzY3MTItLjY5MzRaIiBpZD0iZzEtMTE3Ii8+JiN4YTs8L2RlZnM+JiN4YTs8ZyB0cmFuc2Zvcm09Im1hdHJpeCgxLjEzIDAgMCAxLjEzIC02My45ODYwNDMgLTYwLjg3ODM3OSkiIGlkPSJwYWdlMSI+JiN4YTs8dXNlIHhsaW5rOmhyZWY9IiNnMS04MyIgeT0iNjcuMDMzMzg0IiB4PSI1Ni40MTMyNjciLz4mI3hhOzx1c2UgeGxpbms6aHJlZj0iI2cxLTExNyIgeT0iNjcuMDMzMzg0IiB4PSI2NC4zMDg1OSIvPiYjeGE7PHVzZSB4bGluazpocmVmPSIjZzEtMTA5IiB5PSI2Ny4wMzMzODQiIHg9IjcwLjk3MTAzIi8+JiN4YTs8dXNlIHhsaW5rOmhyZWY9IiNnMi02MSIgeT0iNjcuMDMzMzg0IiB4PSI4NC41MzExMjYiLz4mI3hhOzx1c2UgeGxpbms6aHJlZj0iI2cxLTExMCIgeT0iNTguOTQ1NjI2IiB4PSI5OC4xNTIxMjEiLz4mI3hhOzxyZWN0IHdpZHRoPSI2Ljk4NzYwNiIgaGVpZ2h0PSIuNDc4MTg3IiB5PSI2My44MDU0OTkiIHg9Ijk4LjE1MjEyMSIvPiYjeGE7PHVzZSB4bGluazpocmVmPSIjZzItNTAiIHk9Ijc1LjIzNDA0NyIgeD0iOTguNzE5NDM2Ii8+JiN4YTs8dXNlIHhsaW5rOmhyZWY9IiNnMi00MCIgeT0iNjcuMDMzMzg0IiB4PSIxMDguMzI3NzM4Ii8+JiN4YTs8dXNlIHhsaW5rOmhyZWY9IiNnMi01MCIgeT0iNjcuMDMzMzg0IiB4PSIxMTIuODgwMDY0Ii8+JiN4YTs8dXNlIHhsaW5rOmhyZWY9IiNnMS05NyIgeT0iNjcuMDMzMzg0IiB4PSIxMTguNzMzMDU0Ii8+JiN4YTs8dXNlIHhsaW5rOmhyZWY9IiNnMi00MyIgeT0iNjcuMDMzMzg0IiB4PSIxMjcuNTM0NjYyIi8+JiN4YTs8dXNlIHhsaW5rOmhyZWY9IiNnMi00MCIgeT0iNjcuMDMzMzg0IiB4PSIxMzkuMjk1OTc3Ii8+JiN4YTs8dXNlIHhsaW5rOmhyZWY9IiNnMS0xMTAiIHk9IjY3LjAzMzM4NCIgeD0iMTQzLjg0ODMwMiIvPiYjeGE7PHVzZSB4bGluazpocmVmPSIjZzAtMCIgeT0iNjcuMDMzMzg0IiB4PSIxNTMuNDkyNTcxIi8+JiN4YTs8dXNlIHhsaW5rOmhyZWY9IiNnMi00OSIgeT0iNjcuMDMzMzg0IiB4PSIxNjUuNDQ3NzMyIi8+JiN4YTs8dXNlIHhsaW5rOmhyZWY9IiNnMi00MSIgeT0iNjcuMDMzMzg0IiB4PSIxNzEuMzAwNzIyIi8+JiN4YTs8dXNlIHhsaW5rOmhyZWY9IiNnMS0xMDAiIHk9IjY3LjAzMzM4NCIgeD0iMTc1Ljg1MzA0OCIvPiYjeGE7PHVzZSB4bGluazpocmVmPSIjZzItNDEiIHk9IjY3LjAzMzM4NCIgeD0iMTgxLjkzNTc0MSIvPiYjeGE7PC9nPiYjeGE7PC9zdmc+;" parent="HmxGC194nbF6Ze_ij5kS-7" vertex="1">
          <mxGeometry x="4" y="30" width="225.09" height="37" as="geometry" />
        </mxCell>
        <mxCell id="HmxGC194nbF6Ze_ij5kS-10" value="" style="group" parent="HmxGC194nbF6Ze_ij5kS-6" vertex="1" connectable="0">
          <mxGeometry x="16" y="114" width="173" height="55.00122711181643" as="geometry" />
        </mxCell>
        <mxCell id="HmxGC194nbF6Ze_ij5kS-11" value="Sum of first n-natural number" style="text;html=1;align=left;verticalAlign=middle;resizable=0;points=[];autosize=1;strokeColor=none;fillColor=none;" parent="HmxGC194nbF6Ze_ij5kS-10" vertex="1">
          <mxGeometry width="173" height="26" as="geometry" />
        </mxCell>
        <mxCell id="HmxGC194nbF6Ze_ij5kS-12" value="" style="shape=image;verticalLabelPosition=bottom;labelBackgroundColor=default;verticalAlign=top;aspect=fixed;imageAspect=0;image=data:image/svg+xml,PHN2ZyB4bWxuczp4bGluaz0iaHR0cDovL3d3dy53My5vcmcvMTk5OS94bGluayIgeG1sbnM9Imh0dHA6Ly93d3cudzMub3JnLzIwMDAvc3ZnIiB2aWV3Qm94PSItLjIzOTA1MSAtLjIyNzk3IDEwNi40Mzk2IDI4LjUzNzkyMSIgaGVpZ2h0PSIyOC41Mzc5MjFwdCIgd2lkdGg9IjEwNi40Mzk2cHQiIHZlcnNpb249IjEuMSI+JiN4YTs8ZGVmcz4mI3hhOzxwYXRoIGQ9Ik0zLjg4NTQzIDIuOTA1MTA2QzMuODg1NDMgMi44NjkyNCAzLjg4NTQzIDIuODQ1MzMgMy42ODIxOTIgMi42NDIwOTJDMi40ODY2NzUgMS40MzQ2MiAxLjgxNzE4Ni0uNTM3OTgzIDEuODE3MTg2LTIuOTc2ODM3QzEuODE3MTg2LTUuMjk2MTM5IDIuMzc5MDc4LTcuMjkyNjUzIDMuNzY1ODc4LTguNzAzMzYyQzMuODg1NDMtOC44MTA5NTkgMy44ODU0My04LjgzNDg2OSAzLjg4NTQzLTguODcwNzM1QzMuODg1NDMtOC45NDI0NjYgMy44MjU2NTQtOC45NjYzNzYgMy43Nzc4MzMtOC45NjYzNzZDMy42MjI0MTYtOC45NjYzNzYgMi42NDIwOTItOC4xMDU2MDQgMi4wNTYyODktNi45MzM5OThDMS40NDY1NzUtNS43MjY1MjYgMS4xNzE2MDYtNC40NDczMjMgMS4xNzE2MDYtMi45NzY4MzdDMS4xNzE2MDYtMS45MTI4MjcgMS4zMzg5NzktLjQ5MDE2MiAxLjk2MDY0OCAuNzg5MDQxQzIuNjY2MDAyIDIuMjIzNjYxIDMuNjQ2MzI2IDMuMDAwNzQ3IDMuNzc3ODMzIDMuMDAwNzQ3QzMuODI1NjU0IDMuMDAwNzQ3IDMuODg1NDMgMi45NzY4MzcgMy44ODU0MyAyLjkwNTEwNloiIGlkPSJnMS00MCIvPiYjeGE7PHBhdGggZD0iTTMuMzcxMzU3LTIuOTc2ODM3QzMuMzcxMzU3LTMuODg1NDMgMy4yNTE4MDYtNS4zNjc4NyAyLjU4MjMxNi02Ljc1NDY3QzEuODc2OTYxLTguMTg5MjkgLjg5NjYzOC04Ljk2NjM3NiAuNzY1MTMxLTguOTY2Mzc2Qy43MTczMS04Ljk2NjM3NiAuNjU3NTM0LTguOTQyNDY2IC42NTc1MzQtOC44NzA3MzVDLjY1NzUzNC04LjgzNDg2OSAuNjU3NTM0LTguODEwOTU5IC44NjA3NzItOC42MDc3MjFDMi4wNTYyODktNy40MDAyNDkgMi43MjU3NzgtNS40Mjc2NDYgMi43MjU3NzgtMi45ODg3OTJDMi43MjU3NzgtLjY2OTQ4OSAyLjE2Mzg4NSAxLjMyNzAyNCAuNzc3MDg2IDIuNzM3NzMzQy42NTc1MzQgMi44NDUzMyAuNjU3NTM0IDIuODY5MjQgLjY1NzUzNCAyLjkwNTEwNkMuNjU3NTM0IDIuOTc2ODM3IC43MTczMSAzLjAwMDc0NyAuNzY1MTMxIDMuMDAwNzQ3Qy45MjA1NDggMy4wMDA3NDcgMS45MDA4NzIgMi4xMzk5NzUgMi40ODY2NzUgLjk2ODM2OUMzLjA5NjM4OS0uMjUxMDU5IDMuMzcxMzU3LTEuNTQyMjE3IDMuMzcxMzU3LTIuOTc2ODM3WiIgaWQ9ImcxLTQxIi8+JiN4YTs8cGF0aCBkPSJNNC43NzAxMTItMi43NjE2NDRIOC4wNjk3MzhDOC4yMzcxMTEtMi43NjE2NDQgOC40NTIzMDQtMi43NjE2NDQgOC40NTIzMDQtMi45NzY4MzdDOC40NTIzMDQtMy4yMDM5ODUgOC4yNDkwNjYtMy4yMDM5ODUgOC4wNjk3MzgtMy4yMDM5ODVINC43NzAxMTJWLTYuNTAzNjExQzQuNzcwMTEyLTYuNjcwOTg0IDQuNzcwMTEyLTYuODg2MTc3IDQuNTU0OTE5LTYuODg2MTc3QzQuMzI3NzcxLTYuODg2MTc3IDQuMzI3NzcxLTYuNjgyOTM5IDQuMzI3NzcxLTYuNTAzNjExVi0zLjIwMzk4NUgxLjAyODE0NEMuODYwNzcyLTMuMjAzOTg1IC42NDU1NzktMy4yMDM5ODUgLjY0NTU3OS0yLjk4ODc5MkMuNjQ1NTc5LTIuNzYxNjQ0IC44NDg4MTctMi43NjE2NDQgMS4wMjgxNDQtMi43NjE2NDRINC4zMjc3NzFWLjUzNzk4M0M0LjMyNzc3MSAuNzA1MzU1IDQuMzI3NzcxIC45MjA1NDggNC41NDI5NjQgLjkyMDU0OEM0Ljc3MDExMiAuOTIwNTQ4IDQuNzcwMTEyIC43MTczMSA0Ljc3MDExMiAuNTM3OTgzVi0yLjc2MTY0NFoiIGlkPSJnMS00MyIvPiYjeGE7PHBhdGggZD0iTTMuNDQzMDg4LTcuNjYzMjYzQzMuNDQzMDg4LTcuOTM4MjMyIDMuNDQzMDg4LTcuOTUwMTg3IDMuMjAzOTg1LTcuOTUwMTg3QzIuOTE3MDYxLTcuNjI3Mzk3IDIuMzE5MzAzLTcuMTg1MDU2IDEuMDg3OTItNy4xODUwNTZWLTYuODM4MzU2QzEuMzYyODg5LTYuODM4MzU2IDEuOTYwNjQ4LTYuODM4MzU2IDIuNjE4MTgyLTcuMTQ5MTkxVi0uOTIwNTQ4QzIuNjE4MTgyLS40OTAxNjIgMi41ODIzMTYtLjM0NjcgMS41MzAyNjItLjM0NjdIMS4xNTk2NTFWMEMxLjQ4MjQ0MS0uMDIzOTEgMi42NDIwOTItLjAyMzkxIDMuMDM2NjEzLS4wMjM5MVM0LjU3ODgyOS0uMDIzOTEgNC45MDE2MTkgMFYtLjM0NjdINC41MzEwMDlDMy40Nzg5NTQtLjM0NjcgMy40NDMwODgtLjQ5MDE2MiAzLjQ0MzA4OC0uOTIwNTQ4Vi03LjY2MzI2M1oiIGlkPSJnMS00OSIvPiYjeGE7PHBhdGggZD0iTTUuMjYwMjc0LTIuMDA4NDY4SDQuOTk3MjZDNC45NjEzOTUtMS44MDUyMyA0Ljg2NTc1My0xLjE0NzY5NiA0Ljc0NjIwMi0uOTU2NDEzQzQuNjYyNTE2LS44NDg4MTcgMy45ODEwNzEtLjg0ODgxNyAzLjYyMjQxNi0uODQ4ODE3SDEuNDEwNzFDMS43MzM0OTktMS4xMjM3ODYgMi40NjI3NjUtMS44ODg5MTcgMi43NzM1OTktMi4xNzU4NDFDNC41OTA3ODUtMy44NDk1NjQgNS4yNjAyNzQtNC40NzEyMzMgNS4yNjAyNzQtNS42NTQ3OTVDNS4yNjAyNzQtNy4wMjk2MzkgNC4xNzIzNTQtNy45NTAxODcgMi43ODU1NTQtNy45NTAxODdTLjU4NTgwMy02Ljc2NjYyNSAuNTg1ODAzLTUuNzM4NDgxQy41ODU4MDMtNS4xMjg3NjcgMS4xMTE4MzEtNS4xMjg3NjcgMS4xNDc2OTYtNS4xMjg3NjdDMS4zOTg3NTUtNS4xMjg3NjcgMS43MDk1ODktNS4zMDgwOTUgMS43MDk1ODktNS42OTA2NkMxLjcwOTU4OS02LjAyNTQwNSAxLjQ4MjQ0MS02LjI1MjU1MyAxLjE0NzY5Ni02LjI1MjU1M0MxLjA0MDEtNi4yNTI1NTMgMS4wMTYxODktNi4yNTI1NTMgLjk4MDMyNC02LjI0MDU5OEMxLjIwNzQ3Mi03LjA1MzU0OSAxLjg1MzA1MS03LjYwMzQ4NyAyLjYzMDEzNy03LjYwMzQ4N0MzLjY0NjMyNi03LjYwMzQ4NyA0LjI2Nzk5NS02Ljc1NDY3IDQuMjY3OTk1LTUuNjU0Nzk1QzQuMjY3OTk1LTQuNjM4NjA1IDMuNjgyMTkyLTMuNzUzOTIzIDMuMDAwNzQ3LTIuOTg4NzkyTC41ODU4MDMtLjI4NjkyNFYwSDQuOTQ5NDRMNS4yNjAyNzQtMi4wMDg0NjhaIiBpZD0iZzEtNTAiLz4mI3hhOzxwYXRoIGQ9Ik04LjA2OTczOC0zLjg3MzQ3NEM4LjIzNzExMS0zLjg3MzQ3NCA4LjQ1MjMwNC0zLjg3MzQ3NCA4LjQ1MjMwNC00LjA4ODY2N0M4LjQ1MjMwNC00LjMxNTgxNiA4LjI0OTA2Ni00LjMxNTgxNiA4LjA2OTczOC00LjMxNTgxNkgxLjAyODE0NEMuODYwNzcyLTQuMzE1ODE2IC42NDU1NzktNC4zMTU4MTYgLjY0NTU3OS00LjEwMDYyM0MuNjQ1NTc5LTMuODczNDc0IC44NDg4MTctMy44NzM0NzQgMS4wMjgxNDQtMy44NzM0NzRIOC4wNjk3MzhaTTguMDY5NzM4LTEuNjQ5ODEzQzguMjM3MTExLTEuNjQ5ODEzIDguNDUyMzA0LTEuNjQ5ODEzIDguNDUyMzA0LTEuODY1MDA2QzguNDUyMzA0LTIuMDkyMTU0IDguMjQ5MDY2LTIuMDkyMTU0IDguMDY5NzM4LTIuMDkyMTU0SDEuMDI4MTQ0Qy44NjA3NzItMi4wOTIxNTQgLjY0NTU3OS0yLjA5MjE1NCAuNjQ1NTc5LTEuODc2OTYxQy42NDU1NzktMS42NDk4MTMgLjg0ODgxNy0xLjY0OTgxMyAxLjAyODE0NC0xLjY0OTgxM0g4LjA2OTczOFoiIGlkPSJnMS02MSIvPiYjeGE7PHBhdGggZD0iTTcuNTkxNTMyLTguMzA4ODQyQzcuNTkxNTMyLTguNDE2NDM4IDcuNTA3ODQ2LTguNDE2NDM4IDcuNDgzOTM1LTguNDE2NDM4QzcuNDM2MTE1LTguNDE2NDM4IDcuNDI0MTU5LTguNDA0NDgzIDcuMjgwNjk3LTguMjI1MTU2QzcuMjA4OTY2LTguMTQxNDY5IDYuNzE4ODA0LTcuNTE5ODAxIDYuNzA2ODQ5LTcuNTA3ODQ2QzYuMzEyMzI5LTguMjg0OTMyIDUuNTIzMjg4LTguNDE2NDM4IDUuMDIxMTcxLTguNDE2NDM4QzMuNTAyODY0LTguNDE2NDM4IDIuMTI4MDItNy4wMjk2MzkgMi4xMjgwMi01LjY3ODcwNUMyLjEyODAyLTQuNzgyMDY3IDIuNjY2MDAyLTQuMjU2MDQgMy4yNTE4MDYtNC4wNTI4MDJDMy4zODMzMTMtNC4wMDQ5ODEgNC4wODg2NjctMy44MTM2OTkgNC40NDczMjMtMy43MzAwMTJDNS4wNTcwMzYtMy41NjI2NCA1LjIxMjQ1My0zLjUxNDgxOSA1LjQ2MzUxMi0zLjI1MTgwNkM1LjUxMTMzMy0zLjE5MjAzIDUuNzUwNDM2LTIuOTE3MDYxIDUuNzUwNDM2LTIuMzU1MTY4QzUuNzUwNDM2LTEuMjQzMzM3IDQuNzIyMjkxLS4wOTU2NDEgMy41MjY3NzUtLjA5NTY0MUMyLjU0NjQ1MS0uMDk1NjQxIDEuNDU4NTMxLS41MTQwNzIgMS40NTg1MzEtMS44NTMwNTFDMS40NTg1MzEtMi4wODAxOTkgMS41MDYzNTEtMi4zNjcxMjMgMS41NDIyMTctMi40ODY2NzVDMS41NDIyMTctMi41MjI1NCAxLjU1NDE3Mi0yLjU4MjMxNiAxLjU1NDE3Mi0yLjYwNjIyN0MxLjU1NDE3Mi0yLjY1NDA0NyAxLjUzMDI2Mi0yLjcxMzgyMyAxLjQzNDYyLTIuNzEzODIzQzEuMzI3MDI0LTIuNzEzODIzIDEuMzE1MDY4LTIuNjg5OTEzIDEuMjY3MjQ4LTIuNDg2Njc1TC42NTc1MzQtLjAzNTg2NkMuNjU3NTM0LS4wMjM5MSAuNjA5NzE0IC4xMzE1MDcgLjYwOTcxNCAuMTQzNDYyQy42MDk3MTQgLjI1MTA1OSAuNzA1MzU1IC4yNTEwNTkgLjcyOTI2NSAuMjUxMDU5Qy43NzcwODYgLjI1MTA1OSAuNzg5MDQxIC4yMzkxMDMgLjkzMjUwMyAuMDU5Nzc2TDEuNDgyNDQxLS42NTc1MzRDMS43NjkzNjUtLjIyNzE0OCAyLjM5MTAzNCAuMjUxMDU5IDMuNTAyODY0IC4yNTEwNTlDNS4wNDUwODEgLjI1MTA1OSA2LjQ1NTc5MS0xLjI0MzMzNyA2LjQ1NTc5MS0yLjczNzczM0M2LjQ1NTc5MS0zLjIzOTg1MSA2LjMzNjIzOS0zLjY4MjE5MiA1Ljg4MTk0My00LjEyNDUzM0M1LjYzMDg4NC00LjM3NTU5MiA1LjQxNTY5MS00LjQzNTM2NyA0LjMxNTgxNi00LjcyMjI5MUMzLjUxNDgxOS00LjkzNzQ4NCAzLjQwNzIyMy00Ljk3MzM1IDMuMTkyMDMtNS4xNjQ2MzNDMi45ODg3OTItNS4zNjc4NyAyLjgzMzM3NS01LjY1NDc5NSAyLjgzMzM3NS02LjA2MTI3QzIuODMzMzc1LTcuMDY1NTA0IDMuODQ5NTY0LTguMDkzNjQ5IDQuOTg1MzA1LTguMDkzNjQ5QzYuMTU2OTEyLTguMDkzNjQ5IDYuNzA2ODQ5LTcuMzc2MzM5IDYuNzA2ODQ5LTYuMjQwNTk4QzYuNzA2ODQ5LTUuOTI5NzYzIDYuNjQ3MDczLTUuNjA2OTc0IDYuNjQ3MDczLTUuNTU5MTUzQzYuNjQ3MDczLTUuNDUxNTU3IDYuNzQyNzE1LTUuNDUxNTU3IDYuNzc4NTgtNS40NTE1NTdDNi44ODYxNzctNS40NTE1NTcgNi44OTgxMzItNS40ODc0MjIgNi45NDU5NTMtNS42Nzg3MDVMNy41OTE1MzItOC4zMDg4NDJaIiBpZD0iZzAtODMiLz4mI3hhOzxwYXRoIGQ9Ik0yLjQ2Mjc2NS0zLjUwMjg2NEMyLjQ4NjY3NS0zLjU3NDU5NSAyLjc4NTU1NC00LjE3MjM1NCAzLjIyNzg5NS00LjU1NDkxOUMzLjUzODczLTQuODQxODQzIDMuOTQ1MjA1LTUuMDMzMTI2IDQuNDExNDU3LTUuMDMzMTI2QzQuODg5NjY0LTUuMDMzMTI2IDUuMDU3MDM2LTQuNjc0NDcxIDUuMDU3MDM2LTQuMTk2MjY0QzUuMDU3MDM2LTQuMTI0NTMzIDUuMDU3MDM2LTMuODg1NDMgNC45MTM1NzQtMy4zMjM1MzdMNC42MTQ2OTUtMi4wOTIxNTRDNC41MTkwNTQtMS43MzM0OTkgNC4yOTE5MDUtLjg0ODgxNyA0LjI2Nzk5NS0uNzE3MzFDNC4yMjAxNzQtLjUzNzk4MyA0LjE0ODQ0My0uMjI3MTQ4IDQuMTQ4NDQzLS4xNzkzMjhDNC4xNDg0NDMtLjAxMTk1NSA0LjI3OTk1IC4xMTk1NTIgNC40NTkyNzggLjExOTU1MkM0LjgxNzkzMyAuMTE5NTUyIDQuODc3NzA5LS4xNTU0MTcgNC45ODUzMDUtLjU4NTgwM0w1LjcwMjYxNS0zLjQ0MzA4OEM1LjcyNjUyNi0zLjUzODczIDYuMzQ4MTk0LTUuMDMzMTI2IDcuNjYzMjYzLTUuMDMzMTI2QzguMTQxNDY5LTUuMDMzMTI2IDguMzA4ODQyLTQuNjc0NDcxIDguMzA4ODQyLTQuMTk2MjY0QzguMzA4ODQyLTMuNTI2Nzc1IDcuODQyNTktMi4yMjM2NjEgNy41Nzk1NzctMS41MDYzNTFDNy40NzE5OC0xLjIxOTQyNyA3LjQxMjIwNC0xLjA2NDAxIDcuNDEyMjA0LS44NDg4MTdDNy40MTIyMDQtLjMxMDgzNCA3Ljc4MjgxNCAuMTE5NTUyIDguMzU2NjYzIC4xMTk1NTJDOS40Njg0OTMgLjExOTU1MiA5Ljg4NjkyNC0xLjYzNzg1OCA5Ljg4NjkyNC0xLjcwOTU4OUM5Ljg4NjkyNC0xLjc2OTM2NSA5LjgzOTEwMy0xLjgxNzE4NiA5Ljc2NzM3Mi0xLjgxNzE4NkM5LjY1OTc3Ni0xLjgxNzE4NiA5LjY0NzgyMS0xLjc4MTMyIDkuNTg4MDQ1LTEuNTc4MDgyQzkuMzEzMDc2LS42MjE2NjkgOC44NzA3MzUtLjExOTU1MiA4LjM5MjUyOC0uMTE5NTUyQzguMjcyOTc2LS4xMTk1NTIgOC4wODE2OTQtLjEzMTUwNyA4LjA4MTY5NC0uNTE0MDcyQzguMDgxNjk0LS44MjQ5MDcgOC4yMjUxNTYtMS4yMDc0NzIgOC4yNzI5NzYtMS4zMzg5NzlDOC40ODgxNjktMS45MTI4MjcgOS4wMjYxNTItMy4zMjM1MzcgOS4wMjYxNTItNC4wMTY5MzZDOS4wMjYxNTItNC43MzQyNDcgOC42MDc3MjEtNS4yNzIyMjkgNy42OTkxMjgtNS4yNzIyMjlDNi44OTgxMzItNS4yNzIyMjkgNi4yNTI1NTMtNC44MTc5MzMgNS43NzQzNDYtNC4xMTI1NzhDNS43Mzg0ODEtNC43NTgxNTcgNS4zNDM5Ni01LjI3MjIyOSA0LjQ0NzMyMy01LjI3MjIyOUMzLjM4MzMxMy01LjI3MjIyOSAyLjgyMTQyLTQuNTE5MDU0IDIuNjA2MjI3LTQuMjIwMTc0QzIuNTcwMzYxLTQuOTAxNjE5IDIuMDgwMTk5LTUuMjcyMjI5IDEuNTU0MTcyLTUuMjcyMjI5QzEuMjA3NDcyLTUuMjcyMjI5IC45MzI1MDMtNS4xMDQ4NTcgLjcwNTM1NS00LjY1MDU2Qy40OTAxNjItNC4yMjAxNzQgLjMyMjc5LTMuNDkwOTA5IC4zMjI3OS0zLjQ0MzA4OFMuMzcwNjEtMy4zMzU0OTIgLjQ1NDI5Ni0zLjMzNTQ5MkMuNTQ5OTM4LTMuMzM1NDkyIC41NjE4OTMtMy4zNDc0NDcgLjYzMzYyNC0zLjYyMjQxNkMuODEyOTUxLTQuMzI3NzcxIDEuMDQwMS01LjAzMzEyNiAxLjUxODMwNi01LjAzMzEyNkMxLjc5MzI3NS01LjAzMzEyNiAxLjg4ODkxNy00Ljg0MTg0MyAxLjg4ODkxNy00LjQ4MzE4OEMxLjg4ODkxNy00LjIyMDE3NCAxLjc2OTM2NS0zLjc1MzkyMyAxLjY4NTY3OS0zLjM4MzMxM0wxLjM1MDkzNC0yLjA5MjE1NEMxLjMwMzExMy0xLjg2NTAwNiAxLjE3MTYwNi0xLjMyNzAyNCAxLjExMTgzMS0xLjExMTgzMUMxLjAyODE0NC0uODAwOTk2IC44OTY2MzgtLjIzOTEwMyAuODk2NjM4LS4xNzkzMjhDLjg5NjYzOC0uMDExOTU1IDEuMDI4MTQ0IC4xMTk1NTIgMS4yMDc0NzIgLjExOTU1MkMxLjM1MDkzNCAuMTE5NTUyIDEuNTE4MzA2IC4wNDc4MjEgMS42MTM5NDgtLjEzMTUwN0MxLjYzNzg1OC0uMTkxMjgzIDEuNzQ1NDU1LS42MDk3MTQgMS44MDUyMy0uODQ4ODE3TDIuMDY4MjQ0LTEuOTI0NzgyTDIuNDYyNzY1LTMuNTAyODY0WiIgaWQ9ImcwLTEwOSIvPiYjeGE7PHBhdGggZD0iTTIuNDYyNzY1LTMuNTAyODY0QzIuNDg2Njc1LTMuNTc0NTk1IDIuNzg1NTU0LTQuMTcyMzU0IDMuMjI3ODk1LTQuNTU0OTE5QzMuNTM4NzMtNC44NDE4NDMgMy45NDUyMDUtNS4wMzMxMjYgNC40MTE0NTctNS4wMzMxMjZDNC44ODk2NjQtNS4wMzMxMjYgNS4wNTcwMzYtNC42NzQ0NzEgNS4wNTcwMzYtNC4xOTYyNjRDNS4wNTcwMzYtMy41MTQ4MTkgNC41NjY4NzQtMi4xNTE5MyA0LjMyNzc3MS0xLjUwNjM1MUM0LjIyMDE3NC0xLjIxOTQyNyA0LjE2MDM5OS0xLjA2NDAxIDQuMTYwMzk5LS44NDg4MTdDNC4xNjAzOTktLjMxMDgzNCA0LjUzMTAwOSAuMTE5NTUyIDUuMTA0ODU3IC4xMTk1NTJDNi4yMTY2ODcgLjExOTU1MiA2LjYzNTExOC0xLjYzNzg1OCA2LjYzNTExOC0xLjcwOTU4OUM2LjYzNTExOC0xLjc2OTM2NSA2LjU4NzI5OC0xLjgxNzE4NiA2LjUxNTU2Ny0xLjgxNzE4NkM2LjQwNzk3LTEuODE3MTg2IDYuMzk2MDE1LTEuNzgxMzIgNi4zMzYyMzktMS41NzgwODJDNi4wNjEyNy0uNTk3NzU4IDUuNjA2OTc0LS4xMTk1NTIgNS4xNDA3MjItLjExOTU1MkM1LjAyMTE3MS0uMTE5NTUyIDQuODI5ODg4LS4xMzE1MDcgNC44Mjk4ODgtLjUxNDA3MkM0LjgyOTg4OC0uODEyOTUxIDQuOTYxMzk1LTEuMTcxNjA2IDUuMDMzMTI2LTEuMzM4OTc5QzUuMjcyMjI5LTEuOTk2NTEzIDUuNzc0MzQ2LTMuMzM1NDkyIDUuNzc0MzQ2LTQuMDE2OTM2QzUuNzc0MzQ2LTQuNzM0MjQ3IDUuMzU1OTE1LTUuMjcyMjI5IDQuNDQ3MzIzLTUuMjcyMjI5QzMuMzgzMzEzLTUuMjcyMjI5IDIuODIxNDItNC41MTkwNTQgMi42MDYyMjctNC4yMjAxNzRDMi41NzAzNjEtNC45MDE2MTkgMi4wODAxOTktNS4yNzIyMjkgMS41NTQxNzItNS4yNzIyMjlDMS4xNzE2MDYtNS4yNzIyMjkgLjkwODU5My01LjA0NTA4MSAuNzA1MzU1LTQuNjM4NjA1Qy40OTAxNjItNC4yMDgyMTkgLjMyMjc5LTMuNDkwOTA5IC4zMjI3OS0zLjQ0MzA4OFMuMzcwNjEtMy4zMzU0OTIgLjQ1NDI5Ni0zLjMzNTQ5MkMuNTQ5OTM4LTMuMzM1NDkyIC41NjE4OTMtMy4zNDc0NDcgLjYzMzYyNC0zLjYyMjQxNkMuODI0OTA3LTQuMzUxNjgxIDEuMDQwMS01LjAzMzEyNiAxLjUxODMwNi01LjAzMzEyNkMxLjc5MzI3NS01LjAzMzEyNiAxLjg4ODkxNy00Ljg0MTg0MyAxLjg4ODkxNy00LjQ4MzE4OEMxLjg4ODkxNy00LjIyMDE3NCAxLjc2OTM2NS0zLjc1MzkyMyAxLjY4NTY3OS0zLjM4MzMxM0wxLjM1MDkzNC0yLjA5MjE1NEMxLjMwMzExMy0xLjg2NTAwNiAxLjE3MTYwNi0xLjMyNzAyNCAxLjExMTgzMS0xLjExMTgzMUMxLjAyODE0NC0uODAwOTk2IC44OTY2MzgtLjIzOTEwMyAuODk2NjM4LS4xNzkzMjhDLjg5NjYzOC0uMDExOTU1IDEuMDI4MTQ0IC4xMTk1NTIgMS4yMDc0NzIgLjExOTU1MkMxLjM1MDkzNCAuMTE5NTUyIDEuNTE4MzA2IC4wNDc4MjEgMS42MTM5NDgtLjEzMTUwN0MxLjYzNzg1OC0uMTkxMjgzIDEuNzQ1NDU1LS42MDk3MTQgMS44MDUyMy0uODQ4ODE3TDIuMDY4MjQ0LTEuOTI0NzgyTDIuNDYyNzY1LTMuNTAyODY0WiIgaWQ9ImcwLTExMCIvPiYjeGE7PHBhdGggZD0iTTQuMDc2NzEyLS42OTM0QzQuMjMyMTMtLjAyMzkxIDQuODA1OTc4IC4xMTk1NTIgNS4wOTI5MDIgLjExOTU1MkM1LjQ3NTQ2NyAuMTE5NTUyIDUuNzYyMzkxLS4xMzE1MDcgNS45NTM2NzQtLjUzNzk4M0M2LjE1NjkxMi0uOTY4MzY5IDYuMzEyMzI5LTEuNjczNzI0IDYuMzEyMzI5LTEuNzA5NTg5QzYuMzEyMzI5LTEuNzY5MzY1IDYuMjY0NTA4LTEuODE3MTg2IDYuMTkyNzc3LTEuODE3MTg2QzYuMDg1MTgxLTEuODE3MTg2IDYuMDczMjI1LTEuNzU3NDEgNi4wMjU0MDUtMS41NzgwODJDNS44MTAyMTItLjc1MzE3NiA1LjU5NTAxOS0uMTE5NTUyIDUuMTE2ODEyLS4xMTk1NTJDNC43NTgxNTctLjExOTU1MiA0Ljc1ODE1Ny0uNTE0MDcyIDQuNzU4MTU3LS42Njk0ODlDNC43NTgxNTctLjk0NDQ1OCA0Ljc5NDAyMi0xLjA2NDAxIDQuOTEzNTc0LTEuNTY2MTI3QzQuOTk3MjYtMS44ODg5MTcgNS4wODA5NDYtMi4yMTE3MDYgNS4xNTI2NzctMi41NDY0NTFMNS42NDI4MzktNC40OTUxNDNDNS43MjY1MjYtNC43OTQwMjIgNS43MjY1MjYtNC44MTc5MzMgNS43MjY1MjYtNC44NTM3OThDNS43MjY1MjYtNS4wMzMxMjYgNS41ODMwNjQtNS4xNTI2NzcgNS40MDM3MzYtNS4xNTI2NzdDNS4wNTcwMzYtNS4xNTI2NzcgNC45NzMzNS00Ljg1Mzc5OCA0LjkwMTYxOS00LjU1NDkxOUM0Ljc4MjA2Ny00LjA4ODY2NyA0LjEzNjQ4OC0xLjUxODMwNiA0LjA1MjgwMi0xLjA5OTg3NUM0LjA0MDg0Ny0xLjA5OTg3NSAzLjU3NDU5NS0uMTE5NTUyIDIuNzAxODY4LS4xMTk1NTJDMi4wODAxOTktLjExOTU1MiAxLjk2MDY0OC0uNjU3NTM0IDEuOTYwNjQ4LTEuMDk5ODc1QzEuOTYwNjQ4LTEuNzgxMzIgMi4yOTUzOTItMi43Mzc3MzMgMi42MDYyMjctMy41Mzg3M0MyLjc0OTY4OS0zLjkyMTI5NSAyLjgwOTQ2NS00LjA3NjcxMiAyLjgwOTQ2NS00LjMxNTgxNkMyLjgwOTQ2NS00LjgyOTg4OCAyLjQzODg1NC01LjI3MjIyOSAxLjg2NTAwNi01LjI3MjIyOUMuNzY1MTMxLTUuMjcyMjI5IC4zMjI3OS0zLjUzODczIC4zMjI3OS0zLjQ0MzA4OEMuMzIyNzktMy4zOTUyNjggLjM3MDYxLTMuMzM1NDkyIC40NTQyOTYtMy4zMzU0OTJDLjU2MTg5My0zLjMzNTQ5MiAuNTczODQ4LTMuMzgzMzEzIC42MjE2NjktMy41NTA2ODVDLjkwODU5My00LjU3ODgyOSAxLjM3NDg0NC01LjAzMzEyNiAxLjgyOTE0MS01LjAzMzEyNkMxLjk0ODY5Mi01LjAzMzEyNiAyLjEzOTk3NS01LjAyMTE3MSAyLjEzOTk3NS00LjYzODYwNUMyLjEzOTk3NS00LjMyNzc3MSAyLjAwODQ2OC0zLjk4MTA3MSAxLjgyOTE0MS0zLjUyNjc3NUMxLjMwMzExMy0yLjEwNDExIDEuMjQzMzM3LTEuNjQ5ODEzIDEuMjQzMzM3LTEuMjkxMTU4QzEuMjQzMzM3LS4wNzE3MzEgMi4xNjM4ODUgLjExOTU1MiAyLjY1NDA0NyAuMTE5NTUyQzMuNDE5MTc4IC4xMTk1NTIgMy44Mzc2MDktLjQwNjQ3NiA0LjA3NjcxMi0uNjkzNFoiIGlkPSJnMC0xMTciLz4mI3hhOzwvZGVmcz4mI3hhOzxnIHRyYW5zZm9ybT0ibWF0cml4KDEuMTMgMCAwIDEuMTMgLTYzLjk4NjA0MyAtNjEuMDIpIiBpZD0icGFnZTEiPiYjeGE7PHVzZSB4bGluazpocmVmPSIjZzAtODMiIHk9IjcwLjg1MjM5MSIgeD0iNTYuNDEzMjY3Ii8+JiN4YTs8dXNlIHhsaW5rOmhyZWY9IiNnMC0xMTciIHk9IjcwLjg1MjM5MSIgeD0iNjQuMzA4NTkiLz4mI3hhOzx1c2UgeGxpbms6aHJlZj0iI2cwLTEwOSIgeT0iNzAuODUyMzkxIiB4PSI3MC45NzEwMyIvPiYjeGE7PHVzZSB4bGluazpocmVmPSIjZzEtNjEiIHk9IjcwLjg1MjM5MSIgeD0iODQuNTMxMTI2Ii8+JiN4YTs8dXNlIHhsaW5rOmhyZWY9IiNnMS00MCIgeT0iNjIuNzY0NjMzIiB4PSI5OC4xNTIxMjEiLz4mI3hhOzx1c2UgeGxpbms6aHJlZj0iI2cwLTExMCIgeT0iNjIuNzY0NjMzIiB4PSIxMDIuNzA0NDQ2Ii8+JiN4YTs8dXNlIHhsaW5rOmhyZWY9IiNnMS00MSIgeT0iNjIuNzY0NjMzIiB4PSIxMDkuNjkyMDUyIi8+JiN4YTs8dXNlIHhsaW5rOmhyZWY9IiNnMS00MCIgeT0iNjIuNzY0NjMzIiB4PSIxMTQuMjQ0Mzc4Ii8+JiN4YTs8dXNlIHhsaW5rOmhyZWY9IiNnMC0xMTAiIHk9IjYyLjc2NDYzMyIgeD0iMTE4Ljc5NjcwNCIvPiYjeGE7PHVzZSB4bGluazpocmVmPSIjZzEtNDMiIHk9IjYyLjc2NDYzMyIgeD0iMTI4LjQ0MDk3MyIvPiYjeGE7PHVzZSB4bGluazpocmVmPSIjZzEtNDkiIHk9IjYyLjc2NDYzMyIgeD0iMTQwLjIwMjI4OCIvPiYjeGE7PHVzZSB4bGluazpocmVmPSIjZzEtNDEiIHk9IjYyLjc2NDYzMyIgeD0iMTQ2LjA1NTI3OCIvPiYjeGE7PHJlY3Qgd2lkdGg9IjUyLjQ1NTQ4MyIgaGVpZ2h0PSIuNDc4MTg3IiB5PSI2Ny42MjQ1MDYiIHg9Ijk4LjE1MjEyMSIvPiYjeGE7PHVzZSB4bGluazpocmVmPSIjZzEtNTAiIHk9Ijc5LjA1MzA1NCIgeD0iMTIxLjQ1MzM2NyIvPiYjeGE7PC9nPiYjeGE7PC9zdmc+;" parent="HmxGC194nbF6Ze_ij5kS-10" vertex="1">
          <mxGeometry x="0.004893188476671639" y="26.001227111816434" width="106" height="29" as="geometry" />
        </mxCell>
        <mxCell id="HmxGC194nbF6Ze_ij5kS-13" value="" style="group" parent="HmxGC194nbF6Ze_ij5kS-6" vertex="1" connectable="0">
          <mxGeometry x="16" y="178" width="135.00489318847667" height="45.00122711181643" as="geometry" />
        </mxCell>
        <mxCell id="HmxGC194nbF6Ze_ij5kS-14" value="" style="shape=image;verticalLabelPosition=bottom;labelBackgroundColor=default;verticalAlign=top;aspect=fixed;imageAspect=0;image=data:image/svg+xml,PHN2ZyB4bWxuczp4bGluaz0iaHR0cDovL3d3dy53My5vcmcvMTk5OS94bGluayIgeG1sbnM9Imh0dHA6Ly93d3cudzMub3JnLzIwMDAvc3ZnIiB2aWV3Qm94PSItLjIzOTA1MSAtLjIzNDI3NCAxMzUuNDA5NzM5IDE1LjIxOTA1NiIgaGVpZ2h0PSIxNS4yMTkwNTZwdCIgd2lkdGg9IjEzNS40MDk3MzlwdCIgdmVyc2lvbj0iMS4xIj4mI3hhOzxkZWZzPiYjeGE7PHBhdGggZD0iTTMuODg1NDMgMi45MDUxMDZDMy44ODU0MyAyLjg2OTI0IDMuODg1NDMgMi44NDUzMyAzLjY4MjE5MiAyLjY0MjA5MkMyLjQ4NjY3NSAxLjQzNDYyIDEuODE3MTg2LS41Mzc5ODMgMS44MTcxODYtMi45NzY4MzdDMS44MTcxODYtNS4yOTYxMzkgMi4zNzkwNzgtNy4yOTI2NTMgMy43NjU4NzgtOC43MDMzNjJDMy44ODU0My04LjgxMDk1OSAzLjg4NTQzLTguODM0ODY5IDMuODg1NDMtOC44NzA3MzVDMy44ODU0My04Ljk0MjQ2NiAzLjgyNTY1NC04Ljk2NjM3NiAzLjc3NzgzMy04Ljk2NjM3NkMzLjYyMjQxNi04Ljk2NjM3NiAyLjY0MjA5Mi04LjEwNTYwNCAyLjA1NjI4OS02LjkzMzk5OEMxLjQ0NjU3NS01LjcyNjUyNiAxLjE3MTYwNi00LjQ0NzMyMyAxLjE3MTYwNi0yLjk3NjgzN0MxLjE3MTYwNi0xLjkxMjgyNyAxLjMzODk3OS0uNDkwMTYyIDEuOTYwNjQ4IC43ODkwNDFDMi42NjYwMDIgMi4yMjM2NjEgMy42NDYzMjYgMy4wMDA3NDcgMy43Nzc4MzMgMy4wMDA3NDdDMy44MjU2NTQgMy4wMDA3NDcgMy44ODU0MyAyLjk3NjgzNyAzLjg4NTQzIDIuOTA1MTA2WiIgaWQ9ImczLTQwIi8+JiN4YTs8cGF0aCBkPSJNMy4zNzEzNTctMi45NzY4MzdDMy4zNzEzNTctMy44ODU0MyAzLjI1MTgwNi01LjM2Nzg3IDIuNTgyMzE2LTYuNzU0NjdDMS44NzY5NjEtOC4xODkyOSAuODk2NjM4LTguOTY2Mzc2IC43NjUxMzEtOC45NjYzNzZDLjcxNzMxLTguOTY2Mzc2IC42NTc1MzQtOC45NDI0NjYgLjY1NzUzNC04Ljg3MDczNUMuNjU3NTM0LTguODM0ODY5IC42NTc1MzQtOC44MTA5NTkgLjg2MDc3Mi04LjYwNzcyMUMyLjA1NjI4OS03LjQwMDI0OSAyLjcyNTc3OC01LjQyNzY0NiAyLjcyNTc3OC0yLjk4ODc5MkMyLjcyNTc3OC0uNjY5NDg5IDIuMTYzODg1IDEuMzI3MDI0IC43NzcwODYgMi43Mzc3MzNDLjY1NzUzNCAyLjg0NTMzIC42NTc1MzQgMi44NjkyNCAuNjU3NTM0IDIuOTA1MTA2Qy42NTc1MzQgMi45NzY4MzcgLjcxNzMxIDMuMDAwNzQ3IC43NjUxMzEgMy4wMDA3NDdDLjkyMDU0OCAzLjAwMDc0NyAxLjkwMDg3MiAyLjEzOTk3NSAyLjQ4NjY3NSAuOTY4MzY5QzMuMDk2Mzg5LS4yNTEwNTkgMy4zNzEzNTctMS41NDIyMTcgMy4zNzEzNTctMi45NzY4MzdaIiBpZD0iZzMtNDEiLz4mI3hhOzxwYXRoIGQ9Ik00Ljc3MDExMi0yLjc2MTY0NEg4LjA2OTczOEM4LjIzNzExMS0yLjc2MTY0NCA4LjQ1MjMwNC0yLjc2MTY0NCA4LjQ1MjMwNC0yLjk3NjgzN0M4LjQ1MjMwNC0zLjIwMzk4NSA4LjI0OTA2Ni0zLjIwMzk4NSA4LjA2OTczOC0zLjIwMzk4NUg0Ljc3MDExMlYtNi41MDM2MTFDNC43NzAxMTItNi42NzA5ODQgNC43NzAxMTItNi44ODYxNzcgNC41NTQ5MTktNi44ODYxNzdDNC4zMjc3NzEtNi44ODYxNzcgNC4zMjc3NzEtNi42ODI5MzkgNC4zMjc3NzEtNi41MDM2MTFWLTMuMjAzOTg1SDEuMDI4MTQ0Qy44NjA3NzItMy4yMDM5ODUgLjY0NTU3OS0zLjIwMzk4NSAuNjQ1NTc5LTIuOTg4NzkyQy42NDU1NzktMi43NjE2NDQgLjg0ODgxNy0yLjc2MTY0NCAxLjAyODE0NC0yLjc2MTY0NEg0LjMyNzc3MVYuNTM3OTgzQzQuMzI3NzcxIC43MDUzNTUgNC4zMjc3NzEgLjkyMDU0OCA0LjU0Mjk2NCAuOTIwNTQ4QzQuNzcwMTEyIC45MjA1NDggNC43NzAxMTIgLjcxNzMxIDQuNzcwMTEyIC41Mzc5ODNWLTIuNzYxNjQ0WiIgaWQ9ImczLTQzIi8+JiN4YTs8cGF0aCBkPSJNMy40NDMwODgtNy42NjMyNjNDMy40NDMwODgtNy45MzgyMzIgMy40NDMwODgtNy45NTAxODcgMy4yMDM5ODUtNy45NTAxODdDMi45MTcwNjEtNy42MjczOTcgMi4zMTkzMDMtNy4xODUwNTYgMS4wODc5Mi03LjE4NTA1NlYtNi44MzgzNTZDMS4zNjI4ODktNi44MzgzNTYgMS45NjA2NDgtNi44MzgzNTYgMi42MTgxODItNy4xNDkxOTFWLS45MjA1NDhDMi42MTgxODItLjQ5MDE2MiAyLjU4MjMxNi0uMzQ2NyAxLjUzMDI2Mi0uMzQ2N0gxLjE1OTY1MVYwQzEuNDgyNDQxLS4wMjM5MSAyLjY0MjA5Mi0uMDIzOTEgMy4wMzY2MTMtLjAyMzkxUzQuNTc4ODI5LS4wMjM5MSA0LjkwMTYxOSAwVi0uMzQ2N0g0LjUzMTAwOUMzLjQ3ODk1NC0uMzQ2NyAzLjQ0MzA4OC0uNDkwMTYyIDMuNDQzMDg4LS45MjA1NDhWLTcuNjYzMjYzWiIgaWQ9ImczLTQ5Ii8+JiN4YTs8cGF0aCBkPSJNOC4wNjk3MzgtMy44NzM0NzRDOC4yMzcxMTEtMy44NzM0NzQgOC40NTIzMDQtMy44NzM0NzQgOC40NTIzMDQtNC4wODg2NjdDOC40NTIzMDQtNC4zMTU4MTYgOC4yNDkwNjYtNC4zMTU4MTYgOC4wNjk3MzgtNC4zMTU4MTZIMS4wMjgxNDRDLjg2MDc3Mi00LjMxNTgxNiAuNjQ1NTc5LTQuMzE1ODE2IC42NDU1NzktNC4xMDA2MjNDLjY0NTU3OS0zLjg3MzQ3NCAuODQ4ODE3LTMuODczNDc0IDEuMDI4MTQ0LTMuODczNDc0SDguMDY5NzM4Wk04LjA2OTczOC0xLjY0OTgxM0M4LjIzNzExMS0xLjY0OTgxMyA4LjQ1MjMwNC0xLjY0OTgxMyA4LjQ1MjMwNC0xLjg2NTAwNkM4LjQ1MjMwNC0yLjA5MjE1NCA4LjI0OTA2Ni0yLjA5MjE1NCA4LjA2OTczOC0yLjA5MjE1NEgxLjAyODE0NEMuODYwNzcyLTIuMDkyMTU0IC42NDU1NzktMi4wOTIxNTQgLjY0NTU3OS0xLjg3Njk2MUMuNjQ1NTc5LTEuNjQ5ODEzIC44NDg4MTctMS42NDk4MTMgMS4wMjgxNDQtMS42NDk4MTNIOC4wNjk3MzhaIiBpZD0iZzMtNjEiLz4mI3hhOzxwYXRoIGQ9Ik03Ljg3ODQ1Ni0yLjc0OTY4OUM4LjA4MTY5NC0yLjc0OTY4OSA4LjI5Njg4Ny0yLjc0OTY4OSA4LjI5Njg4Ny0yLjk4ODc5MlM4LjA4MTY5NC0zLjIyNzg5NSA3Ljg3ODQ1Ni0zLjIyNzg5NUgxLjQxMDcxQzEuMjA3NDcyLTMuMjI3ODk1IC45OTIyNzktMy4yMjc4OTUgLjk5MjI3OS0yLjk4ODc5MlMxLjIwNzQ3Mi0yLjc0OTY4OSAxLjQxMDcxLTIuNzQ5Njg5SDcuODc4NDU2WiIgaWQ9ImcwLTAiLz4mI3hhOzxwYXRoIGQ9Ik0yLjMyNzI3My01LjI5MjE1NEMyLjMzNTI0My01LjMwODA5NSAyLjM1OTE1My01LjQxMTcwNiAyLjM1OTE1My01LjQxOTY3NkMyLjM1OTE1My01LjQ1OTUyNyAyLjMyNzI3My01LjUzMTI1OCAyLjIzMTYzMS01LjUzMTI1OEMyLjE5OTc1MS01LjUzMTI1OCAxLjk1MjY3Ny01LjUwNzM0NyAxLjc2OTM2NS01LjQ5MTQwN0wxLjMyMzAzOS01LjQ1OTUyN0MxLjE0NzY5Ni01LjQ0MzU4NyAxLjA2Nzk5NS01LjQzNTYxNiAxLjA2Nzk5NS01LjI5MjE1NEMxLjA2Nzk5NS01LjE4MDU3MyAxLjE3OTU3Ny01LjE4MDU3MyAxLjI3NTIxOC01LjE4MDU3M0MxLjY1Nzc4My01LjE4MDU3MyAxLjY1Nzc4My01LjEzMjc1MiAxLjY1Nzc4My01LjA2MTAyMUMxLjY1Nzc4My01LjAzNzExMSAxLjY1Nzc4My01LjAyMTE3MSAxLjYxNzkzMy00Ljg3NzcwOUwuNDg2MTc3LS4zNDI3MTVDLjQ1NDI5Ni0uMjIzMTYzIC40NTQyOTYtLjE3NTM0MiAuNDU0Mjk2LS4xNjczNzJDLjQ1NDI5Ni0uMDMxODggLjU2NTg3OCAuMDc5NzAxIC43MTczMSAuMDc5NzAxQy44NDQ4MzIgLjA3OTcwMSAuOTU2NDEzIDAgMS4wMjAxNzQtLjEwMzYxMUMxLjA0NDA4NS0uMTUxNDMyIDEuMTA3ODQ2LS40MDY0NzYgMS4xNDc2OTYtLjU2NTg3OEwxLjMzMTAwOS0xLjI3NTIxOEMxLjM1NDkxOS0xLjM5NDc3IDEuNDM0NjItMS42OTc2MzQgMS40NTg1MzEtMS44MTcxODZDMS41NzgwODItMi4yNzk0NTIgMS41NzgwODItMi4yOTUzOTIgMS43NTM0MjUtMi41NTA0MzZDMi4wMjQ0MDgtMi45NDA5NzEgMi4zOTkwMDQtMy4yOTE2NTYgMi45MzMwMDEtMy4yOTE2NTZDMy4yMTk5MjUtMy4yOTE2NTYgMy4zODcyOTgtMy4xMjQyODQgMy4zODcyOTgtMi43NDk2ODlDMy4zODcyOTgtMi4zMTEzMzMgMy4wNTI1NTMtMS40MDI3NCAyLjkwMTEyMS0xLjAxMjIwNEMyLjc5NzUwOS0uNzQ5MTkxIDIuNzk3NTA5LS43MDEzNyAyLjc5NzUwOS0uNTk3NzU4QzIuNzk3NTA5LS4xNDM0NjIgMy4xNzIxMDUgLjA3OTcwMSAzLjUxNDgxOSAuMDc5NzAxQzQuMjk1ODkgLjA3OTcwMSA0LjYyMjY2NS0xLjAzNjExNSA0LjYyMjY2NS0xLjEzOTcyNkM0LjYyMjY2NS0xLjIxOTQyNyA0LjU1ODkwNC0xLjI0MzMzNyA0LjUwMzExMy0xLjI0MzMzN0M0LjQwNzQ3Mi0xLjI0MzMzNyA0LjM5MTUzMi0xLjE4NzU0NyA0LjM2NzYyMS0xLjEwNzg0NkM0LjE3NjMzOS0uNDU0Mjk2IDMuODQxNTk0LS4xNDM0NjIgMy41Mzg3My0uMTQzNDYyQzMuNDExMjA4LS4xNDM0NjIgMy4zNDc0NDctLjIyMzE2MyAzLjM0NzQ0Ny0uNDA2NDc2UzMuNDExMjA4LS43NjUxMzEgMy40OTA5MDktLjk2NDM4NEMzLjYxMDQ2MS0xLjI2NzI0OCAzLjk2MTE0Ni0yLjE4MzgxMSAzLjk2MTE0Ni0yLjYzMDEzN0MzLjk2MTE0Ni0zLjIyNzg5NSAzLjU0NjctMy41MTQ4MTkgMi45NzI4NTItMy41MTQ4MTlDMi41MjY1MjYtMy41MTQ4MTkgMi4xMDQxMS0zLjMyMzUzNyAxLjczNzQ4NC0yLjkwMTEyMUwyLjMyNzI3My01LjI5MjE1NFoiIGlkPSJnMS0xMDQiLz4mI3hhOzxwYXRoIGQ9Ik0xLjc2MTM5NS0zLjE3MjEwNUgyLjU0MjQ2NkMyLjY5Mzg5OC0zLjE3MjEwNSAyLjc4OTUzOS0zLjE3MjEwNSAyLjc4OTUzOS0zLjMyMzUzN0MyLjc4OTUzOS0zLjQzNTExOCAyLjY4NTkyOC0zLjQzNTExOCAyLjU1MDQzNi0zLjQzNTExOEgxLjgyNTE1NkwyLjExMjA4LTQuNTY2ODc0QzIuMTQzOTYtNC42ODY0MjYgMi4xNDM5Ni00LjcyNjI3NiAyLjE0Mzk2LTQuNzM0MjQ3QzIuMTQzOTYtNC45MDE2MTkgMi4wMTY0MzgtNC45ODEzMiAxLjg4MDk0Ni00Ljk4MTMyQzEuNjA5OTYzLTQuOTgxMzIgMS41NTQxNzItNC43NjYxMjcgMS40NjY1MDEtNC40MDc0NzJMMS4yMTk0MjctMy40MzUxMThILjQ1NDI5NkMuMzAyODY0LTMuNDM1MTE4IC4xOTkyNTMtMy40MzUxMTggLjE5OTI1My0zLjI4MzY4NkMuMTk5MjUzLTMuMTcyMTA1IC4zMDI4NjQtMy4xNzIxMDUgLjQzODM1Ni0zLjE3MjEwNUgxLjE1NTY2NkwuNjc3NDYtMS4yNTkyNzhDLjYyOTYzOS0xLjA2MDAyNSAuNTU3OTA4LS43ODEwNzEgLjU1NzkwOC0uNjY5NDg5Qy41NTc5MDgtLjE5MTI4MyAuOTQ4NDQzIC4wNzk3MDEgMS4zNzA4NTkgLjA3OTcwMUMyLjIyMzY2MSAuMDc5NzAxIDIuNzA5ODM4LTEuMDQ0MDg1IDIuNzA5ODM4LTEuMTM5NzI2QzIuNzA5ODM4LTEuMjI3Mzk3IDIuNjM4MTA3LTEuMjQzMzM3IDIuNTkwMjg2LTEuMjQzMzM3QzIuNTAyNjE1LTEuMjQzMzM3IDIuNDk0NjQ1LTEuMjExNDU3IDIuNDM4ODU0LTEuMDkxOTA1QzIuMjc5NDUyLS43MDkzNCAxLjg4MDk0Ni0uMTQzNDYyIDEuMzk0NzctLjE0MzQ2MkMxLjIyNzM5Ny0uMTQzNDYyIDEuMTMxNzU2LS4yNTUwNDQgMS4xMzE3NTYtLjUxODA1N0MxLjEzMTc1Ni0uNjY5NDg5IDEuMTU1NjY2LS43NTcxNjEgMS4xNzk1NzctLjg2MDc3MkwxLjc2MTM5NS0zLjE3MjEwNVoiIGlkPSJnMS0xMTYiLz4mI3hhOzxwYXRoIGQ9Ik0zLjU5ODUwNi0xLjQyMjY2NUMzLjUzODczLTEuMjE5NDI3IDMuNTM4NzMtMS4xOTU1MTcgMy4zNzEzNTctLjk2ODM2OUMzLjEwODM0NC0uNjMzNjI0IDIuNTgyMzE2LS4xMTk1NTIgMi4wMjA0MjMtLjExOTU1MkMxLjUzMDI2Mi0uMTE5NTUyIDEuMjU1MjkzLS41NjE4OTMgMS4yNTUyOTMtMS4yNjcyNDhDMS4yNTUyOTMtMS45MjQ3ODIgMS42MjU5MDMtMy4yNjM3NjEgMS44NTMwNTEtMy43NjU4NzhDMi4yNTk1MjctNC42MDI3NCAyLjgyMTQyLTUuMDMzMTI2IDMuMjg3NjcxLTUuMDMzMTI2QzQuMDc2NzEyLTUuMDMzMTI2IDQuMjMyMTMtNC4wNTI4MDIgNC4yMzIxMy0zLjk1NzE2MUM0LjIzMjEzLTMuOTQ1MjA1IDQuMTk2MjY0LTMuNzg5Nzg4IDQuMTg0MzA5LTMuNzY1ODc4TDMuNTk4NTA2LTEuNDIyNjY1Wk00LjM2MzYzNi00LjQ4MzE4OEM0LjIzMjEzLTQuNzk0MDIyIDMuOTA5MzQtNS4yNzIyMjkgMy4yODc2NzEtNS4yNzIyMjlDMS45MzY3MzctNS4yNzIyMjkgLjQ3ODIwNy0zLjUyNjc3NSAuNDc4MjA3LTEuNzU3NDFDLjQ3ODIwNy0uNTczODQ4IDEuMTcxNjA2IC4xMTk1NTIgMS45ODQ1NTggLjExOTU1MkMyLjY0MjA5MiAuMTE5NTUyIDMuMjAzOTg1LS4zOTQ1MjEgMy41Mzg3My0uNzg5MDQxQzMuNjU4MjgxLS4wODM2ODYgNC4yMjAxNzQgLjExOTU1MiA0LjU3ODgyOSAuMTE5NTUyUzUuMjI0NDA4LS4wOTU2NDEgNS40Mzk2MDEtLjUyNjAyN0M1LjYzMDg4NC0uOTMyNTAzIDUuNzk4MjU3LTEuNjYxNzY4IDUuNzk4MjU3LTEuNzA5NTg5QzUuNzk4MjU3LTEuNzY5MzY1IDUuNzUwNDM2LTEuODE3MTg2IDUuNjc4NzA1LTEuODE3MTg2QzUuNTcxMTA4LTEuODE3MTg2IDUuNTU5MTUzLTEuNzU3NDEgNS41MTEzMzMtMS41NzgwODJDNS4zMzIwMDUtLjg3MjcyNyA1LjEwNDg1Ny0uMTE5NTUyIDQuNjE0Njk1LS4xMTk1NTJDNC4yNjc5OTUtLjExOTU1MiA0LjI0NDA4NS0uNDMwMzg2IDQuMjQ0MDg1LS42Njk0ODlDNC4yNDQwODUtLjk0NDQ1OCA0LjI3OTk1LTEuMDc1OTY1IDQuMzg3NTQ3LTEuNTQyMjE3QzQuNDcxMjMzLTEuODQxMDk2IDQuNTMxMDA5LTIuMTA0MTEgNC42MjY2NS0yLjQ1MDgwOUM1LjA2ODk5MS00LjI0NDA4NSA1LjE3NjU4OC00LjY3NDQ3MSA1LjE3NjU4OC00Ljc0NjIwMkM1LjE3NjU4OC00LjkxMzU3NCA1LjA0NTA4MS01LjA0NTA4MSA0Ljg2NTc1My01LjA0NTA4MUM0LjQ4MzE4OC01LjA0NTA4MSA0LjM4NzU0Ny00LjYyNjY1IDQuMzYzNjM2LTQuNDgzMTg4WiIgaWQ9ImcyLTk3Ii8+JiN4YTs8cGF0aCBkPSJNNi4wMTM0NS03Ljk5ODAwN0M2LjAyNTQwNS04LjA0NTgyOCA2LjA0OTMxNS04LjExNzU1OSA2LjA0OTMxNS04LjE3NzMzNUM2LjA0OTMxNS04LjI5Njg4NyA1LjkyOTc2My04LjI5Njg4NyA1LjkwNTg1My04LjI5Njg4N0M1Ljg5Mzg5OC04LjI5Njg4NyA1LjMwODA5NS04LjI0OTA2NiA1LjI0ODMxOS04LjIzNzExMUM1LjA0NTA4MS04LjIyNTE1NiA0Ljg2NTc1My04LjIwMTI0NSA0LjY1MDU2LTguMTg5MjlDNC4zNTE2ODEtOC4xNjUzOCA0LjI2Nzk5NS04LjE1MzQyNSA0LjI2Nzk5NS03LjkzODIzMkM0LjI2Nzk5NS03LjgxODY4IDQuMzYzNjM2LTcuODE4NjggNC41MzEwMDktNy44MTg2OEM1LjExNjgxMi03LjgxODY4IDUuMTI4NzY3LTcuNzExMDgzIDUuMTI4NzY3LTcuNTkxNTMyQzUuMTI4NzY3LTcuNTE5ODAxIDUuMTA0ODU3LTcuNDI0MTU5IDUuMDkyOTAyLTcuMzg4Mjk0TDQuMzYzNjM2LTQuNDgzMTg4QzQuMjMyMTMtNC43OTQwMjIgMy45MDkzNC01LjI3MjIyOSAzLjI4NzY3MS01LjI3MjIyOUMxLjkzNjczNy01LjI3MjIyOSAuNDc4MjA3LTMuNTI2Nzc1IC40NzgyMDctMS43NTc0MUMuNDc4MjA3LS41NzM4NDggMS4xNzE2MDYgLjExOTU1MiAxLjk4NDU1OCAuMTE5NTUyQzIuNjQyMDkyIC4xMTk1NTIgMy4yMDM5ODUtLjM5NDUyMSAzLjUzODczLS43ODkwNDFDMy42NTgyODEtLjA4MzY4NiA0LjIyMDE3NCAuMTE5NTUyIDQuNTc4ODI5IC4xMTk1NTJTNS4yMjQ0MDgtLjA5NTY0MSA1LjQzOTYwMS0uNTI2MDI3QzUuNjMwODg0LS45MzI1MDMgNS43OTgyNTctMS42NjE3NjggNS43OTgyNTctMS43MDk1ODlDNS43OTgyNTctMS43NjkzNjUgNS43NTA0MzYtMS44MTcxODYgNS42Nzg3MDUtMS44MTcxODZDNS41NzExMDgtMS44MTcxODYgNS41NTkxNTMtMS43NTc0MSA1LjUxMTMzMy0xLjU3ODA4MkM1LjMzMjAwNS0uODcyNzI3IDUuMTA0ODU3LS4xMTk1NTIgNC42MTQ2OTUtLjExOTU1MkM0LjI2Nzk5NS0uMTE5NTUyIDQuMjQ0MDg1LS40MzAzODYgNC4yNDQwODUtLjY2OTQ4OUM0LjI0NDA4NS0uNzE3MzEgNC4yNDQwODUtLjk2ODM2OSA0LjMyNzc3MS0xLjMwMzExM0w2LjAxMzQ1LTcuOTk4MDA3Wk0zLjU5ODUwNi0xLjQyMjY2NUMzLjUzODczLTEuMjE5NDI3IDMuNTM4NzMtMS4xOTU1MTcgMy4zNzEzNTctLjk2ODM2OUMzLjEwODM0NC0uNjMzNjI0IDIuNTgyMzE2LS4xMTk1NTIgMi4wMjA0MjMtLjExOTU1MkMxLjUzMDI2Mi0uMTE5NTUyIDEuMjU1MjkzLS41NjE4OTMgMS4yNTUyOTMtMS4yNjcyNDhDMS4yNTUyOTMtMS45MjQ3ODIgMS42MjU5MDMtMy4yNjM3NjEgMS44NTMwNTEtMy43NjU4NzhDMi4yNTk1MjctNC42MDI3NCAyLjgyMTQyLTUuMDMzMTI2IDMuMjg3NjcxLTUuMDMzMTI2QzQuMDc2NzEyLTUuMDMzMTI2IDQuMjMyMTMtNC4wNTI4MDIgNC4yMzIxMy0zLjk1NzE2MUM0LjIzMjEzLTMuOTQ1MjA1IDQuMTk2MjY0LTMuNzg5Nzg4IDQuMTg0MzA5LTMuNzY1ODc4TDMuNTk4NTA2LTEuNDIyNjY1WiIgaWQ9ImcyLTEwMCIvPiYjeGE7PHBhdGggZD0iTTIuMTM5OTc1LTIuNzczNTk5QzIuNDYyNzY1LTIuNzczNTk5IDMuMjc1NzE2LTIuNzk3NTA5IDMuODQ5NTY0LTMuMDEyNzAyQzQuNzU4MTU3LTMuMzU5NDAyIDQuODQxODQzLTQuMDUyODAyIDQuODQxODQzLTQuMjY3OTk1QzQuODQxODQzLTQuNzk0MDIyIDQuMzg3NTQ3LTUuMjcyMjI5IDMuNTk4NTA2LTUuMjcyMjI5QzIuMzQzMjEzLTUuMjcyMjI5IC41Mzc5ODMtNC4xMzY0ODggLjUzNzk4My0yLjAwODQ2OEMuNTM3OTgzLS43NTMxNzYgMS4yNTUyOTMgLjExOTU1MiAyLjM0MzIxMyAuMTE5NTUyQzMuOTY5MTE2IC4xMTk1NTIgNC45OTcyNi0xLjE0NzY5NiA0Ljk5NzI2LTEuMzAzMTEzQzQuOTk3MjYtMS4zNzQ4NDQgNC45MjU1MjktMS40MzQ2MiA0Ljg3NzcwOS0xLjQzNDYyQzQuODQxODQzLTEuNDM0NjIgNC44Mjk4ODgtMS40MjI2NjUgNC43MjIyOTEtMS4zMTUwNjhDMy45NTcxNjEtLjI5ODg3OSAyLjgyMTQyLS4xMTk1NTIgMi4zNjcxMjMtLjExOTU1MkMxLjY4NTY3OS0uMTE5NTUyIDEuMzI3MDI0LS42NTc1MzQgMS4zMjcwMjQtMS41NDIyMTdDMS4zMjcwMjQtMS43MDk1ODkgMS4zMjcwMjQtMi4wMDg0NjggMS41MDYzNTEtMi43NzM1OTlIMi4xMzk5NzVaTTEuNTY2MTI3LTMuMDEyNzAyQzIuMDgwMTk5LTQuODUzNzk4IDMuMjE1OTQtNS4wMzMxMjYgMy41OTg1MDYtNS4wMzMxMjZDNC4xMjQ1MzMtNS4wMzMxMjYgNC40ODMxODgtNC43MjIyOTEgNC40ODMxODgtNC4yNjc5OTVDNC40ODMxODgtMy4wMTI3MDIgMi41NzAzNjEtMy4wMTI3MDIgMi4wNjgyNDQtMy4wMTI3MDJIMS41NjYxMjdaIiBpZD0iZzItMTAxIi8+JiN4YTs8cGF0aCBkPSJNMi40NjI3NjUtMy41MDI4NjRDMi40ODY2NzUtMy41NzQ1OTUgMi43ODU1NTQtNC4xNzIzNTQgMy4yMjc4OTUtNC41NTQ5MTlDMy41Mzg3My00Ljg0MTg0MyAzLjk0NTIwNS01LjAzMzEyNiA0LjQxMTQ1Ny01LjAzMzEyNkM0Ljg4OTY2NC01LjAzMzEyNiA1LjA1NzAzNi00LjY3NDQ3MSA1LjA1NzAzNi00LjE5NjI2NEM1LjA1NzAzNi00LjEyNDUzMyA1LjA1NzAzNi0zLjg4NTQzIDQuOTEzNTc0LTMuMzIzNTM3TDQuNjE0Njk1LTIuMDkyMTU0QzQuNTE5MDU0LTEuNzMzNDk5IDQuMjkxOTA1LS44NDg4MTcgNC4yNjc5OTUtLjcxNzMxQzQuMjIwMTc0LS41Mzc5ODMgNC4xNDg0NDMtLjIyNzE0OCA0LjE0ODQ0My0uMTc5MzI4QzQuMTQ4NDQzLS4wMTE5NTUgNC4yNzk5NSAuMTE5NTUyIDQuNDU5Mjc4IC4xMTk1NTJDNC44MTc5MzMgLjExOTU1MiA0Ljg3NzcwOS0uMTU1NDE3IDQuOTg1MzA1LS41ODU4MDNMNS43MDI2MTUtMy40NDMwODhDNS43MjY1MjYtMy41Mzg3MyA2LjM0ODE5NC01LjAzMzEyNiA3LjY2MzI2My01LjAzMzEyNkM4LjE0MTQ2OS01LjAzMzEyNiA4LjMwODg0Mi00LjY3NDQ3MSA4LjMwODg0Mi00LjE5NjI2NEM4LjMwODg0Mi0zLjUyNjc3NSA3Ljg0MjU5LTIuMjIzNjYxIDcuNTc5NTc3LTEuNTA2MzUxQzcuNDcxOTgtMS4yMTk0MjcgNy40MTIyMDQtMS4wNjQwMSA3LjQxMjIwNC0uODQ4ODE3QzcuNDEyMjA0LS4zMTA4MzQgNy43ODI4MTQgLjExOTU1MiA4LjM1NjY2MyAuMTE5NTUyQzkuNDY4NDkzIC4xMTk1NTIgOS44ODY5MjQtMS42Mzc4NTggOS44ODY5MjQtMS43MDk1ODlDOS44ODY5MjQtMS43NjkzNjUgOS44MzkxMDMtMS44MTcxODYgOS43NjczNzItMS44MTcxODZDOS42NTk3NzYtMS44MTcxODYgOS42NDc4MjEtMS43ODEzMiA5LjU4ODA0NS0xLjU3ODA4MkM5LjMxMzA3Ni0uNjIxNjY5IDguODcwNzM1LS4xMTk1NTIgOC4zOTI1MjgtLjExOTU1MkM4LjI3Mjk3Ni0uMTE5NTUyIDguMDgxNjk0LS4xMzE1MDcgOC4wODE2OTQtLjUxNDA3MkM4LjA4MTY5NC0uODI0OTA3IDguMjI1MTU2LTEuMjA3NDcyIDguMjcyOTc2LTEuMzM4OTc5QzguNDg4MTY5LTEuOTEyODI3IDkuMDI2MTUyLTMuMzIzNTM3IDkuMDI2MTUyLTQuMDE2OTM2QzkuMDI2MTUyLTQuNzM0MjQ3IDguNjA3NzIxLTUuMjcyMjI5IDcuNjk5MTI4LTUuMjcyMjI5QzYuODk4MTMyLTUuMjcyMjI5IDYuMjUyNTUzLTQuODE3OTMzIDUuNzc0MzQ2LTQuMTEyNTc4QzUuNzM4NDgxLTQuNzU4MTU3IDUuMzQzOTYtNS4yNzIyMjkgNC40NDczMjMtNS4yNzIyMjlDMy4zODMzMTMtNS4yNzIyMjkgMi44MjE0Mi00LjUxOTA1NCAyLjYwNjIyNy00LjIyMDE3NEMyLjU3MDM2MS00LjkwMTYxOSAyLjA4MDE5OS01LjI3MjIyOSAxLjU1NDE3Mi01LjI3MjIyOUMxLjIwNzQ3Mi01LjI3MjIyOSAuOTMyNTAzLTUuMTA0ODU3IC43MDUzNTUtNC42NTA1NkMuNDkwMTYyLTQuMjIwMTc0IC4zMjI3OS0zLjQ5MDkwOSAuMzIyNzktMy40NDMwODhTLjM3MDYxLTMuMzM1NDkyIC40NTQyOTYtMy4zMzU0OTJDLjU0OTkzOC0zLjMzNTQ5MiAuNTYxODkzLTMuMzQ3NDQ3IC42MzM2MjQtMy42MjI0MTZDLjgxMjk1MS00LjMyNzc3MSAxLjA0MDEtNS4wMzMxMjYgMS41MTgzMDYtNS4wMzMxMjZDMS43OTMyNzUtNS4wMzMxMjYgMS44ODg5MTctNC44NDE4NDMgMS44ODg5MTctNC40ODMxODhDMS44ODg5MTctNC4yMjAxNzQgMS43NjkzNjUtMy43NTM5MjMgMS42ODU2NzktMy4zODMzMTNMMS4zNTA5MzQtMi4wOTIxNTRDMS4zMDMxMTMtMS44NjUwMDYgMS4xNzE2MDYtMS4zMjcwMjQgMS4xMTE4MzEtMS4xMTE4MzFDMS4wMjgxNDQtLjgwMDk5NiAuODk2NjM4LS4yMzkxMDMgLjg5NjYzOC0uMTc5MzI4Qy44OTY2MzgtLjAxMTk1NSAxLjAyODE0NCAuMTE5NTUyIDEuMjA3NDcyIC4xMTk1NTJDMS4zNTA5MzQgLjExOTU1MiAxLjUxODMwNiAuMDQ3ODIxIDEuNjEzOTQ4LS4xMzE1MDdDMS42Mzc4NTgtLjE5MTI4MyAxLjc0NTQ1NS0uNjA5NzE0IDEuODA1MjMtLjg0ODgxN0wyLjA2ODI0NC0xLjkyNDc4MkwyLjQ2Mjc2NS0zLjUwMjg2NFoiIGlkPSJnMi0xMDkiLz4mI3hhOzxwYXRoIGQ9Ik0yLjQ2Mjc2NS0zLjUwMjg2NEMyLjQ4NjY3NS0zLjU3NDU5NSAyLjc4NTU1NC00LjE3MjM1NCAzLjIyNzg5NS00LjU1NDkxOUMzLjUzODczLTQuODQxODQzIDMuOTQ1MjA1LTUuMDMzMTI2IDQuNDExNDU3LTUuMDMzMTI2QzQuODg5NjY0LTUuMDMzMTI2IDUuMDU3MDM2LTQuNjc0NDcxIDUuMDU3MDM2LTQuMTk2MjY0QzUuMDU3MDM2LTMuNTE0ODE5IDQuNTY2ODc0LTIuMTUxOTMgNC4zMjc3NzEtMS41MDYzNTFDNC4yMjAxNzQtMS4yMTk0MjcgNC4xNjAzOTktMS4wNjQwMSA0LjE2MDM5OS0uODQ4ODE3QzQuMTYwMzk5LS4zMTA4MzQgNC41MzEwMDkgLjExOTU1MiA1LjEwNDg1NyAuMTE5NTUyQzYuMjE2Njg3IC4xMTk1NTIgNi42MzUxMTgtMS42Mzc4NTggNi42MzUxMTgtMS43MDk1ODlDNi42MzUxMTgtMS43NjkzNjUgNi41ODcyOTgtMS44MTcxODYgNi41MTU1NjctMS44MTcxODZDNi40MDc5Ny0xLjgxNzE4NiA2LjM5NjAxNS0xLjc4MTMyIDYuMzM2MjM5LTEuNTc4MDgyQzYuMDYxMjctLjU5Nzc1OCA1LjYwNjk3NC0uMTE5NTUyIDUuMTQwNzIyLS4xMTk1NTJDNS4wMjExNzEtLjExOTU1MiA0LjgyOTg4OC0uMTMxNTA3IDQuODI5ODg4LS41MTQwNzJDNC44Mjk4ODgtLjgxMjk1MSA0Ljk2MTM5NS0xLjE3MTYwNiA1LjAzMzEyNi0xLjMzODk3OUM1LjI3MjIyOS0xLjk5NjUxMyA1Ljc3NDM0Ni0zLjMzNTQ5MiA1Ljc3NDM0Ni00LjAxNjkzNkM1Ljc3NDM0Ni00LjczNDI0NyA1LjM1NTkxNS01LjI3MjIyOSA0LjQ0NzMyMy01LjI3MjIyOUMzLjM4MzMxMy01LjI3MjIyOSAyLjgyMTQyLTQuNTE5MDU0IDIuNjA2MjI3LTQuMjIwMTc0QzIuNTcwMzYxLTQuOTAxNjE5IDIuMDgwMTk5LTUuMjcyMjI5IDEuNTU0MTcyLTUuMjcyMjI5QzEuMTcxNjA2LTUuMjcyMjI5IC45MDg1OTMtNS4wNDUwODEgLjcwNTM1NS00LjYzODYwNUMuNDkwMTYyLTQuMjA4MjE5IC4zMjI3OS0zLjQ5MDkwOSAuMzIyNzktMy40NDMwODhTLjM3MDYxLTMuMzM1NDkyIC40NTQyOTYtMy4zMzU0OTJDLjU0OTkzOC0zLjMzNTQ5MiAuNTYxODkzLTMuMzQ3NDQ3IC42MzM2MjQtMy42MjI0MTZDLjgyNDkwNy00LjM1MTY4MSAxLjA0MDEtNS4wMzMxMjYgMS41MTgzMDYtNS4wMzMxMjZDMS43OTMyNzUtNS4wMzMxMjYgMS44ODg5MTctNC44NDE4NDMgMS44ODg5MTctNC40ODMxODhDMS44ODg5MTctNC4yMjAxNzQgMS43NjkzNjUtMy43NTM5MjMgMS42ODU2NzktMy4zODMzMTNMMS4zNTA5MzQtMi4wOTIxNTRDMS4zMDMxMTMtMS44NjUwMDYgMS4xNzE2MDYtMS4zMjcwMjQgMS4xMTE4MzEtMS4xMTE4MzFDMS4wMjgxNDQtLjgwMDk5NiAuODk2NjM4LS4yMzkxMDMgLjg5NjYzOC0uMTc5MzI4Qy44OTY2MzgtLjAxMTk1NSAxLjAyODE0NCAuMTE5NTUyIDEuMjA3NDcyIC4xMTk1NTJDMS4zNTA5MzQgLjExOTU1MiAxLjUxODMwNiAuMDQ3ODIxIDEuNjEzOTQ4LS4xMzE1MDdDMS42Mzc4NTgtLjE5MTI4MyAxLjc0NTQ1NS0uNjA5NzE0IDEuODA1MjMtLjg0ODgxN0wyLjA2ODI0NC0xLjkyNDc4MkwyLjQ2Mjc2NS0zLjUwMjg2NFoiIGlkPSJnMi0xMTAiLz4mI3hhOzxwYXRoIGQ9Ik00LjY1MDU2LTQuODg5NjY0QzQuMjc5OTUtNC44MTc5MzMgNC4wODg2NjctNC41NTQ5MTkgNC4wODg2NjctNC4yOTE5MDVDNC4wODg2NjctNC4wMDQ5ODEgNC4zMTU4MTYtMy45MDkzNCA0LjQ4MzE4OC0zLjkwOTM0QzQuODE3OTMzLTMuOTA5MzQgNS4wOTI5MDItNC4xOTYyNjQgNS4wOTI5MDItNC41NTQ5MTlDNS4wOTI5MDItNC45Mzc0ODQgNC43MjIyOTEtNS4yNzIyMjkgNC4xMjQ1MzMtNS4yNzIyMjlDMy42NDYzMjYtNS4yNzIyMjkgMy4wOTYzODktNS4wNTcwMzYgMi41OTQyNzEtNC4zMjc3NzFDMi41MTA1ODUtNC45NjEzOTUgMi4wMzIzNzktNS4yNzIyMjkgMS41NTQxNzItNS4yNzIyMjlDMS4wODc5Mi01LjI3MjIyOSAuODQ4ODE3LTQuOTEzNTc0IC43MDUzNTUtNC42NTA1NkMuNTAyMTE3LTQuMjIwMTc0IC4zMjI3OS0zLjUwMjg2NCAuMzIyNzktMy40NDMwODhDLjMyMjc5LTMuMzk1MjY4IC4zNzA2MS0zLjMzNTQ5MiAuNDU0Mjk2LTMuMzM1NDkyQy41NDk5MzgtMy4zMzU0OTIgLjU2MTg5My0zLjM0NzQ0NyAuNjMzNjI0LTMuNjIyNDE2Qy44MTI5NTEtNC4zMzk3MjYgMS4wNDAxLTUuMDMzMTI2IDEuNTE4MzA2LTUuMDMzMTI2QzEuODA1MjMtNS4wMzMxMjYgMS44ODg5MTctNC44Mjk4ODggMS44ODg5MTctNC40ODMxODhDMS44ODg5MTctNC4yMjAxNzQgMS43NjkzNjUtMy43NTM5MjMgMS42ODU2NzktMy4zODMzMTNMMS4zNTA5MzQtMi4wOTIxNTRDMS4zMDMxMTMtMS44NjUwMDYgMS4xNzE2MDYtMS4zMjcwMjQgMS4xMTE4MzEtMS4xMTE4MzFDMS4wMjgxNDQtLjgwMDk5NiAuODk2NjM4LS4yMzkxMDMgLjg5NjYzOC0uMTc5MzI4Qy44OTY2MzgtLjAxMTk1NSAxLjAyODE0NCAuMTE5NTUyIDEuMjA3NDcyIC4xMTk1NTJDMS4zMzg5NzkgLjExOTU1MiAxLjU2NjEyNyAuMDM1ODY2IDEuNjM3ODU4LS4yMDMyMzhDMS42NzM3MjQtLjI5ODg3OSAyLjExNjA2NS0yLjEwNDExIDIuMTg3Nzk2LTIuMzc5MDc4QzIuMjQ3NTcyLTIuNjQyMDkyIDIuMzE5MzAzLTIuODkzMTUxIDIuMzc5MDc4LTMuMTU2MTY0QzIuNDI2ODk5LTMuMzIzNTM3IDIuNDc0NzItMy41MTQ4MTkgMi41MTA1ODUtMy42NzAyMzdDMi41NDY0NTEtMy43Nzc4MzMgMi44NjkyNC00LjM2MzYzNiAzLjE2ODEyLTQuNjI2NjVDMy4zMTE1ODItNC43NTgxNTcgMy42MjI0MTYtNS4wMzMxMjYgNC4xMTI1NzgtNS4wMzMxMjZDNC4zMDM4NjEtNS4wMzMxMjYgNC40OTUxNDMtNC45OTcyNiA0LjY1MDU2LTQuODg5NjY0WiIgaWQ9ImcyLTExNCIvPiYjeGE7PHBhdGggZD0iTTIuNDAyOTg5LTQuODA1OTc4SDMuNTAyODY0QzMuNzMwMDEyLTQuODA1OTc4IDMuODQ5NTY0LTQuODA1OTc4IDMuODQ5NTY0LTUuMDIxMTcxQzMuODQ5NTY0LTUuMTUyNjc3IDMuNzc3ODMzLTUuMTUyNjc3IDMuNTM4NzMtNS4xNTI2NzdIMi40ODY2NzVMMi45MjkwMTYtNi44OTgxMzJDMi45NzY4MzctNy4wNjU1MDQgMi45NzY4MzctNy4wODk0MTUgMi45NzY4MzctNy4xNzMxMDFDMi45NzY4MzctNy4zNjQzODQgMi44MjE0Mi03LjQ3MTk4IDIuNjY2MDAyLTcuNDcxOThDMi41NzAzNjEtNy40NzE5OCAyLjI5NTM5Mi03LjQzNjExNSAyLjE5OTc1MS03LjA1MzU0OUwxLjczMzQ5OS01LjE1MjY3N0guNjA5NzE0Qy4zNzA2MS01LjE1MjY3NyAuMjYzMDE0LTUuMTUyNjc3IC4yNjMwMTQtNC45MjU1MjlDLjI2MzAxNC00LjgwNTk3OCAuMzQ2Ny00LjgwNTk3OCAuNTczODQ4LTQuODA1OTc4SDEuNjM3ODU4TC44NDg4MTctMS42NDk4MTNDLjc1MzE3Ni0xLjIzMTM4MiAuNzE3MzEtMS4xMTE4MzEgLjcxNzMxLS45NTY0MTNDLjcxNzMxLS4zOTQ1MjEgMS4xMTE4MzEgLjExOTU1MiAxLjc4MTMyIC4xMTk1NTJDMi45ODg3OTIgLjExOTU1MiAzLjYzNDM3MS0xLjYyNTkwMyAzLjYzNDM3MS0xLjcwOTU4OUMzLjYzNDM3MS0xLjc4MTMyIDMuNTg2NTUtMS44MTcxODYgMy41MTQ4MTktMS44MTcxODZDMy40OTA5MDktMS44MTcxODYgMy40NDMwODgtMS44MTcxODYgMy40MTkxNzgtMS43NjkzNjVDMy40MDcyMjMtMS43NTc0MSAzLjM5NTI2OC0xLjc0NTQ1NSAzLjMxMTU4Mi0xLjU1NDE3MkMzLjA2MDUyMy0uOTU2NDEzIDIuNTEwNTg1LS4xMTk1NTIgMS44MTcxODYtLjExOTU1MkMxLjQ1ODUzMS0uMTE5NTUyIDEuNDM0NjItLjQxODQzMSAxLjQzNDYyLS42ODE0NDVDMS40MzQ2Mi0uNjkzNCAxLjQzNDYyLS45MjA1NDggMS40NzA0ODYtMS4wNjQwMUwyLjQwMjk4OS00LjgwNTk3OFoiIGlkPSJnMi0xMTYiLz4mI3hhOzwvZGVmcz4mI3hhOzxnIHRyYW5zZm9ybT0ibWF0cml4KDEuMTMgMCAwIDEuMTMgLTYzLjk4NjA0MyAtNjIuNzA3NDMzKSIgaWQ9InBhZ2UxIj4mI3hhOzx1c2UgeGxpbms6aHJlZj0iI2cyLTExMCIgeT0iNjUuNzUzNDI1IiB4PSI1Ni40MTMyNjciLz4mI3hhOzx1c2UgeGxpbms6aHJlZj0iI2cxLTExNiIgeT0iNjAuODE3MjM5IiB4PSI2My40MDA4NzMiLz4mI3hhOzx1c2UgeGxpbms6aHJlZj0iI2cxLTEwNCIgeT0iNjAuODE3MjM5IiB4PSI2Ni40NTg4OTQiLz4mI3hhOzx1c2UgeGxpbms6aHJlZj0iI2cyLTExNiIgeT0iNjUuNzUzNDI1IiB4PSI3MS44MzY5MzUiLz4mI3hhOzx1c2UgeGxpbms6aHJlZj0iI2cyLTEwMSIgeT0iNjUuNzUzNDI1IiB4PSI3Ni4wNjQwOTQiLz4mI3hhOzx1c2UgeGxpbms6aHJlZj0iI2cyLTExNCIgeT0iNjUuNzUzNDI1IiB4PSI4MS40ODk1MzQiLz4mI3hhOzx1c2UgeGxpbms6aHJlZj0iI2cyLTEwOSIgeT0iNjUuNzUzNDI1IiB4PSI4Ny4wOTAwMDgiLz4mI3hhOzx1c2UgeGxpbms6aHJlZj0iI2czLTYxIiB5PSI2NS43NTM0MjUiIHg9IjEwMC42NTAxMDQiLz4mI3hhOzx1c2UgeGxpbms6aHJlZj0iI2cyLTk3IiB5PSI2NS43NTM0MjUiIHg9IjExMy4wNzU1ODUiLz4mI3hhOzx1c2UgeGxpbms6aHJlZj0iI2czLTQzIiB5PSI2NS43NTM0MjUiIHg9IjEyMS44NzcxOTMiLz4mI3hhOzx1c2UgeGxpbms6aHJlZj0iI2czLTQwIiB5PSI2NS43NTM0MjUiIHg9IjEzMy42Mzg1MDgiLz4mI3hhOzx1c2UgeGxpbms6aHJlZj0iI2cyLTExMCIgeT0iNjUuNzUzNDI1IiB4PSIxMzguMTkwODM0Ii8+JiN4YTs8dXNlIHhsaW5rOmhyZWY9IiNnMC0wIiB5PSI2NS43NTM0MjUiIHg9IjE0Ny44MzUxMDMiLz4mI3hhOzx1c2UgeGxpbms6aHJlZj0iI2czLTQ5IiB5PSI2NS43NTM0MjUiIHg9IjE1OS43OTAyNjMiLz4mI3hhOzx1c2UgeGxpbms6aHJlZj0iI2czLTQxIiB5PSI2NS43NTM0MjUiIHg9IjE2NS42NDMyNTQiLz4mI3hhOzx1c2UgeGxpbms6aHJlZj0iI2cyLTEwMCIgeT0iNjUuNzUzNDI1IiB4PSIxNzAuMTk1NTc5Ii8+JiN4YTs8L2c+JiN4YTs8L3N2Zz4=;" parent="HmxGC194nbF6Ze_ij5kS-13" vertex="1">
          <mxGeometry x="0.004893188476671639" y="30.001227111816434" width="135" height="15" as="geometry" />
        </mxCell>
        <mxCell id="HmxGC194nbF6Ze_ij5kS-15" value="Nth term in AP" style="text;html=1;strokeColor=none;fillColor=none;align=left;verticalAlign=middle;whiteSpace=wrap;rounded=0;" parent="HmxGC194nbF6Ze_ij5kS-13" vertex="1">
          <mxGeometry width="116" height="30" as="geometry" />
        </mxCell>
        <mxCell id="HmxGC194nbF6Ze_ij5kS-16" value="a = First number&lt;br&gt;n - number of terms&lt;br&gt;d = common difference" style="text;html=1;align=left;verticalAlign=middle;resizable=0;points=[];autosize=1;strokeColor=none;fillColor=none;" parent="HmxGC194nbF6Ze_ij5kS-6" vertex="1">
          <mxGeometry x="13.5" y="234" width="140" height="55" as="geometry" />
        </mxCell>
        <mxCell id="HmxGC194nbF6Ze_ij5kS-17" style="edgeStyle=orthogonalEdgeStyle;rounded=0;orthogonalLoop=1;jettySize=auto;html=1;entryX=0;entryY=0.5;entryDx=0;entryDy=0;" parent="1" source="HmxGC194nbF6Ze_ij5kS-3" target="HmxGC194nbF6Ze_ij5kS-6" edge="1">
          <mxGeometry relative="1" as="geometry" />
        </mxCell>
        <mxCell id="HmxGC194nbF6Ze_ij5kS-18" value="Geometric Progression" style="swimlane;whiteSpace=wrap;html=1;fillColor=#b1ddf0;strokeColor=#10739e;" parent="1" vertex="1">
          <mxGeometry x="839" y="-1111" width="254" height="155" as="geometry" />
        </mxCell>
        <mxCell id="HmxGC194nbF6Ze_ij5kS-19" value="" style="group" parent="HmxGC194nbF6Ze_ij5kS-18" vertex="1" connectable="0">
          <mxGeometry x="11" y="37" width="133" height="54.00305084228512" as="geometry" />
        </mxCell>
        <mxCell id="HmxGC194nbF6Ze_ij5kS-20" value="" style="shape=image;verticalLabelPosition=bottom;labelBackgroundColor=default;verticalAlign=top;aspect=fixed;imageAspect=0;image=data:image/svg+xml,PHN2ZyB4bWxuczp4bGluaz0iaHR0cDovL3d3dy53My5vcmcvMTk5OS94bGluayIgeG1sbnM9Imh0dHA6Ly93d3cudzMub3JnLzIwMDAvc3ZnIiB2aWV3Qm94PSItLjIzOTA1MSAtLjIyNzIwNyA4Ny4yNDA2MjcgMjcuNTI0NzIiIGhlaWdodD0iMjcuNTI0NzJwdCIgd2lkdGg9Ijg3LjI0MDYyN3B0IiB2ZXJzaW9uPSIxLjEiPiYjeGE7PGRlZnM+JiN4YTs8cGF0aCBkPSJNNy44Nzg0NTYtMi43NDk2ODlDOC4wODE2OTQtMi43NDk2ODkgOC4yOTY4ODctMi43NDk2ODkgOC4yOTY4ODctMi45ODg3OTJTOC4wODE2OTQtMy4yMjc4OTUgNy44Nzg0NTYtMy4yMjc4OTVIMS40MTA3MUMxLjIwNzQ3Mi0zLjIyNzg5NSAuOTkyMjc5LTMuMjI3ODk1IC45OTIyNzktMi45ODg3OTJTMS4yMDc0NzItMi43NDk2ODkgMS40MTA3MS0yLjc0OTY4OUg3Ljg3ODQ1NloiIGlkPSJnMC0wIi8+JiN4YTs8cGF0aCBkPSJNMS41OTQwMjItMS4zMDcwOThDMS42MTc5MzMtMS40MjY2NSAxLjY5NzYzNC0xLjcyOTUxNCAxLjcyMTU0NC0xLjg0OTA2NkMxLjgzMzEyNi0yLjI3OTQ1MiAxLjgzMzEyNi0yLjI4NzQyMiAyLjAxNjQzOC0yLjU1MDQzNkMyLjI3OTQ1Mi0yLjk0MDk3MSAyLjY1NDA0Ny0zLjI5MTY1NiAzLjE4ODA0NS0zLjI5MTY1NkMzLjQ3NDk2OS0zLjI5MTY1NiAzLjY0MjM0MS0zLjEyNDI4NCAzLjY0MjM0MS0yLjc0OTY4OUMzLjY0MjM0MS0yLjMxMTMzMyAzLjMwNzU5Ny0xLjQwMjc0IDMuMTU2MTY0LTEuMDEyMjA0QzMuMDUyNTUzLS43NDkxOTEgMy4wNTI1NTMtLjcwMTM3IDMuMDUyNTUzLS41OTc3NThDMy4wNTI1NTMtLjE0MzQ2MiAzLjQyNzE0OCAuMDc5NzAxIDMuNzY5ODYzIC4wNzk3MDFDNC41NTA5MzQgLjA3OTcwMSA0Ljg3NzcwOS0xLjAzNjExNSA0Ljg3NzcwOS0xLjEzOTcyNkM0Ljg3NzcwOS0xLjIxOTQyNyA0LjgxMzk0OC0xLjI0MzMzNyA0Ljc1ODE1Ny0xLjI0MzMzN0M0LjY2MjUxNi0xLjI0MzMzNyA0LjY0NjU3NS0xLjE4NzU0NyA0LjYyMjY2NS0xLjEwNzg0NkM0LjQzMTM4Mi0uNDU0Mjk2IDQuMDk2NjM4LS4xNDM0NjIgMy43OTM3NzMtLjE0MzQ2MkMzLjY2NjI1Mi0uMTQzNDYyIDMuNjAyNDkxLS4yMjMxNjMgMy42MDI0OTEtLjQwNjQ3NlMzLjY2NjI1Mi0uNzY1MTMxIDMuNzQ1OTUzLS45NjQzODRDMy44NjU1MDQtMS4yNjcyNDggNC4yMTYxODktMi4xODM4MTEgNC4yMTYxODktMi42MzAxMzdDNC4yMTYxODktMy4yMjc4OTUgMy44MDE3NDMtMy41MTQ4MTkgMy4yMjc4OTUtMy41MTQ4MTlDMi41ODIzMTYtMy41MTQ4MTkgMi4xNjc4Ny0zLjEyNDI4NCAxLjkzNjczNy0yLjgyMTQyQzEuODgwOTQ2LTMuMjU5Nzc2IDEuNTMwMjYyLTMuNTE0ODE5IDEuMTIzNzg2LTMuNTE0ODE5Qy44MzY4NjItMy41MTQ4MTkgLjYzNzYwOS0zLjMzMTUwNyAuNTEwMDg3LTMuMDg0NDMzQy4zMTg4MDQtMi43MDk4MzggLjIzOTEwMy0yLjMxMTMzMyAuMjM5MTAzLTIuMjk1MzkyQy4yMzkxMDMtMi4yMjM2NjEgLjI5NDg5NC0yLjE5MTc4MSAuMzU4NjU1LTIuMTkxNzgxQy40NjIyNjctMi4xOTE3ODEgLjQ3MDIzNy0yLjIyMzY2MSAuNTI2MDI3LTIuNDMwODg0Qy42MjE2NjktMi44MjE0MiAuNzY1MTMxLTMuMjkxNjU2IDEuMDk5ODc1LTMuMjkxNjU2QzEuMzA3MDk4LTMuMjkxNjU2IDEuMzU0OTE5LTMuMDkyNDAzIDEuMzU0OTE5LTIuOTE3MDYxQzEuMzU0OTE5LTIuNzczNTk5IDEuMzE1MDY4LTIuNjIyMTY3IDEuMjUxMzA4LTIuMzU5MTUzQzEuMjM1MzY3LTIuMjk1MzkyIDEuMTE1ODE2LTEuODI1MTU2IDEuMDgzOTM1LTEuNzEzNTc0TC43ODkwNDEtLjUxODA1N0MuNzU3MTYxLS4zOTg1MDYgLjcwOTM0LS4xOTkyNTMgLjcwOTM0LS4xNjczNzJDLjcwOTM0IC4wMTU5NCAuODYwNzcyIC4wNzk3MDEgLjk2NDM4NCAuMDc5NzAxQzEuMTA3ODQ2IC4wNzk3MDEgMS4yMjczOTctLjAxNTk0IDEuMjgzMTg4LS4xMTE1ODJDMS4zMDcwOTgtLjE1OTQwMiAxLjM3MDg1OS0uNDMwMzg2IDEuNDEwNzEtLjU5Nzc1OEwxLjU5NDAyMi0xLjMwNzA5OFoiIGlkPSJnMS0xMTAiLz4mI3hhOzxwYXRoIGQ9Ik0zLjQ0MzA4OC03LjY2MzI2M0MzLjQ0MzA4OC03LjkzODIzMiAzLjQ0MzA4OC03Ljk1MDE4NyAzLjIwMzk4NS03Ljk1MDE4N0MyLjkxNzA2MS03LjYyNzM5NyAyLjMxOTMwMy03LjE4NTA1NiAxLjA4NzkyLTcuMTg1MDU2Vi02LjgzODM1NkMxLjM2Mjg4OS02LjgzODM1NiAxLjk2MDY0OC02LjgzODM1NiAyLjYxODE4Mi03LjE0OTE5MVYtLjkyMDU0OEMyLjYxODE4Mi0uNDkwMTYyIDIuNTgyMzE2LS4zNDY3IDEuNTMwMjYyLS4zNDY3SDEuMTU5NjUxVjBDMS40ODI0NDEtLjAyMzkxIDIuNjQyMDkyLS4wMjM5MSAzLjAzNjYxMy0uMDIzOTFTNC41Nzg4MjktLjAyMzkxIDQuOTAxNjE5IDBWLS4zNDY3SDQuNTMxMDA5QzMuNDc4OTU0LS4zNDY3IDMuNDQzMDg4LS40OTAxNjIgMy40NDMwODgtLjkyMDU0OFYtNy42NjMyNjNaIiBpZD0iZzMtNDkiLz4mI3hhOzxwYXRoIGQ9Ik04LjA2OTczOC0zLjg3MzQ3NEM4LjIzNzExMS0zLjg3MzQ3NCA4LjQ1MjMwNC0zLjg3MzQ3NCA4LjQ1MjMwNC00LjA4ODY2N0M4LjQ1MjMwNC00LjMxNTgxNiA4LjI0OTA2Ni00LjMxNTgxNiA4LjA2OTczOC00LjMxNTgxNkgxLjAyODE0NEMuODYwNzcyLTQuMzE1ODE2IC42NDU1NzktNC4zMTU4MTYgLjY0NTU3OS00LjEwMDYyM0MuNjQ1NTc5LTMuODczNDc0IC44NDg4MTctMy44NzM0NzQgMS4wMjgxNDQtMy44NzM0NzRIOC4wNjk3MzhaTTguMDY5NzM4LTEuNjQ5ODEzQzguMjM3MTExLTEuNjQ5ODEzIDguNDUyMzA0LTEuNjQ5ODEzIDguNDUyMzA0LTEuODY1MDA2QzguNDUyMzA0LTIuMDkyMTU0IDguMjQ5MDY2LTIuMDkyMTU0IDguMDY5NzM4LTIuMDkyMTU0SDEuMDI4MTQ0Qy44NjA3NzItMi4wOTIxNTQgLjY0NTU3OS0yLjA5MjE1NCAuNjQ1NTc5LTEuODc2OTYxQy42NDU1NzktMS42NDk4MTMgLjg0ODgxNy0xLjY0OTgxMyAxLjAyODE0NC0xLjY0OTgxM0g4LjA2OTczOFoiIGlkPSJnMy02MSIvPiYjeGE7PHBhdGggZD0iTTMuNTk4NTA2LTEuNDIyNjY1QzMuNTM4NzMtMS4yMTk0MjcgMy41Mzg3My0xLjE5NTUxNyAzLjM3MTM1Ny0uOTY4MzY5QzMuMTA4MzQ0LS42MzM2MjQgMi41ODIzMTYtLjExOTU1MiAyLjAyMDQyMy0uMTE5NTUyQzEuNTMwMjYyLS4xMTk1NTIgMS4yNTUyOTMtLjU2MTg5MyAxLjI1NTI5My0xLjI2NzI0OEMxLjI1NTI5My0xLjkyNDc4MiAxLjYyNTkwMy0zLjI2Mzc2MSAxLjg1MzA1MS0zLjc2NTg3OEMyLjI1OTUyNy00LjYwMjc0IDIuODIxNDItNS4wMzMxMjYgMy4yODc2NzEtNS4wMzMxMjZDNC4wNzY3MTItNS4wMzMxMjYgNC4yMzIxMy00LjA1MjgwMiA0LjIzMjEzLTMuOTU3MTYxQzQuMjMyMTMtMy45NDUyMDUgNC4xOTYyNjQtMy43ODk3ODggNC4xODQzMDktMy43NjU4NzhMMy41OTg1MDYtMS40MjI2NjVaTTQuMzYzNjM2LTQuNDgzMTg4QzQuMjMyMTMtNC43OTQwMjIgMy45MDkzNC01LjI3MjIyOSAzLjI4NzY3MS01LjI3MjIyOUMxLjkzNjczNy01LjI3MjIyOSAuNDc4MjA3LTMuNTI2Nzc1IC40NzgyMDctMS43NTc0MUMuNDc4MjA3LS41NzM4NDggMS4xNzE2MDYgLjExOTU1MiAxLjk4NDU1OCAuMTE5NTUyQzIuNjQyMDkyIC4xMTk1NTIgMy4yMDM5ODUtLjM5NDUyMSAzLjUzODczLS43ODkwNDFDMy42NTgyODEtLjA4MzY4NiA0LjIyMDE3NCAuMTE5NTUyIDQuNTc4ODI5IC4xMTk1NTJTNS4yMjQ0MDgtLjA5NTY0MSA1LjQzOTYwMS0uNTI2MDI3QzUuNjMwODg0LS45MzI1MDMgNS43OTgyNTctMS42NjE3NjggNS43OTgyNTctMS43MDk1ODlDNS43OTgyNTctMS43NjkzNjUgNS43NTA0MzYtMS44MTcxODYgNS42Nzg3MDUtMS44MTcxODZDNS41NzExMDgtMS44MTcxODYgNS41NTkxNTMtMS43NTc0MSA1LjUxMTMzMy0xLjU3ODA4MkM1LjMzMjAwNS0uODcyNzI3IDUuMTA0ODU3LS4xMTk1NTIgNC42MTQ2OTUtLjExOTU1MkM0LjI2Nzk5NS0uMTE5NTUyIDQuMjQ0MDg1LS40MzAzODYgNC4yNDQwODUtLjY2OTQ4OUM0LjI0NDA4NS0uOTQ0NDU4IDQuMjc5OTUtMS4wNzU5NjUgNC4zODc1NDctMS41NDIyMTdDNC40NzEyMzMtMS44NDEwOTYgNC41MzEwMDktMi4xMDQxMSA0LjYyNjY1LTIuNDUwODA5QzUuMDY4OTkxLTQuMjQ0MDg1IDUuMTc2NTg4LTQuNjc0NDcxIDUuMTc2NTg4LTQuNzQ2MjAyQzUuMTc2NTg4LTQuOTEzNTc0IDUuMDQ1MDgxLTUuMDQ1MDgxIDQuODY1NzUzLTUuMDQ1MDgxQzQuNDgzMTg4LTUuMDQ1MDgxIDQuMzg3NTQ3LTQuNjI2NjUgNC4zNjM2MzYtNC40ODMxODhaIiBpZD0iZzItOTciLz4mI3hhOzxwYXRoIGQ9Ik0yLjQ2Mjc2NS0zLjUwMjg2NEMyLjQ4NjY3NS0zLjU3NDU5NSAyLjc4NTU1NC00LjE3MjM1NCAzLjIyNzg5NS00LjU1NDkxOUMzLjUzODczLTQuODQxODQzIDMuOTQ1MjA1LTUuMDMzMTI2IDQuNDExNDU3LTUuMDMzMTI2QzQuODg5NjY0LTUuMDMzMTI2IDUuMDU3MDM2LTQuNjc0NDcxIDUuMDU3MDM2LTQuMTk2MjY0QzUuMDU3MDM2LTQuMTI0NTMzIDUuMDU3MDM2LTMuODg1NDMgNC45MTM1NzQtMy4zMjM1MzdMNC42MTQ2OTUtMi4wOTIxNTRDNC41MTkwNTQtMS43MzM0OTkgNC4yOTE5MDUtLjg0ODgxNyA0LjI2Nzk5NS0uNzE3MzFDNC4yMjAxNzQtLjUzNzk4MyA0LjE0ODQ0My0uMjI3MTQ4IDQuMTQ4NDQzLS4xNzkzMjhDNC4xNDg0NDMtLjAxMTk1NSA0LjI3OTk1IC4xMTk1NTIgNC40NTkyNzggLjExOTU1MkM0LjgxNzkzMyAuMTE5NTUyIDQuODc3NzA5LS4xNTU0MTcgNC45ODUzMDUtLjU4NTgwM0w1LjcwMjYxNS0zLjQ0MzA4OEM1LjcyNjUyNi0zLjUzODczIDYuMzQ4MTk0LTUuMDMzMTI2IDcuNjYzMjYzLTUuMDMzMTI2QzguMTQxNDY5LTUuMDMzMTI2IDguMzA4ODQyLTQuNjc0NDcxIDguMzA4ODQyLTQuMTk2MjY0QzguMzA4ODQyLTMuNTI2Nzc1IDcuODQyNTktMi4yMjM2NjEgNy41Nzk1NzctMS41MDYzNTFDNy40NzE5OC0xLjIxOTQyNyA3LjQxMjIwNC0xLjA2NDAxIDcuNDEyMjA0LS44NDg4MTdDNy40MTIyMDQtLjMxMDgzNCA3Ljc4MjgxNCAuMTE5NTUyIDguMzU2NjYzIC4xMTk1NTJDOS40Njg0OTMgLjExOTU1MiA5Ljg4NjkyNC0xLjYzNzg1OCA5Ljg4NjkyNC0xLjcwOTU4OUM5Ljg4NjkyNC0xLjc2OTM2NSA5LjgzOTEwMy0xLjgxNzE4NiA5Ljc2NzM3Mi0xLjgxNzE4NkM5LjY1OTc3Ni0xLjgxNzE4NiA5LjY0NzgyMS0xLjc4MTMyIDkuNTg4MDQ1LTEuNTc4MDgyQzkuMzEzMDc2LS42MjE2NjkgOC44NzA3MzUtLjExOTU1MiA4LjM5MjUyOC0uMTE5NTUyQzguMjcyOTc2LS4xMTk1NTIgOC4wODE2OTQtLjEzMTUwNyA4LjA4MTY5NC0uNTE0MDcyQzguMDgxNjk0LS44MjQ5MDcgOC4yMjUxNTYtMS4yMDc0NzIgOC4yNzI5NzYtMS4zMzg5NzlDOC40ODgxNjktMS45MTI4MjcgOS4wMjYxNTItMy4zMjM1MzcgOS4wMjYxNTItNC4wMTY5MzZDOS4wMjYxNTItNC43MzQyNDcgOC42MDc3MjEtNS4yNzIyMjkgNy42OTkxMjgtNS4yNzIyMjlDNi44OTgxMzItNS4yNzIyMjkgNi4yNTI1NTMtNC44MTc5MzMgNS43NzQzNDYtNC4xMTI1NzhDNS43Mzg0ODEtNC43NTgxNTcgNS4zNDM5Ni01LjI3MjIyOSA0LjQ0NzMyMy01LjI3MjIyOUMzLjM4MzMxMy01LjI3MjIyOSAyLjgyMTQyLTQuNTE5MDU0IDIuNjA2MjI3LTQuMjIwMTc0QzIuNTcwMzYxLTQuOTAxNjE5IDIuMDgwMTk5LTUuMjcyMjI5IDEuNTU0MTcyLTUuMjcyMjI5QzEuMjA3NDcyLTUuMjcyMjI5IC45MzI1MDMtNS4xMDQ4NTcgLjcwNTM1NS00LjY1MDU2Qy40OTAxNjItNC4yMjAxNzQgLjMyMjc5LTMuNDkwOTA5IC4zMjI3OS0zLjQ0MzA4OFMuMzcwNjEtMy4zMzU0OTIgLjQ1NDI5Ni0zLjMzNTQ5MkMuNTQ5OTM4LTMuMzM1NDkyIC41NjE4OTMtMy4zNDc0NDcgLjYzMzYyNC0zLjYyMjQxNkMuODEyOTUxLTQuMzI3NzcxIDEuMDQwMS01LjAzMzEyNiAxLjUxODMwNi01LjAzMzEyNkMxLjc5MzI3NS01LjAzMzEyNiAxLjg4ODkxNy00Ljg0MTg0MyAxLjg4ODkxNy00LjQ4MzE4OEMxLjg4ODkxNy00LjIyMDE3NCAxLjc2OTM2NS0zLjc1MzkyMyAxLjY4NTY3OS0zLjM4MzMxM0wxLjM1MDkzNC0yLjA5MjE1NEMxLjMwMzExMy0xLjg2NTAwNiAxLjE3MTYwNi0xLjMyNzAyNCAxLjExMTgzMS0xLjExMTgzMUMxLjAyODE0NC0uODAwOTk2IC44OTY2MzgtLjIzOTEwMyAuODk2NjM4LS4xNzkzMjhDLjg5NjYzOC0uMDExOTU1IDEuMDI4MTQ0IC4xMTk1NTIgMS4yMDc0NzIgLjExOTU1MkMxLjM1MDkzNCAuMTE5NTUyIDEuNTE4MzA2IC4wNDc4MjEgMS42MTM5NDgtLjEzMTUwN0MxLjYzNzg1OC0uMTkxMjgzIDEuNzQ1NDU1LS42MDk3MTQgMS44MDUyMy0uODQ4ODE3TDIuMDY4MjQ0LTEuOTI0NzgyTDIuNDYyNzY1LTMuNTAyODY0WiIgaWQ9ImcyLTEwOSIvPiYjeGE7PHBhdGggZD0iTTQuNjUwNTYtNC44ODk2NjRDNC4yNzk5NS00LjgxNzkzMyA0LjA4ODY2Ny00LjU1NDkxOSA0LjA4ODY2Ny00LjI5MTkwNUM0LjA4ODY2Ny00LjAwNDk4MSA0LjMxNTgxNi0zLjkwOTM0IDQuNDgzMTg4LTMuOTA5MzRDNC44MTc5MzMtMy45MDkzNCA1LjA5MjkwMi00LjE5NjI2NCA1LjA5MjkwMi00LjU1NDkxOUM1LjA5MjkwMi00LjkzNzQ4NCA0LjcyMjI5MS01LjI3MjIyOSA0LjEyNDUzMy01LjI3MjIyOUMzLjY0NjMyNi01LjI3MjIyOSAzLjA5NjM4OS01LjA1NzAzNiAyLjU5NDI3MS00LjMyNzc3MUMyLjUxMDU4NS00Ljk2MTM5NSAyLjAzMjM3OS01LjI3MjIyOSAxLjU1NDE3Mi01LjI3MjIyOUMxLjA4NzkyLTUuMjcyMjI5IC44NDg4MTctNC45MTM1NzQgLjcwNTM1NS00LjY1MDU2Qy41MDIxMTctNC4yMjAxNzQgLjMyMjc5LTMuNTAyODY0IC4zMjI3OS0zLjQ0MzA4OEMuMzIyNzktMy4zOTUyNjggLjM3MDYxLTMuMzM1NDkyIC40NTQyOTYtMy4zMzU0OTJDLjU0OTkzOC0zLjMzNTQ5MiAuNTYxODkzLTMuMzQ3NDQ3IC42MzM2MjQtMy42MjI0MTZDLjgxMjk1MS00LjMzOTcyNiAxLjA0MDEtNS4wMzMxMjYgMS41MTgzMDYtNS4wMzMxMjZDMS44MDUyMy01LjAzMzEyNiAxLjg4ODkxNy00LjgyOTg4OCAxLjg4ODkxNy00LjQ4MzE4OEMxLjg4ODkxNy00LjIyMDE3NCAxLjc2OTM2NS0zLjc1MzkyMyAxLjY4NTY3OS0zLjM4MzMxM0wxLjM1MDkzNC0yLjA5MjE1NEMxLjMwMzExMy0xLjg2NTAwNiAxLjE3MTYwNi0xLjMyNzAyNCAxLjExMTgzMS0xLjExMTgzMUMxLjAyODE0NC0uODAwOTk2IC44OTY2MzgtLjIzOTEwMyAuODk2NjM4LS4xNzkzMjhDLjg5NjYzOC0uMDExOTU1IDEuMDI4MTQ0IC4xMTk1NTIgMS4yMDc0NzIgLjExOTU1MkMxLjMzODk3OSAuMTE5NTUyIDEuNTY2MTI3IC4wMzU4NjYgMS42Mzc4NTgtLjIwMzIzOEMxLjY3MzcyNC0uMjk4ODc5IDIuMTE2MDY1LTIuMTA0MTEgMi4xODc3OTYtMi4zNzkwNzhDMi4yNDc1NzItMi42NDIwOTIgMi4zMTkzMDMtMi44OTMxNTEgMi4zNzkwNzgtMy4xNTYxNjRDMi40MjY4OTktMy4zMjM1MzcgMi40NzQ3Mi0zLjUxNDgxOSAyLjUxMDU4NS0zLjY3MDIzN0MyLjU0NjQ1MS0zLjc3NzgzMyAyLjg2OTI0LTQuMzYzNjM2IDMuMTY4MTItNC42MjY2NUMzLjMxMTU4Mi00Ljc1ODE1NyAzLjYyMjQxNi01LjAzMzEyNiA0LjExMjU3OC01LjAzMzEyNkM0LjMwMzg2MS01LjAzMzEyNiA0LjQ5NTE0My00Ljk5NzI2IDQuNjUwNTYtNC44ODk2NjRaIiBpZD0iZzItMTE0Ii8+JiN4YTs8cGF0aCBkPSJNMi43MjU3NzgtMi4zOTEwMzRDMi45MjkwMTYtMi4zNTUxNjggMy4yNTE4MDYtMi4yODM0MzcgMy4zMjM1MzctMi4yNzE0ODJDMy40Nzg5NTQtMi4yMjM2NjEgNC4wMTY5MzYtMi4wMzIzNzkgNC4wMTY5MzYtMS40NTg1MzFDNC4wMTY5MzYtMS4wODc5MiAzLjY4MjE5Mi0uMTE5NTUyIDIuMjk1MzkyLS4xMTk1NTJDMi4wNDQzMzQtLjExOTU1MiAxLjE0NzY5Ni0uMTU1NDE3IC45MDg1OTMtLjgxMjk1MUMxLjM4NjgtLjc1MzE3NiAxLjYyNTkwMy0xLjEyMzc4NiAxLjYyNTkwMy0xLjM4NjhDMS42MjU5MDMtMS42Mzc4NTggMS40NTg1MzEtMS43NjkzNjUgMS4yMTk0MjctMS43NjkzNjVDLjk1NjQxMy0xLjc2OTM2NSAuNjA5NzE0LTEuNTY2MTI3IC42MDk3MTQtMS4wMjgxNDRDLjYwOTcxNC0uMzIyNzkgMS4zMjcwMjQgLjExOTU1MiAyLjI4MzQzNyAuMTE5NTUyQzQuMTAwNjIzIC4xMTk1NTIgNC42Mzg2MDUtMS4yMTk0MjcgNC42Mzg2MDUtMS44NDEwOTZDNC42Mzg2MDUtMi4wMjA0MjMgNC42Mzg2MDUtMi4zNTUxNjggNC4yNTYwNC0yLjczNzczM0MzLjk1NzE2MS0zLjAyNDY1OCAzLjY3MDIzNy0zLjA4NDQzMyAzLjAyNDY1OC0zLjIxNTk0QzIuNzAxODY4LTMuMjg3NjcxIDIuMTg3Nzk2LTMuMzk1MjY4IDIuMTg3Nzk2LTMuOTMzMjVDMi4xODc3OTYtNC4xNzIzNTQgMi40MDI5ODktNS4wMzMxMjYgMy41Mzg3My01LjAzMzEyNkM0LjA0MDg0Ny01LjAzMzEyNiA0LjUzMTAwOS00Ljg0MTg0MyA0LjY1MDU2LTQuNDExNDU3QzQuMTI0NTMzLTQuNDExNDU3IDQuMTAwNjIzLTMuOTU3MTYxIDQuMTAwNjIzLTMuOTQ1MjA1QzQuMTAwNjIzLTMuNjk0MTQ3IDQuMzI3NzcxLTMuNjIyNDE2IDQuNDM1MzY3LTMuNjIyNDE2QzQuNjAyNzQtMy42MjI0MTYgNC45Mzc0ODQtMy43NTM5MjMgNC45Mzc0ODQtNC4yNTYwNFM0LjQ4MzE4OC01LjI3MjIyOSAzLjU1MDY4NS01LjI3MjIyOUMxLjk4NDU1OC01LjI3MjIyOSAxLjU2NjEyNy00LjA0MDg0NyAxLjU2NjEyNy0zLjU1MDY4NUMxLjU2NjEyNy0yLjY0MjA5MiAyLjQ1MDgwOS0yLjQ1MDgwOSAyLjcyNTc3OC0yLjM5MTAzNFoiIGlkPSJnMi0xMTUiLz4mI3hhOzxwYXRoIGQ9Ik00LjA3NjcxMi0uNjkzNEM0LjIzMjEzLS4wMjM5MSA0LjgwNTk3OCAuMTE5NTUyIDUuMDkyOTAyIC4xMTk1NTJDNS40NzU0NjcgLjExOTU1MiA1Ljc2MjM5MS0uMTMxNTA3IDUuOTUzNjc0LS41Mzc5ODNDNi4xNTY5MTItLjk2ODM2OSA2LjMxMjMyOS0xLjY3MzcyNCA2LjMxMjMyOS0xLjcwOTU4OUM2LjMxMjMyOS0xLjc2OTM2NSA2LjI2NDUwOC0xLjgxNzE4NiA2LjE5Mjc3Ny0xLjgxNzE4NkM2LjA4NTE4MS0xLjgxNzE4NiA2LjA3MzIyNS0xLjc1NzQxIDYuMDI1NDA1LTEuNTc4MDgyQzUuODEwMjEyLS43NTMxNzYgNS41OTUwMTktLjExOTU1MiA1LjExNjgxMi0uMTE5NTUyQzQuNzU4MTU3LS4xMTk1NTIgNC43NTgxNTctLjUxNDA3MiA0Ljc1ODE1Ny0uNjY5NDg5QzQuNzU4MTU3LS45NDQ0NTggNC43OTQwMjItMS4wNjQwMSA0LjkxMzU3NC0xLjU2NjEyN0M0Ljk5NzI2LTEuODg4OTE3IDUuMDgwOTQ2LTIuMjExNzA2IDUuMTUyNjc3LTIuNTQ2NDUxTDUuNjQyODM5LTQuNDk1MTQzQzUuNzI2NTI2LTQuNzk0MDIyIDUuNzI2NTI2LTQuODE3OTMzIDUuNzI2NTI2LTQuODUzNzk4QzUuNzI2NTI2LTUuMDMzMTI2IDUuNTgzMDY0LTUuMTUyNjc3IDUuNDAzNzM2LTUuMTUyNjc3QzUuMDU3MDM2LTUuMTUyNjc3IDQuOTczMzUtNC44NTM3OTggNC45MDE2MTktNC41NTQ5MTlDNC43ODIwNjctNC4wODg2NjcgNC4xMzY0ODgtMS41MTgzMDYgNC4wNTI4MDItMS4wOTk4NzVDNC4wNDA4NDctMS4wOTk4NzUgMy41NzQ1OTUtLjExOTU1MiAyLjcwMTg2OC0uMTE5NTUyQzIuMDgwMTk5LS4xMTk1NTIgMS45NjA2NDgtLjY1NzUzNCAxLjk2MDY0OC0xLjA5OTg3NUMxLjk2MDY0OC0xLjc4MTMyIDIuMjk1MzkyLTIuNzM3NzMzIDIuNjA2MjI3LTMuNTM4NzNDMi43NDk2ODktMy45MjEyOTUgMi44MDk0NjUtNC4wNzY3MTIgMi44MDk0NjUtNC4zMTU4MTZDMi44MDk0NjUtNC44Mjk4ODggMi40Mzg4NTQtNS4yNzIyMjkgMS44NjUwMDYtNS4yNzIyMjlDLjc2NTEzMS01LjI3MjIyOSAuMzIyNzktMy41Mzg3MyAuMzIyNzktMy40NDMwODhDLjMyMjc5LTMuMzk1MjY4IC4zNzA2MS0zLjMzNTQ5MiAuNDU0Mjk2LTMuMzM1NDkyQy41NjE4OTMtMy4zMzU0OTIgLjU3Mzg0OC0zLjM4MzMxMyAuNjIxNjY5LTMuNTUwNjg1Qy45MDg1OTMtNC41Nzg4MjkgMS4zNzQ4NDQtNS4wMzMxMjYgMS44MjkxNDEtNS4wMzMxMjZDMS45NDg2OTItNS4wMzMxMjYgMi4xMzk5NzUtNS4wMjExNzEgMi4xMzk5NzUtNC42Mzg2MDVDMi4xMzk5NzUtNC4zMjc3NzEgMi4wMDg0NjgtMy45ODEwNzEgMS44MjkxNDEtMy41MjY3NzVDMS4zMDMxMTMtMi4xMDQxMSAxLjI0MzMzNy0xLjY0OTgxMyAxLjI0MzMzNy0xLjI5MTE1OEMxLjI0MzMzNy0uMDcxNzMxIDIuMTYzODg1IC4xMTk1NTIgMi42NTQwNDcgLjExOTU1MkMzLjQxOTE3OCAuMTE5NTUyIDMuODM3NjA5LS40MDY0NzYgNC4wNzY3MTItLjY5MzRaIiBpZD0iZzItMTE3Ii8+JiN4YTs8L2RlZnM+JiN4YTs8ZyB0cmFuc2Zvcm09Im1hdHJpeCgxLjEzIDAgMCAxLjEzIC02My45ODYwNDMgLTYwLjgxNTYzOCkiIGlkPSJwYWdlMSI+JiN4YTs8dXNlIHhsaW5rOmhyZWY9IiNnMi0xMTUiIHk9IjY5LjY1NjAyNiIgeD0iNTYuNDEzMjY3Ii8+JiN4YTs8dXNlIHhsaW5rOmhyZWY9IiNnMi0xMTciIHk9IjY5LjY1NjAyNiIgeD0iNjEuOTI3MjczIi8+JiN4YTs8dXNlIHhsaW5rOmhyZWY9IiNnMi0xMDkiIHk9IjY5LjY1NjAyNiIgeD0iNjguNTg5NzEyIi8+JiN4YTs8dXNlIHhsaW5rOmhyZWY9IiNnMy02MSIgeT0iNjkuNjU2MDI2IiB4PSI4Mi4xNDk4MDkiLz4mI3hhOzx1c2UgeGxpbms6aHJlZj0iI2cyLTk3IiB5PSI2OS42NTYwMjYiIHg9Ijk0LjU3NTI5Ii8+JiN4YTs8dXNlIHhsaW5rOmhyZWY9IiNnMi0xMTQiIHk9IjYxLjU2ODI2OCIgeD0iMTAxLjkxNTc0OCIvPiYjeGE7PHVzZSB4bGluazpocmVmPSIjZzEtMTEwIiB5PSI1Ny4yMjk4MzEiIHg9IjEwNy41MTYyMjEiLz4mI3hhOzx1c2UgeGxpbms6aHJlZj0iI2cwLTAiIHk9IjYxLjU2ODI2OCIgeD0iMTE1LjgwOTIxOSIvPiYjeGE7PHVzZSB4bGluazpocmVmPSIjZzMtNDkiIHk9IjYxLjU2ODI2OCIgeD0iMTI3Ljc2NDM4Ii8+JiN4YTs8cmVjdCB3aWR0aD0iMzEuNzAxNjE1IiBoZWlnaHQ9Ii40NzgxODciIHk9IjY2LjQyODE0MSIgeD0iMTAxLjkxNTc0OCIvPiYjeGE7PHVzZSB4bGluazpocmVmPSIjZzItMTE0IiB5PSI3Ny44NTY2ODkiIHg9IjEwNC43MzM5MTUiLz4mI3hhOzx1c2UgeGxpbms6aHJlZj0iI2cwLTAiIHk9Ijc3Ljg1NjY4OSIgeD0iMTEyLjk5MTA1MiIvPiYjeGE7PHVzZSB4bGluazpocmVmPSIjZzMtNDkiIHk9Ijc3Ljg1NjY4OSIgeD0iMTI0Ljk0NjIxMiIvPiYjeGE7PC9nPiYjeGE7PC9zdmc+;" parent="HmxGC194nbF6Ze_ij5kS-19" vertex="1">
          <mxGeometry x="3.00407287597659" y="26.00305084228512" width="87" height="28" as="geometry" />
        </mxCell>
        <mxCell id="HmxGC194nbF6Ze_ij5kS-21" value="Sum of n terms in GP" style="text;html=1;align=left;verticalAlign=middle;resizable=0;points=[];autosize=1;strokeColor=none;fillColor=none;" parent="HmxGC194nbF6Ze_ij5kS-19" vertex="1">
          <mxGeometry width="133" height="26" as="geometry" />
        </mxCell>
        <mxCell id="HmxGC194nbF6Ze_ij5kS-22" value="a = first term&lt;br&gt;r = common ratio = a2 / a1&lt;br&gt;n = number of terms" style="text;html=1;align=left;verticalAlign=middle;resizable=0;points=[];autosize=1;strokeColor=none;fillColor=none;" parent="HmxGC194nbF6Ze_ij5kS-18" vertex="1">
          <mxGeometry x="13.5" y="97" width="159" height="55" as="geometry" />
        </mxCell>
        <mxCell id="HmxGC194nbF6Ze_ij5kS-23" style="edgeStyle=orthogonalEdgeStyle;rounded=0;orthogonalLoop=1;jettySize=auto;html=1;entryX=0;entryY=0.5;entryDx=0;entryDy=0;" parent="1" source="HmxGC194nbF6Ze_ij5kS-3" target="HmxGC194nbF6Ze_ij5kS-18" edge="1">
          <mxGeometry relative="1" as="geometry" />
        </mxCell>
        <mxCell id="HmxGC194nbF6Ze_ij5kS-24" value="&lt;p style=&quot;line-height: 142%;&quot;&gt;&lt;font data-font-src=&quot;https://fonts.googleapis.com/css?family=Roboto&quot; face=&quot;Roboto&quot; style=&quot;font-size: 15px;&quot;&gt;Calculating Complexity&lt;/font&gt;&lt;/p&gt;" style="rounded=1;whiteSpace=wrap;html=1;shadow=1;treeFolding=1;movable=1;resizable=1;rotatable=1;deletable=1;editable=1;locked=0;connectable=1;strokeColor=none;fillColor=#CCFFFF;" parent="1" vertex="1">
          <mxGeometry x="654" y="-810" width="129" height="50" as="geometry" />
        </mxCell>
        <mxCell id="HmxGC194nbF6Ze_ij5kS-25" style="edgeStyle=orthogonalEdgeStyle;rounded=0;orthogonalLoop=1;jettySize=auto;html=1;" parent="1" source="HmxGC194nbF6Ze_ij5kS-2" target="HmxGC194nbF6Ze_ij5kS-24" edge="1">
          <mxGeometry relative="1" as="geometry">
            <Array as="points">
              <mxPoint x="177" y="-785" />
              <mxPoint x="177" y="-785" />
            </Array>
          </mxGeometry>
        </mxCell>
        <mxCell id="8Wb1wAIqE076Lm1BmqRm-3" style="edgeStyle=orthogonalEdgeStyle;rounded=0;orthogonalLoop=1;jettySize=auto;html=1;entryX=0;entryY=0.5;entryDx=0;entryDy=0;" edge="1" parent="1" source="HmxGC194nbF6Ze_ij5kS-26" target="8Wb1wAIqE076Lm1BmqRm-1">
          <mxGeometry relative="1" as="geometry" />
        </mxCell>
        <mxCell id="HmxGC194nbF6Ze_ij5kS-26" value="Example" style="swimlane;whiteSpace=wrap;html=1;fillColor=#b1ddf0;strokeColor=#10739e;" parent="1" vertex="1">
          <mxGeometry x="882" y="-871" width="458" height="255" as="geometry" />
        </mxCell>
        <mxCell id="HmxGC194nbF6Ze_ij5kS-27" value="Given code:&lt;br&gt;for (i = 0 to N){&lt;br&gt;&lt;span style=&quot;white-space: pre;&quot;&gt; &lt;/span&gt;for(j = i to N){&lt;br&gt;&lt;span style=&quot;white-space: pre;&quot;&gt; &lt;/span&gt;&lt;span style=&quot;white-space: pre;&quot;&gt; &lt;/span&gt;...&lt;br&gt;&lt;span style=&quot;white-space: pre;&quot;&gt; &lt;/span&gt;}&lt;br&gt;}" style="text;html=1;align=left;verticalAlign=middle;resizable=0;points=[];autosize=1;strokeColor=none;fillColor=none;" parent="HmxGC194nbF6Ze_ij5kS-26" vertex="1">
          <mxGeometry x="7" y="36" width="115" height="98" as="geometry" />
        </mxCell>
        <mxCell id="HmxGC194nbF6Ze_ij5kS-28" value="" style="shape=image;verticalLabelPosition=bottom;labelBackgroundColor=default;verticalAlign=top;aspect=fixed;imageAspect=0;image=data:image/png,iVBORw0KGgoAAAANSUhEUgAAASgAAADPCAYAAABGMUyXAAAAAXNSR0IArs4c6QAAAARnQU1BAACxjwv8YQUAAAAJcEhZcwAADsMAAA7DAcdvqGQAABEGSURBVHhe7d2xWuJKGMbxj3MtsAXrFeAVgM1WtnZYSrOdJZ0NltBta2UjXIFcgWuxcC+cmWQiARNIQibMDP/fPjzngBpnDPmYGcib1kaRGv39+1d+/vxp7vnD13YfEmKf4Keqz8X/zH8BwDkUKADOokABcBYFCoCzKFAAnEWBAuAsChQAZ1GgADiLAgXAWRQoAM6iQAFwFgUKgLMoUACc1fr4+Kg1zeDq6sr8HwBsqVpj/q+42uNWWq2W1LzJRvja7kNC7BP8VPW5yBQPgLMoUACcRYEC4CwKFABnUaBgxeK+Ja37hbkHVGO9QEVP1OtnWZv7vvC13dkWct9S/cm83auvHrd+vq6t4OwXr6xt1/n78mT9jrD2u/+sF6j+dCOb9wdpm/u+8LXd2foy3aj+6NtqIj31b7Iy9zdT9VUkwtrv/mtmBGX5ldCGJl7B3bKW5+tkVKVvycgqfrwzWorMBtHXrp/N+GL9LNdf39+S8n+urG0v8n9fbhs1PUq8lufn+92vZbYxv0/fn6+Hfmf8tftFeoSq2sDwqzasQUHRB1pHRldzM6rayGryIYPoYGzLw7u+3xMZxl9/f9DjC3VQ3on8+fr+nszGZadGWdvu5/w+XTwy2rgzHVvKaCQyj76uR4Z5bczr075Df5et2WAsXTMinQ9VG57SX8UpKFBQx+GbvCyHMp9uJ3vth0cZyof8y604atqYmgq1b26lt/yUlblfOzUSGs/U1PT3XhuXL/KWauNwnp6yntjGgn+X4fxdkvrW/zUU+fhXslAjDwUKIqtPNfbY15FubymfB47maBqcTG06o4xt1E2NTjrJVErfBjIzX8lzUhsr/l1QHwoU1DHXFTXZ2bOSz2VPuh1zd9/iXjqjKzOdUrdo8d02NZpJft/XbTt6+ebUNlb5u6BWFCjouY/c9mYySC0Or5/HMuvdyk364D8wdVk8nTiCytp2+jHTxvEJK9CZbTw0HSv6d4E1FCgoetF4LkPzjpa+dV5uZfVt/WYkHfW16B2v/lTmQ3Xwmu8fdydqfFPNt21nPqbbuJLbl852yqZvhz6zdKSNWb931/G/C+wibsXYb7deu+h8PsomtUDqG1/3BcJT9bnICCrH6nMpPRYagLOiQO0zH+wbzIbymLv6CqAJTPGMEKdDTPHgiqrPRTLJATSCTPITMIIC7Kn6XGQNCoCzKFAAnEWBAuAsChQAZ1GgckTBZS19283+ccYiCWYjIA3hsl+gTk5dPJ/eZCU7kbgF+3JqGmdSHPfPD9vZbn+q2jYvdf5boe0CDrFcoBZy3xmJRAf6RjbzocwGvr7iN9uXXq8ny9FT7aM3W9sFbLBboBavMlOv8V+njPR/y8TXsK9CfcnPuk6+loy+jk4dbx/V9nejPmpha7uABVYL1Prfh3rJ7sr+Kbcf+TmyzirWl7ys62LZ1rs68vBnIr3ZuOZRmq3tAvVreJG8LT+COROmRF8qZX4r7Qd51CH8dzVfp83WdoGaNVyg1qIHImEo0ZcTsq3707kMlyO5q3m4Y2u7QJ2sFqi2HmJkXEXj6od/MSYn9eWkbOu+TOfDaGH7zTxSD1vbBepjdwTV/6WmMTN5TRZaFk8yUlOdXz6GVJbtS0aeduVs62hBfiYjvfheJ1vbBWpieYqnXqVXE/kYmHeuBh8yWaWvW+aT4n3JztM+Jdta/bxe2Db36mNru0A9iFsx9tutP9Q47q5yrjjrCn3JbX1V2+xLL/m6LxCeqs/FhhfJ/bIc6SuIuHyqy/ELVwI+YwRlhDjaYAQFVzCCAhAcMskBNIJM8hMwxQPsYYoHIDgUKADOokABcBYFCoCzKFA5yCQHzq+RAhVlXquDaT8L23XfMsmVIn0JNZPc1/0If1kuUPpcsZbciY6ZNQ95q9m+uJVJHtJ+hE8sF6i+TDc69vZo6JEHivQl1EzykPYjfMIaVK3IJAfqRIFqApnkQCUUqCZ4lEmeLIQXmoYCllGgmuBRJnn74f1rGrr/DibQNAqULWSSAyezXKDit6dbrY7oYyBOqPT1czTF+xJeJnlI+xE+IW7F2G83meRAfao+F5niHUAmOXBejKCMEEcbjKDgCkZQAIJDJjmARpBJfgKmeIA9TPEABIcCBcBZFCgAzqJAAXAWBSoHmeTA+VkvULvxHS2pOyDSpv1M8qJ9KZrxncfFTHKf9yP8ZbdArZ/lTp8Uu0lSJHsyG3iaMdRwX5zKJA9pP8IrdgtU+0HeU2fsR2f5H0uRdFWhvgSaSR7SfoRXml2DipIlr+SHywEBRWX25UIyyUPaj3BagwVKHaTjmfQmvwNIaSzZl6AyyUPaj3BdYwVqca9GEDKRP07nKxVTui8BZZKHtB/hvkYKlH73aPAxKZEg6a5KfQkkkzyk/Qg/WC5Q8cJwGE/qkn0JKpM8pP0In9gtUIunKMNavUxH+dxfUwcfP0RToi/BZZKHtB/hFeJWjP126+kMmeRAPao+Fxt8F88/ZJID58UIyghxtMEICq5gBAUgOGSSA2gEmeQnYIoH2MMUD0BwKFAAnEWBAuAsChQAZ1GgciTxuGSSA+djvUAdi+9w2eFM8vy+FMn4PiQpju5mkvu1H+EvywVqIU+pLOv50EKEbWOa7YtTmeRB7Uf4xHKB6ss0dcZ+p9vbjSHxSpG+xLEkwWWSB7Uf4ZMG16DUq7A6cHu3N19PdH/l9eUSMslD2o9wnf0C9bWYO5CZOmjdji85ompfQsgkD2k/whv2C1S0mGtGDd2xeoJ7vMBatS8hZJKHtB/hjQaneOqFO6DrqZXqSyCZ5Amui4em2C1Q62e5Ti3Grt9e/L2eWtm+hJRJHtJ+hFfsFih9YH6kcrhHIpNV9quy80r0JbhM8pD2I7xC3Iqx324yyYH6VH0uNroG5RsyyYHzYgRlhDjaYAQFVzCCAhAcMskBNIJM8hMwxQPsYYoHIDgUKADOokABcBYFCoCzKFAAnEWBAuAsChQAZ1GgADiLAgXAWRQoAM6iQAFwFgUKgLMsFyhzsUqTZx1devs6vtRRfPUQV68M4mu7gbAwggLgLOJWDOJWAHuIWwEQHAoUAGdRoAA4i0xyAI0gk/wELJID9rBIDiA4FCgAzqJAAXAWBQqAsyhQOaLz71r6VvK8u8W9+blredYn7wGozHqBSg70672jNTrp1pyM66reZCWbzVT65n6hvvSn6mfmMozvOSc+2fl7HwAXNTKC6vV6shw9BZEA4G9fFnKvCtOdPMqkZx4CHNfMFO9WHxQzGTg+YirE2770ZbrZyPtDx9wH3NfQGlRHHv5MpDcbB7AuE1JfALc1t0jefpDH4VJGd3Hwm9dC6gvgsOYKlNKfzmW4HMldAEOPkPoCuKrRAhWtg8yH0SLzm3nEXyH1BXBTwwVK6f+OFplHo6V5wGMh9QVwUPMFStrxIrO55zef+hJ/zKDV6oiup8tRh89DwXnErRj77dYfyhx3V/L+0DaPlKGLwVi6q3ep9OM18XVfIDxVn4tnGEH5Ix5lVDnVZSAzcxdAdYygjBBHG4yg4ApGUACCQyY5gEaQSX4CpniAPUzxAASHAgXAWRQoAM6iQAFwFgXqwujI3/Knt+hPxteXsV6tDWXR5hDYK1DrZ7luxRne32+pnZD1fUlaZdFtyFqer5PH9z/5bc5Buya7Sf8tnkYitzfb82+KZcb35fdE5OWtjr9g1Tbki77v28+72+akvclt++11ttmu7L95/ewVqPaDvG820VuLKxOCHV+EQD8Wn6MWdbIzkuVwbh433zsbxAWlwDYi6zd5WcZ54eqH5fX4c/oyLV5l1ruV1HEWKZKz3v5xJcuXtyNFPn6hOHh8ntCG7+IXn7ycdSfbrF50715uZZV6Xs8G2xfV2tpc2bFtH/6b1+2MUzz9qqRjSoYynybXTdF17U/c8eWLFH0hWb+9yFJt5/HPbZQsMKNCZVq8zkSufsjecVYsZ73/S4Yl9kmek9rwzZGcdRfbrF903x++ttW+0c/ZD/mXtLGmNtvTbLb9+QqUflXS/x3+Ul1Oa4t6EVGWBYe6ptDp7bRv5DauUOVe1S7CWv59qFf9btYTq0jOeke6vaV8rszdSk5tQ1ketHn1qZ7pV/Ljq/rV0eZwOLlI3umWGDuaQhc/gdpyE1coGVueG/tnJZ+qjl9tj4RdR3PW4xeOj6+X+q3tmkqcNTUbJOsr++uBp7ahLNfbrKZT45n0Jr9TL9J1tLk8m9s+hZMFaqWfEUrukyIlGn6rQXKygBkPmfUM8dg8Hvuq5qy3H97NuuAqmp4P5/H6Svqip0XltWF7ANVz0LjQ5sW9KgYykT8FQ8PqbPM+m9s+xfkKVKcbJ1F+m47FQ2pddDJH1TsWEtUnNUgedcwTQS+6Rw+5PI93lQs569lt2B5A5z9ovivfZv0u4OBjIqvUehS+O1+BiobG+n92p2Pr57toiCnDx+NplMn07uudvfgWv+NXdA3rUui1jeypw47cnPX4haPIqDbfqW0oy8U2x++S5RenOtoc/47k4w7RRyLMx2ziUd15p21lnHWK15/GxSTJx9a3jtrB0fAy9c5etnj+np7eJb6meem3gNUQvPM13L7ED8PFaxvLo6uveTnrei3m2KhW/ez7RvJ33alt2Gc+45abs+5gmxdP8QvwzvNR3b7eCayjzac4tu1jf/N6Ebdi+NruQ771SccRj7vVphX6Zwci81OnV6e0oaxLbrNjqh5fTi6Sw5ITPmMTvRnx7SMhFTT4OZ+LbnMgKFAXpeqpFPrNiJ5Mftdx2DR1OseltzkMTPGMi5jiAWdS9blIJjmARjiRSf7371/5+fOnuecPX9t9SIh9gp+qPhdZgwLgLAoUAGdRoAA4iwKFC0Cqqq8oUBcmjqqt4VSfKI75jKcMJXHQRcLiknM2b2/sfxIctaJAXRJ1UEenL36diG1OKtUH+s4JpMnjGSeVmsJw/SZypf59PuUVvArbzvEVW5IeASUnmxcIi9uP5NmhTy2J2hjfbGdsoxwK1AWJo5H1mRRZn1QuGPKnCoPOif8jL+on1IH/SydIpPLhM1UNEIyLmT6BPEv/l65Qx1IrTCRPRqZ4VJxef0UfIExykPTJr6VSh2EVBeqCxEGAGWfK93rRWfiFLgBgRlB3citD9U9e9cjjwFSv6LaTkVl6Q9HFMHoymeekBJhMsYNJA4emd/1pKjUjSWMtEK2CxlCgLkYS7pfOv07cymOUoVVgpGNGUO836kBW/7q/j42gSmx7X/S71LbzokfaP1RvlAMZ9Aend3vKJLmiGRSoS9PrStbx3nl41OOhYqMoLSkeBY7l0tsuLA6Ty3dgerdPTfcG0fdOhHN13UGBghHH1sYjnbovKZK37dRCuolq3oYX1pD6WPTdOz29jKrTUOZE8DqFAoWtKLZWF4lX+az7nO/MbcfpjdEi9SpeZ9rGN58e2FZsereQ+6g4quIUWEhcCChQl2b5KfnjoyS2diYzfWzXysa240tCZSsyvdMf4ByoFlGcXEWBuhh9id6VT1/FNkvy+SIbym7bvLO3vVKPyfFOPgew/qd6o2QlUBaY3q2fx9H36KnnIJpWmhufOHeHjlupk86X8pGv7T5kv0+rSU9H62yGc/OA7+bDqD9qWmge2JoPRX2tt8n4Es6g6vHFCOqCJFe7mb3W+17aueSvMZV49w5Oo0BdkmSKVeD0EOep6d/uaTtpfZnqhXbekfMeBerC6GsRHj81xQPR57BUX+xcHA6OqD2THADqQia5QSY5YA+Z5ACCQ4EC4CwKFABnUaAAOIsCBcBZFCgAzqJAAXAWBQqAsyhQAJxFgQLgLAoUAEeJ/A8JzBg3JbV7SgAAAABJRU5ErkJggg==;" parent="HmxGC194nbF6Ze_ij5kS-26" vertex="1">
          <mxGeometry x="143.99514123165272" y="36.00117102420711" width="296" height="207" as="geometry" />
        </mxCell>
        <mxCell id="HmxGC194nbF6Ze_ij5kS-29" style="edgeStyle=orthogonalEdgeStyle;rounded=0;orthogonalLoop=1;jettySize=auto;html=1;entryX=0;entryY=0.5;entryDx=0;entryDy=0;" parent="1" source="HmxGC194nbF6Ze_ij5kS-24" target="HmxGC194nbF6Ze_ij5kS-26" edge="1">
          <mxGeometry relative="1" as="geometry" />
        </mxCell>
        <mxCell id="HmxGC194nbF6Ze_ij5kS-30" value="NOTE" style="swimlane;whiteSpace=wrap;html=1;fillColor=#fad9d5;strokeColor=#ae4132;" parent="1" vertex="1">
          <mxGeometry x="1410" y="-876" width="200" height="123" as="geometry" />
        </mxCell>
        <mxCell id="HmxGC194nbF6Ze_ij5kS-31" value="Whenever series is increasing or &lt;br&gt;decreasing exponentially (means &lt;br&gt;every time is multiplied or divided &lt;br&gt;by some number) the answer will &lt;br&gt;be in &lt;b&gt;LOG/ e^&lt;/b&gt;" style="text;html=1;align=left;verticalAlign=middle;resizable=0;points=[];autosize=1;strokeColor=none;fillColor=none;" parent="HmxGC194nbF6Ze_ij5kS-30" vertex="1">
          <mxGeometry x="2.5" y="35" width="195" height="84" as="geometry" />
        </mxCell>
        <mxCell id="HmxGC194nbF6Ze_ij5kS-32" style="edgeStyle=orthogonalEdgeStyle;rounded=0;orthogonalLoop=1;jettySize=auto;html=1;" parent="1" source="HmxGC194nbF6Ze_ij5kS-26" target="HmxGC194nbF6Ze_ij5kS-30" edge="1">
          <mxGeometry relative="1" as="geometry" />
        </mxCell>
        <mxCell id="HmxGC194nbF6Ze_ij5kS-33" value="NOTE" style="swimlane;whiteSpace=wrap;html=1;fillColor=#fad9d5;strokeColor=#ae4132;" parent="1" vertex="1">
          <mxGeometry x="1410" y="-705" width="286" height="200" as="geometry" />
        </mxCell>
        <mxCell id="HmxGC194nbF6Ze_ij5kS-34" value="Comparison&lt;br&gt;&lt;br&gt;0 &amp;lt; 1 &amp;lt; Log(N) &amp;lt; Root(N) &amp;lt; N &amp;lt; N Log(N)&lt;br&gt;&lt;br&gt;N^4 &amp;lt;&amp;lt;&amp;lt; 2^N &amp;lt; N! &amp;lt; N^N" style="text;html=1;align=center;verticalAlign=middle;resizable=0;points=[];autosize=1;strokeColor=none;fillColor=none;" parent="HmxGC194nbF6Ze_ij5kS-33" vertex="1">
          <mxGeometry x="9" y="31" width="236" height="84" as="geometry" />
        </mxCell>
        <mxCell id="HmxGC194nbF6Ze_ij5kS-35" value="For ease of calculation:&lt;br&gt;2^10 = 1024 ~ 10^3" style="text;html=1;align=center;verticalAlign=middle;resizable=0;points=[];autosize=1;strokeColor=none;fillColor=none;" parent="HmxGC194nbF6Ze_ij5kS-33" vertex="1">
          <mxGeometry x="56" y="123" width="142" height="41" as="geometry" />
        </mxCell>
        <mxCell id="HmxGC194nbF6Ze_ij5kS-36" style="edgeStyle=orthogonalEdgeStyle;rounded=0;orthogonalLoop=1;jettySize=auto;html=1;" parent="1" source="HmxGC194nbF6Ze_ij5kS-26" target="HmxGC194nbF6Ze_ij5kS-33" edge="1">
          <mxGeometry relative="1" as="geometry" />
        </mxCell>
        <mxCell id="HmxGC194nbF6Ze_ij5kS-37" value="&lt;p style=&quot;line-height: 142%;&quot;&gt;&lt;font data-font-src=&quot;https://fonts.googleapis.com/css?family=Roboto&quot; face=&quot;Roboto&quot; style=&quot;font-size: 15px;&quot;&gt;BIG O Notation&lt;/font&gt;&lt;/p&gt;" style="rounded=1;whiteSpace=wrap;html=1;shadow=1;treeFolding=1;movable=1;resizable=1;rotatable=1;deletable=1;editable=1;locked=0;connectable=1;strokeColor=none;fillColor=#CCFFFF;" parent="1" vertex="1">
          <mxGeometry x="654" y="-430" width="129" height="39" as="geometry" />
        </mxCell>
        <mxCell id="HmxGC194nbF6Ze_ij5kS-38" style="edgeStyle=orthogonalEdgeStyle;rounded=0;orthogonalLoop=1;jettySize=auto;html=1;" parent="1" source="HmxGC194nbF6Ze_ij5kS-2" target="HmxGC194nbF6Ze_ij5kS-37" edge="1">
          <mxGeometry relative="1" as="geometry">
            <Array as="points">
              <mxPoint x="600" y="-785" />
              <mxPoint x="600" y="-411" />
            </Array>
          </mxGeometry>
        </mxCell>
        <mxCell id="HmxGC194nbF6Ze_ij5kS-39" value="Big O Notation Rule" style="swimlane;whiteSpace=wrap;html=1;fillColor=#b1ddf0;strokeColor=#10739e;" parent="1" vertex="1">
          <mxGeometry x="882" y="-510.5" width="272" height="200" as="geometry" />
        </mxCell>
        <mxCell id="HmxGC194nbF6Ze_ij5kS-40" value="&lt;ol&gt;&lt;li&gt;Neglect all lower orders&lt;/li&gt;&lt;li&gt;Neglect all constants or Co-efficient&lt;/li&gt;&lt;/ol&gt;" style="text;html=1;align=left;verticalAlign=middle;resizable=0;points=[];autosize=1;strokeColor=none;fillColor=none;" parent="HmxGC194nbF6Ze_ij5kS-39" vertex="1">
          <mxGeometry x="8" y="30" width="247" height="65" as="geometry" />
        </mxCell>
        <mxCell id="HmxGC194nbF6Ze_ij5kS-41" value="" style="group" parent="HmxGC194nbF6Ze_ij5kS-39" vertex="1" connectable="0">
          <mxGeometry x="35.99579658703942" y="98.99575749323924" width="81" height="50.00435897435892" as="geometry" />
        </mxCell>
        <mxCell id="HmxGC194nbF6Ze_ij5kS-42" value="" style="shape=image;verticalLabelPosition=bottom;labelBackgroundColor=default;verticalAlign=top;aspect=fixed;imageAspect=0;image=data:image/svg+xml,PHN2ZyB4bWxuczp4bGluaz0iaHR0cDovL3d3dy53My5vcmcvMTk5OS94bGluayIgeG1sbnM9Imh0dHA6Ly93d3cudzMub3JnLzIwMDAvc3ZnIiB2aWV3Qm94PSItLjIzOTA1MSAtLjIzNTI1NCA3Mi44OTYwMDQgMTIuNjA3MjUiIGhlaWdodD0iMTIuNjA3MjVwdCIgd2lkdGg9IjcyLjg5NjAwNHB0IiB2ZXJzaW9uPSIxLjEiPiYjeGE7PGRlZnM+JiN4YTs8cGF0aCBkPSJNMi4yNDc1NzItMS42MjU5MDNDMi4zNzUwOTMtMS43NDU0NTUgMi43MDk4MzgtMi4wMDg0NjggMi44MzczNi0yLjEyMDA1QzMuMzMxNTA3LTIuNTc0MzQ2IDMuODAxNzQzLTMuMDEyNzAyIDMuODAxNzQzLTMuNzM3OTgzQzMuODAxNzQzLTQuNjg2NDI2IDMuMDA0NzMyLTUuMzAwMTI1IDIuMDA4NDY4LTUuMzAwMTI1QzEuMDUyMDU1LTUuMzAwMTI1IC40MjI0MTYtNC41NzQ4NDQgLjQyMjQxNi0zLjg2NTUwNEMuNDIyNDE2LTMuNDc0OTY5IC43MzMyNS0zLjQxOTE3OCAuODQ0ODMyLTMuNDE5MTc4QzEuMDEyMjA0LTMuNDE5MTc4IDEuMjU5Mjc4LTMuNTM4NzMgMS4yNTkyNzgtMy44NDE1OTRDMS4yNTkyNzgtNC4yNTYwNCAuODYwNzcyLTQuMjU2MDQgLjc2NTEzMS00LjI1NjA0Qy45OTYyNjQtNC44Mzc4NTggMS41MzAyNjItNS4wMzcxMTEgMS45MjA3OTctNS4wMzcxMTFDMi42NjIwMTctNS4wMzcxMTEgMy4wNDQ1ODMtNC40MDc0NzIgMy4wNDQ1ODMtMy43Mzc5ODNDMy4wNDQ1ODMtMi45MDkwOTEgMi40NjI3NjUtMi4zMDMzNjIgMS41MjIyOTEtMS4zMzg5NzlMLjUxODA1Ny0uMzAyODY0Qy40MjI0MTYtLjIxNTE5MyAuNDIyNDE2LS4xOTkyNTMgLjQyMjQxNiAwSDMuNTcwNjFMMy44MDE3NDMtMS40MjY2NUgzLjU1NDY3QzMuNTMwNzYtMS4yNjcyNDggMy40NjY5OTktLjg2ODc0MiAzLjM3MTM1Ny0uNzE3MzFDMy4zMjM1MzctLjY1MzU0OSAyLjcxNzgwOC0uNjUzNTQ5IDIuNTkwMjg2LS42NTM1NDlIMS4xNzE2MDZMMi4yNDc1NzItMS42MjU5MDNaIiBpZD0iZzEtNTAiLz4mI3hhOzxwYXRoIGQ9Ik0yLjQ2Mjc2NS0zLjUwMjg2NEMyLjQ4NjY3NS0zLjU3NDU5NSAyLjc4NTU1NC00LjE3MjM1NCAzLjIyNzg5NS00LjU1NDkxOUMzLjUzODczLTQuODQxODQzIDMuOTQ1MjA1LTUuMDMzMTI2IDQuNDExNDU3LTUuMDMzMTI2QzQuODg5NjY0LTUuMDMzMTI2IDUuMDU3MDM2LTQuNjc0NDcxIDUuMDU3MDM2LTQuMTk2MjY0QzUuMDU3MDM2LTMuNTE0ODE5IDQuNTY2ODc0LTIuMTUxOTMgNC4zMjc3NzEtMS41MDYzNTFDNC4yMjAxNzQtMS4yMTk0MjcgNC4xNjAzOTktMS4wNjQwMSA0LjE2MDM5OS0uODQ4ODE3QzQuMTYwMzk5LS4zMTA4MzQgNC41MzEwMDkgLjExOTU1MiA1LjEwNDg1NyAuMTE5NTUyQzYuMjE2Njg3IC4xMTk1NTIgNi42MzUxMTgtMS42Mzc4NTggNi42MzUxMTgtMS43MDk1ODlDNi42MzUxMTgtMS43NjkzNjUgNi41ODcyOTgtMS44MTcxODYgNi41MTU1NjctMS44MTcxODZDNi40MDc5Ny0xLjgxNzE4NiA2LjM5NjAxNS0xLjc4MTMyIDYuMzM2MjM5LTEuNTc4MDgyQzYuMDYxMjctLjU5Nzc1OCA1LjYwNjk3NC0uMTE5NTUyIDUuMTQwNzIyLS4xMTk1NTJDNS4wMjExNzEtLjExOTU1MiA0LjgyOTg4OC0uMTMxNTA3IDQuODI5ODg4LS41MTQwNzJDNC44Mjk4ODgtLjgxMjk1MSA0Ljk2MTM5NS0xLjE3MTYwNiA1LjAzMzEyNi0xLjMzODk3OUM1LjI3MjIyOS0xLjk5NjUxMyA1Ljc3NDM0Ni0zLjMzNTQ5MiA1Ljc3NDM0Ni00LjAxNjkzNkM1Ljc3NDM0Ni00LjczNDI0NyA1LjM1NTkxNS01LjI3MjIyOSA0LjQ0NzMyMy01LjI3MjIyOUMzLjM4MzMxMy01LjI3MjIyOSAyLjgyMTQyLTQuNTE5MDU0IDIuNjA2MjI3LTQuMjIwMTc0QzIuNTcwMzYxLTQuOTAxNjE5IDIuMDgwMTk5LTUuMjcyMjI5IDEuNTU0MTcyLTUuMjcyMjI5QzEuMTcxNjA2LTUuMjcyMjI5IC45MDg1OTMtNS4wNDUwODEgLjcwNTM1NS00LjYzODYwNUMuNDkwMTYyLTQuMjA4MjE5IC4zMjI3OS0zLjQ5MDkwOSAuMzIyNzktMy40NDMwODhTLjM3MDYxLTMuMzM1NDkyIC40NTQyOTYtMy4zMzU0OTJDLjU0OTkzOC0zLjMzNTQ5MiAuNTYxODkzLTMuMzQ3NDQ3IC42MzM2MjQtMy42MjI0MTZDLjgyNDkwNy00LjM1MTY4MSAxLjA0MDEtNS4wMzMxMjYgMS41MTgzMDYtNS4wMzMxMjZDMS43OTMyNzUtNS4wMzMxMjYgMS44ODg5MTctNC44NDE4NDMgMS44ODg5MTctNC40ODMxODhDMS44ODg5MTctNC4yMjAxNzQgMS43NjkzNjUtMy43NTM5MjMgMS42ODU2NzktMy4zODMzMTNMMS4zNTA5MzQtMi4wOTIxNTRDMS4zMDMxMTMtMS44NjUwMDYgMS4xNzE2MDYtMS4zMjcwMjQgMS4xMTE4MzEtMS4xMTE4MzFDMS4wMjgxNDQtLjgwMDk5NiAuODk2NjM4LS4yMzkxMDMgLjg5NjYzOC0uMTc5MzI4Qy44OTY2MzgtLjAxMTk1NSAxLjAyODE0NCAuMTE5NTUyIDEuMjA3NDcyIC4xMTk1NTJDMS4zNTA5MzQgLjExOTU1MiAxLjUxODMwNiAuMDQ3ODIxIDEuNjEzOTQ4LS4xMzE1MDdDMS42Mzc4NTgtLjE5MTI4MyAxLjc0NTQ1NS0uNjA5NzE0IDEuODA1MjMtLjg0ODgxN0wyLjA2ODI0NC0xLjkyNDc4MkwyLjQ2Mjc2NS0zLjUwMjg2NFoiIGlkPSJnMC0xMTAiLz4mI3hhOzxwYXRoIGQ9Ik00Ljc3MDExMi0yLjc2MTY0NEg4LjA2OTczOEM4LjIzNzExMS0yLjc2MTY0NCA4LjQ1MjMwNC0yLjc2MTY0NCA4LjQ1MjMwNC0yLjk3NjgzN0M4LjQ1MjMwNC0zLjIwMzk4NSA4LjI0OTA2Ni0zLjIwMzk4NSA4LjA2OTczOC0zLjIwMzk4NUg0Ljc3MDExMlYtNi41MDM2MTFDNC43NzAxMTItNi42NzA5ODQgNC43NzAxMTItNi44ODYxNzcgNC41NTQ5MTktNi44ODYxNzdDNC4zMjc3NzEtNi44ODYxNzcgNC4zMjc3NzEtNi42ODI5MzkgNC4zMjc3NzEtNi41MDM2MTFWLTMuMjAzOTg1SDEuMDI4MTQ0Qy44NjA3NzItMy4yMDM5ODUgLjY0NTU3OS0zLjIwMzk4NSAuNjQ1NTc5LTIuOTg4NzkyQy42NDU1NzktMi43NjE2NDQgLjg0ODgxNy0yLjc2MTY0NCAxLjAyODE0NC0yLjc2MTY0NEg0LjMyNzc3MVYuNTM3OTgzQzQuMzI3NzcxIC43MDUzNTUgNC4zMjc3NzEgLjkyMDU0OCA0LjU0Mjk2NCAuOTIwNTQ4QzQuNzcwMTEyIC45MjA1NDggNC43NzAxMTIgLjcxNzMxIDQuNzcwMTEyIC41Mzc5ODNWLTIuNzYxNjQ0WiIgaWQ9ImcyLTQzIi8+JiN4YTs8cGF0aCBkPSJNNS4yNjAyNzQtMi4wMDg0NjhINC45OTcyNkM0Ljk2MTM5NS0xLjgwNTIzIDQuODY1NzUzLTEuMTQ3Njk2IDQuNzQ2MjAyLS45NTY0MTNDNC42NjI1MTYtLjg0ODgxNyAzLjk4MTA3MS0uODQ4ODE3IDMuNjIyNDE2LS44NDg4MTdIMS40MTA3MUMxLjczMzQ5OS0xLjEyMzc4NiAyLjQ2Mjc2NS0xLjg4ODkxNyAyLjc3MzU5OS0yLjE3NTg0MUM0LjU5MDc4NS0zLjg0OTU2NCA1LjI2MDI3NC00LjQ3MTIzMyA1LjI2MDI3NC01LjY1NDc5NUM1LjI2MDI3NC03LjAyOTYzOSA0LjE3MjM1NC03Ljk1MDE4NyAyLjc4NTU1NC03Ljk1MDE4N1MuNTg1ODAzLTYuNzY2NjI1IC41ODU4MDMtNS43Mzg0ODFDLjU4NTgwMy01LjEyODc2NyAxLjExMTgzMS01LjEyODc2NyAxLjE0NzY5Ni01LjEyODc2N0MxLjM5ODc1NS01LjEyODc2NyAxLjcwOTU4OS01LjMwODA5NSAxLjcwOTU4OS01LjY5MDY2QzEuNzA5NTg5LTYuMDI1NDA1IDEuNDgyNDQxLTYuMjUyNTUzIDEuMTQ3Njk2LTYuMjUyNTUzQzEuMDQwMS02LjI1MjU1MyAxLjAxNjE4OS02LjI1MjU1MyAuOTgwMzI0LTYuMjQwNTk4QzEuMjA3NDcyLTcuMDUzNTQ5IDEuODUzMDUxLTcuNjAzNDg3IDIuNjMwMTM3LTcuNjAzNDg3QzMuNjQ2MzI2LTcuNjAzNDg3IDQuMjY3OTk1LTYuNzU0NjcgNC4yNjc5OTUtNS42NTQ3OTVDNC4yNjc5OTUtNC42Mzg2MDUgMy42ODIxOTItMy43NTM5MjMgMy4wMDA3NDctMi45ODg3OTJMLjU4NTgwMy0uMjg2OTI0VjBINC45NDk0NEw1LjI2MDI3NC0yLjAwODQ2OFoiIGlkPSJnMi01MCIvPiYjeGE7PHBhdGggZD0iTTIuMTk5NzUxLTQuMjkxOTA1QzEuOTk2NTEzLTQuMjc5OTUgMS45NDg2OTItNC4yNjc5OTUgMS45NDg2OTItNC4xNjAzOTlDMS45NDg2OTItNC4wNDA4NDcgMi4wMDg0NjgtNC4wNDA4NDcgMi4yMjM2NjEtNC4wNDA4NDdIMi43NzM1OTlDMy43ODk3ODgtNC4wNDA4NDcgNC4yNDQwODUtMy4yMDM5ODUgNC4yNDQwODUtMi4wNTYyODlDNC4yNDQwODUtLjQ5MDE2MiAzLjQzMTEzMy0uMDcxNzMxIDIuODQ1MzMtLjA3MTczMUMyLjI3MTQ4Mi0uMDcxNzMxIDEuMjkxMTU4LS4zNDY3IC45NDQ0NTgtMS4xMzU3NDFDMS4zMjcwMjQtMS4wNzU5NjUgMS42NzM3MjQtMS4yOTExNTggMS42NzM3MjQtMS43MjE1NDRDMS42NzM3MjQtMi4wNjgyNDQgMS40MjI2NjUtMi4zMDczNDcgMS4wODc5Mi0yLjMwNzM0N0MuODAwOTk2LTIuMzA3MzQ3IC40OTAxNjItMi4xMzk5NzUgLjQ5MDE2Mi0xLjY4NTY3OUMuNDkwMTYyLS42MjE2NjkgMS41NTQxNzIgLjI1MTA1OSAyLjg4MTE5NiAuMjUxMDU5QzQuMzAzODYxIC4yNTEwNTkgNS4zNTU5MTUtLjgzNjg2MiA1LjM1NTkxNS0yLjA0NDMzNEM1LjM1NTkxNS0zLjE0NDIwOSA0LjQ3MTIzMy00LjAwNDk4MSAzLjMyMzUzNy00LjIwODIxOUM0LjM2MzYzNi00LjUwNzA5OCA1LjAzMzEyNi01LjM3OTgyNiA1LjAzMzEyNi02LjMxMjMyOUM1LjAzMzEyNi03LjI1Njc4NyA0LjA1MjgwMi03Ljk1MDE4NyAyLjg5MzE1MS03Ljk1MDE4N0MxLjY5NzYzNC03Ljk1MDE4NyAuODEyOTUxLTcuMjIwOTIyIC44MTI5NTEtNi4zNDgxOTRDLjgxMjk1MS01Ljg2OTk4OCAxLjE4MzU2Mi01Ljc3NDM0NiAxLjM2Mjg4OS01Ljc3NDM0NkMxLjYxMzk0OC01Ljc3NDM0NiAxLjkwMDg3Mi01Ljk1MzY3NCAxLjkwMDg3Mi02LjMxMjMyOUMxLjkwMDg3Mi02LjY5NDg5NCAxLjYxMzk0OC02Ljg2MjI2NyAxLjM1MDkzNC02Ljg2MjI2N0MxLjI3OTIwMy02Ljg2MjI2NyAxLjI1NTI5My02Ljg2MjI2NyAxLjIxOTQyNy02Ljg1MDMxMUMxLjY3MzcyNC03LjY2MzI2MyAyLjc5NzUwOS03LjY2MzI2MyAyLjg1NzI4NS03LjY2MzI2M0MzLjI1MTgwNi03LjY2MzI2MyA0LjAyODg5Mi03LjQ4MzkzNSA0LjAyODg5Mi02LjMxMjMyOUM0LjAyODg5Mi02LjA4NTE4MSAzLjk5MzAyNi01LjQxNTY5MSAzLjY0NjMyNi00LjkwMTYxOUMzLjI4NzY3MS00LjM3NTU5MiAyLjg4MTE5Ni00LjMzOTcyNiAyLjU1ODQwNi00LjMyNzc3MUwyLjE5OTc1MS00LjI5MTkwNVoiIGlkPSJnMi01MSIvPiYjeGE7PHBhdGggZD0iTTQuMzE1ODE2LTcuNzgyODE0QzQuMzE1ODE2LTguMDA5OTYzIDQuMzE1ODE2LTguMDY5NzM4IDQuMTQ4NDQzLTguMDY5NzM4QzQuMDUyODAyLTguMDY5NzM4IDQuMDE2OTM2LTguMDY5NzM4IDMuOTIxMjk1LTcuOTI2Mjc2TC4zMjI3OS0yLjM0MzIxM1YtMS45OTY1MTNIMy40NjY5OTlWLS45MDg1OTNDMy40NjY5OTktLjQ2NjI1MiAzLjQ0MzA4OC0uMzQ2NyAyLjU3MDM2MS0uMzQ2N0gyLjMzMTI1OFYwQzIuNjA2MjI3LS4wMjM5MSAzLjU1MDY4NS0uMDIzOTEgMy44ODU0My0uMDIzOTFTNS4xNzY1ODgtLjAyMzkxIDUuNDUxNTU3IDBWLS4zNDY3SDUuMjEyNDUzQzQuMzUxNjgxLS4zNDY3IDQuMzE1ODE2LS40NjYyNTIgNC4zMTU4MTYtLjkwODU5M1YtMS45OTY1MTNINS41MjMyODhWLTIuMzQzMjEzSDQuMzE1ODE2Vi03Ljc4MjgxNFpNMy41MjY3NzUtNi44NTAzMTFWLTIuMzQzMjEzSC42MjE2NjlMMy41MjY3NzUtNi44NTAzMTFaIiBpZD0iZzItNTIiLz4mI3hhOzwvZGVmcz4mI3hhOzxnIHRyYW5zZm9ybT0ibWF0cml4KDEuMTMgMCAwIDEuMTMgLTYzLjk4NjA0MyAtNjIuOTY5NTkzKSIgaWQ9InBhZ2UxIj4mI3hhOzx1c2UgeGxpbms6aHJlZj0iI2cyLTUyIiB5PSI2NS43NTM0MjUiIHg9IjU2LjQxMzI2NyIvPiYjeGE7PHVzZSB4bGluazpocmVmPSIjZzAtMTEwIiB5PSI2NS43NTM0MjUiIHg9IjYyLjI2NjI1NyIvPiYjeGE7PHVzZSB4bGluazpocmVmPSIjZzEtNTAiIHk9IjYwLjgxNzIzOSIgeD0iNjkuMjUzODYzIi8+JiN4YTs8dXNlIHhsaW5rOmhyZWY9IiNnMi00MyIgeT0iNjUuNzUzNDI1IiB4PSI3Ni42NDI4NDEiLz4mI3hhOzx1c2UgeGxpbms6aHJlZj0iI2cyLTUxIiB5PSI2NS43NTM0MjUiIHg9Ijg4LjQwNDE1NiIvPiYjeGE7PHVzZSB4bGluazpocmVmPSIjZzAtMTEwIiB5PSI2NS43NTM0MjUiIHg9Ijk0LjI1NzE0NyIvPiYjeGE7PHVzZSB4bGluazpocmVmPSIjZzItNDMiIHk9IjY1Ljc1MzQyNSIgeD0iMTAzLjkwMTQxNiIvPiYjeGE7PHVzZSB4bGluazpocmVmPSIjZzItNTAiIHk9IjY1Ljc1MzQyNSIgeD0iMTE1LjY2MjczMSIvPiYjeGE7PC9nPiYjeGE7PC9zdmc+;" parent="HmxGC194nbF6Ze_ij5kS-41" vertex="1">
          <mxGeometry x="4" width="73" height="13" as="geometry" />
        </mxCell>
        <mxCell id="HmxGC194nbF6Ze_ij5kS-43" value="" style="shape=image;verticalLabelPosition=bottom;labelBackgroundColor=default;verticalAlign=top;aspect=fixed;imageAspect=0;image=data:image/svg+xml,PHN2ZyB4bWxuczp4bGluaz0iaHR0cDovL3d3dy53My5vcmcvMTk5OS94bGluayIgeG1sbnM9Imh0dHA6Ly93d3cudzMub3JnLzIwMDAvc3ZnIiB2aWV3Qm94PSItLjIzOTA1MSAtLjIzNTI1NCAzNi43ODEzMzcgMTQuOTU3ODc1IiBoZWlnaHQ9IjE0Ljk1Nzg3NXB0IiB3aWR0aD0iMzYuNzgxMzM3cHQiIHZlcnNpb249IjEuMSI+JiN4YTs8ZGVmcz4mI3hhOzxwYXRoIGQ9Ik0yLjI0NzU3Mi0xLjYyNTkwM0MyLjM3NTA5My0xLjc0NTQ1NSAyLjcwOTgzOC0yLjAwODQ2OCAyLjgzNzM2LTIuMTIwMDVDMy4zMzE1MDctMi41NzQzNDYgMy44MDE3NDMtMy4wMTI3MDIgMy44MDE3NDMtMy43Mzc5ODNDMy44MDE3NDMtNC42ODY0MjYgMy4wMDQ3MzItNS4zMDAxMjUgMi4wMDg0NjgtNS4zMDAxMjVDMS4wNTIwNTUtNS4zMDAxMjUgLjQyMjQxNi00LjU3NDg0NCAuNDIyNDE2LTMuODY1NTA0Qy40MjI0MTYtMy40NzQ5NjkgLjczMzI1LTMuNDE5MTc4IC44NDQ4MzItMy40MTkxNzhDMS4wMTIyMDQtMy40MTkxNzggMS4yNTkyNzgtMy41Mzg3MyAxLjI1OTI3OC0zLjg0MTU5NEMxLjI1OTI3OC00LjI1NjA0IC44NjA3NzItNC4yNTYwNCAuNzY1MTMxLTQuMjU2MDRDLjk5NjI2NC00LjgzNzg1OCAxLjUzMDI2Mi01LjAzNzExMSAxLjkyMDc5Ny01LjAzNzExMUMyLjY2MjAxNy01LjAzNzExMSAzLjA0NDU4My00LjQwNzQ3MiAzLjA0NDU4My0zLjczNzk4M0MzLjA0NDU4My0yLjkwOTA5MSAyLjQ2Mjc2NS0yLjMwMzM2MiAxLjUyMjI5MS0xLjMzODk3OUwuNTE4MDU3LS4zMDI4NjRDLjQyMjQxNi0uMjE1MTkzIC40MjI0MTYtLjE5OTI1MyAuNDIyNDE2IDBIMy41NzA2MUwzLjgwMTc0My0xLjQyNjY1SDMuNTU0NjdDMy41MzA3Ni0xLjI2NzI0OCAzLjQ2Njk5OS0uODY4NzQyIDMuMzcxMzU3LS43MTczMUMzLjMyMzUzNy0uNjUzNTQ5IDIuNzE3ODA4LS42NTM1NDkgMi41OTAyODYtLjY1MzU0OUgxLjE3MTYwNkwyLjI0NzU3Mi0xLjYyNTkwM1oiIGlkPSJnMS01MCIvPiYjeGE7PHBhdGggZD0iTTMuODg1NDMgMi45MDUxMDZDMy44ODU0MyAyLjg2OTI0IDMuODg1NDMgMi44NDUzMyAzLjY4MjE5MiAyLjY0MjA5MkMyLjQ4NjY3NSAxLjQzNDYyIDEuODE3MTg2LS41Mzc5ODMgMS44MTcxODYtMi45NzY4MzdDMS44MTcxODYtNS4yOTYxMzkgMi4zNzkwNzgtNy4yOTI2NTMgMy43NjU4NzgtOC43MDMzNjJDMy44ODU0My04LjgxMDk1OSAzLjg4NTQzLTguODM0ODY5IDMuODg1NDMtOC44NzA3MzVDMy44ODU0My04Ljk0MjQ2NiAzLjgyNTY1NC04Ljk2NjM3NiAzLjc3NzgzMy04Ljk2NjM3NkMzLjYyMjQxNi04Ljk2NjM3NiAyLjY0MjA5Mi04LjEwNTYwNCAyLjA1NjI4OS02LjkzMzk5OEMxLjQ0NjU3NS01LjcyNjUyNiAxLjE3MTYwNi00LjQ0NzMyMyAxLjE3MTYwNi0yLjk3NjgzN0MxLjE3MTYwNi0xLjkxMjgyNyAxLjMzODk3OS0uNDkwMTYyIDEuOTYwNjQ4IC43ODkwNDFDMi42NjYwMDIgMi4yMjM2NjEgMy42NDYzMjYgMy4wMDA3NDcgMy43Nzc4MzMgMy4wMDA3NDdDMy44MjU2NTQgMy4wMDA3NDcgMy44ODU0MyAyLjk3NjgzNyAzLjg4NTQzIDIuOTA1MTA2WiIgaWQ9ImcyLTQwIi8+JiN4YTs8cGF0aCBkPSJNMy4zNzEzNTctMi45NzY4MzdDMy4zNzEzNTctMy44ODU0MyAzLjI1MTgwNi01LjM2Nzg3IDIuNTgyMzE2LTYuNzU0NjdDMS44NzY5NjEtOC4xODkyOSAuODk2NjM4LTguOTY2Mzc2IC43NjUxMzEtOC45NjYzNzZDLjcxNzMxLTguOTY2Mzc2IC42NTc1MzQtOC45NDI0NjYgLjY1NzUzNC04Ljg3MDczNUMuNjU3NTM0LTguODM0ODY5IC42NTc1MzQtOC44MTA5NTkgLjg2MDc3Mi04LjYwNzcyMUMyLjA1NjI4OS03LjQwMDI0OSAyLjcyNTc3OC01LjQyNzY0NiAyLjcyNTc3OC0yLjk4ODc5MkMyLjcyNTc3OC0uNjY5NDg5IDIuMTYzODg1IDEuMzI3MDI0IC43NzcwODYgMi43Mzc3MzNDLjY1NzUzNCAyLjg0NTMzIC42NTc1MzQgMi44NjkyNCAuNjU3NTM0IDIuOTA1MTA2Qy42NTc1MzQgMi45NzY4MzcgLjcxNzMxIDMuMDAwNzQ3IC43NjUxMzEgMy4wMDA3NDdDLjkyMDU0OCAzLjAwMDc0NyAxLjkwMDg3MiAyLjEzOTk3NSAyLjQ4NjY3NSAuOTY4MzY5QzMuMDk2Mzg5LS4yNTEwNTkgMy4zNzEzNTctMS41NDIyMTcgMy4zNzEzNTctMi45NzY4MzdaIiBpZD0iZzItNDEiLz4mI3hhOzxwYXRoIGQ9Ik04Ljg0NjgyNC02LjkxMDA4N0M4Ljk3ODMzMS03LjQyNDE1OSA5LjE2OTYxNC03Ljc4MjgxNCAxMC4wNzgyMDctNy44MTg2OEMxMC4xMTQwNzItNy44MTg2OCAxMC4yNTc1MzQtNy44MzA2MzUgMTAuMjU3NTM0LTguMDMzODczQzEwLjI1NzUzNC04LjE2NTM4IDEwLjE0OTkzOC04LjE2NTM4IDEwLjEwMjExNy04LjE2NTM4QzkuODYzMDE0LTguMTY1MzggOS4yNTMzLTguMTQxNDY5IDkuMDE0MTk3LTguMTQxNDY5SDguNDQwMzQ5QzguMjcyOTc2LTguMTQxNDY5IDguMDU3NzgzLTguMTY1MzggNy44OTA0MTEtOC4xNjUzOEM3LjgxODY4LTguMTY1MzggNy42NzUyMTgtOC4xNjUzOCA3LjY3NTIxOC03LjkzODIzMkM3LjY3NTIxOC03LjgxODY4IDcuNzcwODU5LTcuODE4NjggNy44NTQ1NDUtNy44MTg2OEM4LjU3MTg1Ni03Ljc5NDc3IDguNjE5Njc2LTcuNTE5ODAxIDguNjE5Njc2LTcuMzA0NjA4QzguNjE5Njc2LTcuMTk3MDExIDguNjA3NzIxLTcuMTYxMTQ2IDguNTcxODU2LTYuOTkzNzczTDcuMjIwOTIyLTEuNjAxOTkzTDQuNjYyNTE2LTcuOTYyMTQyQzQuNTc4ODI5LTguMTUzNDI1IDQuNTY2ODc0LTguMTY1MzggNC4zMDM4NjEtOC4xNjUzOEgyLjg0NTMzQzIuNjA2MjI3LTguMTY1MzggMi40OTg2My04LjE2NTM4IDIuNDk4NjMtNy45MzgyMzJDMi40OTg2My03LjgxODY4IDIuNTgyMzE2LTcuODE4NjggMi44MDk0NjUtNy44MTg2OEMyLjg2OTI0LTcuODE4NjggMy41NzQ1OTUtNy44MTg2OCAzLjU3NDU5NS03LjcxMTA4M0MzLjU3NDU5NS03LjY4NzE3MyAzLjU1MDY4NS03LjU5MTUzMiAzLjUzODczLTcuNTU1NjY2TDEuOTQ4NjkyLTEuMjE5NDI3QzEuODA1MjMtLjYzMzYyNCAxLjUxODMwNi0uMzgyNTY1IC43MjkyNjUtLjM0NjdDLjY2OTQ4OS0uMzQ2NyAuNTQ5OTM4LS4zMzQ3NDUgLjU0OTkzOC0uMTE5NTUyQy41NDk5MzggMCAuNjY5NDg5IDAgLjcwNTM1NSAwQy45NDQ0NTggMCAxLjU1NDE3Mi0uMDIzOTEgMS43OTMyNzUtLjAyMzkxSDIuMzY3MTIzQzIuNTM0NDk2LS4wMjM5MSAyLjczNzczMyAwIDIuOTA1MTA2IDBDMi45ODg3OTIgMCAzLjEyMDI5OSAwIDMuMTIwMjk5LS4yMjcxNDhDMy4xMjAyOTktLjMzNDc0NSAzLjAwMDc0Ny0uMzQ2NyAyLjk1MjkyNy0uMzQ2N0MyLjU1ODQwNi0uMzU4NjU1IDIuMTc1ODQxLS40MzAzODYgMi4xNzU4NDEtLjg2MDc3MkMyLjE3NTg0MS0uOTU2NDEzIDIuMTk5NzUxLTEuMDY0MDEgMi4yMjM2NjEtMS4xNTk2NTFMMy44Mzc2MDktNy41NTU2NjZDMy45MDkzNC03LjQzNjExNSAzLjkwOTM0LTcuNDEyMjA0IDMuOTU3MTYxLTcuMzA0NjA4TDYuODAyNDkxLS4yMTUxOTNDNi44NjIyNjctLjA3MTczMSA2Ljg4NjE3NyAwIDYuOTkzNzczIDBDNy4xMTMzMjUgMCA3LjEyNTI4LS4wMzU4NjYgNy4xNzMxMDEtLjIzOTEwM0w4Ljg0NjgyNC02LjkxMDA4N1oiIGlkPSJnMC03OCIvPiYjeGE7PHBhdGggZD0iTTguNjc5NDUyLTUuMjM2MzY0QzguNjc5NDUyLTcuMjA4OTY2IDcuMzg4Mjk0LTguNDE2NDM4IDUuNzE0NTctOC40MTY0MzhDMy4xNTYxNjQtOC40MTY0MzggLjU3Mzg0OC01LjY2Njc1IC41NzM4NDgtMi45MDUxMDZDLjU3Mzg0OC0xLjAyODE0NCAxLjgxNzE4NiAuMjUxMDU5IDMuNTUwNjg1IC4yNTEwNTlDNi4wNjEyNyAuMjUxMDU5IDguNjc5NDUyLTIuMzY3MTIzIDguNjc5NDUyLTUuMjM2MzY0Wk0zLjYyMjQxNi0uMDIzOTFDMi42NDIwOTItLjAyMzkxIDEuNjAxOTkzLS43NDEyMiAxLjYwMTk5My0yLjYwNjIyN0MxLjYwMTk5My0zLjY5NDE0NyAxLjk5NjUxMy01LjQ3NTQ2NyAyLjk3NjgzNy02LjY3MDk4NEMzLjg0OTU2NC03LjcyMzAzOSA0Ljg1Mzc5OC04LjE1MzQyNSA1LjY1NDc5NS04LjE1MzQyNUM2LjcwNjg0OS04LjE1MzQyNSA3LjcyMzAzOS03LjM4ODI5NCA3LjcyMzAzOS01LjY2Njc1QzcuNzIzMDM5LTQuNjAyNzQgNy4yNjg3NDItMi45NDA5NzEgNi40Njc3NDYtMS44MDUyM0M1LjU5NTAxOS0uNTg1ODAzIDQuNTA3MDk4LS4wMjM5MSAzLjYyMjQxNi0uMDIzOTFaIiBpZD0iZzAtNzkiLz4mI3hhOzwvZGVmcz4mI3hhOzxnIHRyYW5zZm9ybT0ibWF0cml4KDEuMTMgMCAwIDEuMTMgLTYzLjk4NjA0MyAtNjIuOTY5NTkzKSIgaWQ9InBhZ2UxIj4mI3hhOzx1c2UgeGxpbms6aHJlZj0iI2cwLTc5IiB5PSI2NS43NTM0MjUiIHg9IjU2LjQxMzI2NyIvPiYjeGE7PHVzZSB4bGluazpocmVmPSIjZzItNDAiIHk9IjY1Ljc1MzQyNSIgeD0iNjUuNjg0NTE1Ii8+JiN4YTs8dXNlIHhsaW5rOmhyZWY9IiNnMC03OCIgeT0iNjUuNzUzNDI1IiB4PSI3MC4yMzY4NDEiLz4mI3hhOzx1c2UgeGxpbms6aHJlZj0iI2cxLTUwIiB5PSI2MC44MTcyMzkiIHg9IjgwLjg1OTQ1MSIvPiYjeGE7PHVzZSB4bGluazpocmVmPSIjZzItNDEiIHk9IjY1Ljc1MzQyNSIgeD0iODUuNTkxNzY2Ii8+JiN4YTs8L2c+JiN4YTs8L3N2Zz4=;" parent="HmxGC194nbF6Ze_ij5kS-41" vertex="1">
          <mxGeometry x="22" y="35.00435897435892" width="37" height="15" as="geometry" />
        </mxCell>
        <mxCell id="HmxGC194nbF6Ze_ij5kS-44" value="will become" style="text;html=1;align=center;verticalAlign=middle;resizable=0;points=[];autosize=1;strokeColor=none;fillColor=none;" parent="HmxGC194nbF6Ze_ij5kS-41" vertex="1">
          <mxGeometry y="13.004242506760761" width="81" height="26" as="geometry" />
        </mxCell>
        <mxCell id="HmxGC194nbF6Ze_ij5kS-45" style="edgeStyle=orthogonalEdgeStyle;rounded=0;orthogonalLoop=1;jettySize=auto;html=1;" parent="1" source="HmxGC194nbF6Ze_ij5kS-37" target="HmxGC194nbF6Ze_ij5kS-39" edge="1">
          <mxGeometry relative="1" as="geometry" />
        </mxCell>
        <mxCell id="HmxGC194nbF6Ze_ij5kS-46" value="&lt;p style=&quot;line-height: 142%;&quot;&gt;&lt;font data-font-src=&quot;https://fonts.googleapis.com/css?family=Roboto&quot; face=&quot;Roboto&quot; style=&quot;font-size: 15px;&quot;&gt;Errors&lt;/font&gt;&lt;/p&gt;" style="rounded=1;whiteSpace=wrap;html=1;shadow=1;treeFolding=1;movable=1;resizable=1;rotatable=1;deletable=1;editable=1;locked=0;connectable=1;strokeColor=none;fillColor=#CCFFFF;" parent="1" vertex="1">
          <mxGeometry x="654" y="-151" width="129" height="39" as="geometry" />
        </mxCell>
        <mxCell id="HmxGC194nbF6Ze_ij5kS-47" style="edgeStyle=orthogonalEdgeStyle;rounded=0;orthogonalLoop=1;jettySize=auto;html=1;" parent="1" edge="1">
          <mxGeometry relative="1" as="geometry">
            <Array as="points">
              <mxPoint x="600" y="-785" />
              <mxPoint x="600" y="-140" />
            </Array>
            <mxPoint x="112" y="-784.9756097560974" as="sourcePoint" />
            <mxPoint x="654" y="-139.99999999999977" as="targetPoint" />
          </mxGeometry>
        </mxCell>
        <mxCell id="HmxGC194nbF6Ze_ij5kS-48" value="Memory Limit exceed" style="swimlane;whiteSpace=wrap;html=1;fillColor=#b1ddf0;strokeColor=#10739e;" parent="1" vertex="1">
          <mxGeometry x="882" y="-249" width="200" height="85" as="geometry" />
        </mxCell>
        <mxCell id="HmxGC194nbF6Ze_ij5kS-49" value="When memory limit exceed&lt;br&gt;&lt;br&gt;The fix will come with practice" style="text;html=1;align=left;verticalAlign=middle;resizable=0;points=[];autosize=1;strokeColor=none;fillColor=none;" parent="HmxGC194nbF6Ze_ij5kS-48" vertex="1">
          <mxGeometry x="5" y="28" width="177" height="55" as="geometry" />
        </mxCell>
        <mxCell id="HmxGC194nbF6Ze_ij5kS-50" style="edgeStyle=orthogonalEdgeStyle;rounded=0;orthogonalLoop=1;jettySize=auto;html=1;" parent="1" source="HmxGC194nbF6Ze_ij5kS-46" target="HmxGC194nbF6Ze_ij5kS-48" edge="1">
          <mxGeometry relative="1" as="geometry">
            <Array as="points">
              <mxPoint x="832" y="-132" />
              <mxPoint x="832" y="-206" />
            </Array>
          </mxGeometry>
        </mxCell>
        <mxCell id="HmxGC194nbF6Ze_ij5kS-51" value="Time Limit Exceed" style="swimlane;whiteSpace=wrap;html=1;fillColor=#b1ddf0;strokeColor=#10739e;" parent="1" vertex="1">
          <mxGeometry x="882" y="-133" width="408" height="200" as="geometry" />
        </mxCell>
        <mxCell id="HmxGC194nbF6Ze_ij5kS-52" value="System can perform 10^8 iterations in every second.&lt;br&gt;&lt;br&gt;Code server are set on 1GHz = 10^9 instruction/sec&lt;br&gt;&lt;br&gt;&lt;b&gt;So on an average we have 1 sec to run the code and return answer.&lt;/b&gt;&lt;br&gt;&lt;br&gt;If our code as 10 instruction in every iteration,&amp;nbsp; 10 * 10^8 = 10^9&amp;nbsp;&lt;br&gt;This may throw TLE&lt;br&gt;&lt;br&gt;&lt;b&gt;In general, we try to keep our code between 10^7 to 10^8 iterations.&lt;/b&gt;" style="text;html=1;align=left;verticalAlign=middle;resizable=0;points=[];autosize=1;strokeColor=none;fillColor=none;" parent="HmxGC194nbF6Ze_ij5kS-51" vertex="1">
          <mxGeometry x="5" y="33" width="403" height="156" as="geometry" />
        </mxCell>
        <mxCell id="HmxGC194nbF6Ze_ij5kS-53" style="edgeStyle=orthogonalEdgeStyle;rounded=0;orthogonalLoop=1;jettySize=auto;html=1;" parent="1" source="HmxGC194nbF6Ze_ij5kS-46" target="HmxGC194nbF6Ze_ij5kS-51" edge="1">
          <mxGeometry relative="1" as="geometry" />
        </mxCell>
        <mxCell id="HmxGC194nbF6Ze_ij5kS-54" value="Pattern to solve question" style="swimlane;whiteSpace=wrap;html=1;fillColor=#fad9d5;strokeColor=#ae4132;" parent="1" vertex="1">
          <mxGeometry x="1382" y="-145" width="383" height="200" as="geometry" />
        </mxCell>
        <mxCell id="HmxGC194nbF6Ze_ij5kS-55" value="1. Read question&lt;br&gt;2. Read constraints&lt;br&gt;&lt;span style=&quot;&quot;&gt; &lt;/span&gt;&lt;span style=&quot;white-space: pre;&quot;&gt; &lt;/span&gt;a. if N between (1 , 10^5), then O(N^2) will give &lt;b&gt;TLE&lt;/b&gt;&lt;br&gt;&lt;span style=&quot;&quot;&gt; &lt;/span&gt;&lt;span style=&quot;white-space: pre;&quot;&gt; &lt;/span&gt;b. if N between (1 , 10^3), then O(N^2) will be &lt;b&gt;OK&lt;/b&gt;&lt;br&gt;&lt;span style=&quot;white-space: pre;&quot;&gt; &lt;/span&gt;c. if N between (1 , 10^4), then O(N^2) will be in &lt;b&gt;grey area&lt;/b&gt;&lt;br&gt;2. Come up with Brute force&lt;br&gt;3. If brute force pass, continue to code, else find optimized solution&lt;br&gt;&lt;br&gt;Grey Area: Try to optimize it. If not possible not try much" style="text;html=1;align=left;verticalAlign=middle;resizable=0;points=[];autosize=1;strokeColor=none;fillColor=none;" parent="HmxGC194nbF6Ze_ij5kS-54" vertex="1">
          <mxGeometry x="10" y="29" width="373" height="142" as="geometry" />
        </mxCell>
        <mxCell id="HmxGC194nbF6Ze_ij5kS-56" style="edgeStyle=orthogonalEdgeStyle;rounded=0;orthogonalLoop=1;jettySize=auto;html=1;" parent="1" source="HmxGC194nbF6Ze_ij5kS-51" target="HmxGC194nbF6Ze_ij5kS-54" edge="1">
          <mxGeometry relative="1" as="geometry" />
        </mxCell>
        <mxCell id="HmxGC194nbF6Ze_ij5kS-57" value="Sum of First n-1 natural number = (n-1)(n)/2" style="text;html=1;align=center;verticalAlign=middle;resizable=0;points=[];autosize=1;strokeColor=#666666;fillColor=none;fontColor=#333333;" parent="1" vertex="1">
          <mxGeometry x="1142" y="-1429" width="251" height="26" as="geometry" />
        </mxCell>
        <UserObject label="Cheat sheet" link="https://www.bigocheatsheet.com/" linkTarget="_blank" id="svTAk3EwG5xAMpe_9DkS-1">
          <mxCell style="text;html=1;strokeColor=default;fillColor=#e1d5e7;whiteSpace=wrap;align=center;verticalAlign=middle;fontStyle=4;shadow=1;" parent="1" vertex="1">
            <mxGeometry x="-12.5" y="-649" width="120" height="40" as="geometry" />
          </mxCell>
        </UserObject>
        <mxCell id="8Wb1wAIqE076Lm1BmqRm-1" value="NOTE" style="swimlane;whiteSpace=wrap;html=1;fillColor=#fad9d5;strokeColor=#ae4132;" vertex="1" parent="1">
          <mxGeometry x="1410" y="-452" width="201.5" height="123" as="geometry" />
        </mxCell>
        <mxCell id="8Wb1wAIqE076Lm1BmqRm-2" value="String comparison take O(N) TC&lt;br&gt;&lt;br&gt;Number comparison take O(1) TC" style="text;html=1;align=left;verticalAlign=middle;resizable=0;points=[];autosize=1;strokeColor=none;fillColor=none;" vertex="1" parent="8Wb1wAIqE076Lm1BmqRm-1">
          <mxGeometry x="2.5" y="50" width="199" height="55" as="geometry" />
        </mxCell>
      </root>
    </mxGraphModel>
  </diagram>
</mxfile>
